M48
; DRILL file {KiCad 9.0.0} date 2026-05-22T15:15:59+0200
; FORMAT={-:-/ absolute / metric / decimal}
; #@! TF.CreationDate,2026-05-22T15:15:59+02:00
; #@! TF.GenerationSoftware,Kicad,Pcbnew,9.0.0
; #@! TF.FileFunction,MixedPlating,1,4
FMAT,2
METRIC
; #@! TA.AperFunction,Plated,PTH,ViaDrill
T1C0.200
; #@! TA.AperFunction,Plated,PTH,ViaDrill
T2C0.300
; #@! TA.AperFunction,Plated,PTH,ComponentDrill
T3C0.500
; #@! TA.AperFunction,Plated,PTH,ComponentDrill
T4C0.600
; #@! TA.AperFunction,Plated,PTH,ComponentDrill
T5C0.700
; #@! TA.AperFunction,Plated,PTH,ComponentDrill
T6C0.750
; #@! TA.AperFunction,Plated,PTH,ComponentDrill
T7C0.800
; #@! TA.AperFunction,Plated,PTH,ComponentDrill
T8C0.900
; #@! TA.AperFunction,Plated,PTH,ComponentDrill
T9C0.920
; #@! TA.AperFunction,Plated,PTH,ComponentDrill
T10C1.000
; #@! TA.AperFunction,Plated,PTH,ComponentDrill
T11C1.400
; #@! TA.AperFunction,Plated,PTH,ComponentDrill
T12C1.500
; #@! TA.AperFunction,Plated,PTH,ComponentDrill
T13C2.300
; #@! TA.AperFunction,Plated,PTH,ComponentDrill
T14C3.050
; #@! TA.AperFunction,Plated,PTH,ComponentDrill
T15C3.200
; #@! TA.AperFunction,NonPlated,NPTH,ComponentDrill
T16C0.650
; #@! TA.AperFunction,NonPlated,NPTH,ComponentDrill
T17C1.050
; #@! TA.AperFunction,NonPlated,NPTH,ComponentDrill
T18C1.100
; #@! TA.AperFunction,NonPlated,NPTH,ComponentDrill
T19C1.150
; #@! TA.AperFunction,NonPlated,NPTH,ComponentDrill
T20C1.300
; #@! TA.AperFunction,NonPlated,NPTH,ComponentDrill
T21C1.600
; #@! TA.AperFunction,NonPlated,NPTH,ComponentDrill
T22C1.650
; #@! TA.AperFunction,NonPlated,NPTH,ComponentDrill
T23C3.250
%
G90
G05
T1
X66.714Y-121.986
X67.154Y-113.176
X77.959Y-121.956
X78.124Y-113.196
X78.194Y-119.216
X78.494Y-110.306
X79.364Y-123.696
X79.384Y-128.426
X80.574Y-128.396
X80.574Y-129.006
X80.574Y-129.666
X80.574Y-130.276
X80.574Y-130.906
X80.814Y-119.166
X80.874Y-121.546
X80.874Y-122.156
X80.874Y-122.816
X80.874Y-123.426
X81.194Y-110.386
X81.304Y-128.406
X81.304Y-129.016
X81.304Y-129.676
X81.304Y-130.286
X81.304Y-130.916
X81.604Y-121.556
X81.604Y-122.166
X81.604Y-122.826
X81.604Y-123.436
X82.084Y-128.426
X82.084Y-129.036
X82.084Y-129.696
X82.084Y-130.306
X82.084Y-130.936
X82.384Y-121.576
X82.384Y-122.186
X82.384Y-122.846
X82.384Y-123.456
X82.774Y-128.426
X82.774Y-129.036
X82.774Y-129.696
X82.774Y-130.306
X82.774Y-130.936
X83.074Y-121.576
X83.074Y-122.186
X83.074Y-122.846
X83.074Y-123.456
X83.474Y-128.436
X83.474Y-129.016
X83.474Y-129.676
X83.474Y-130.286
X83.474Y-130.916
X83.654Y-108.626
X87.184Y-110.756
X90.364Y-98.586
X91.744Y-70.496
X91.756Y-118.204
X91.894Y-102.336
X92.004Y-77.386
X92.024Y-60.666
X92.034Y-78.396
X92.144Y-104.696
X92.164Y-58.926
X92.294Y-118.406
X92.304Y-97.386
X93.074Y-83.496
X93.084Y-86.116
X93.554Y-115.276
X93.554Y-117.606
X94.064Y-58.386
X94.064Y-61.186
X94.064Y-75.136
X94.064Y-76.486
X94.064Y-79.486
X94.064Y-83.386
X94.064Y-86.286
X94.064Y-87.386
X94.064Y-87.986
X94.064Y-88.486
X94.064Y-88.986
X94.064Y-89.866
X94.064Y-102.086
X94.064Y-105.086
X98.364Y-97.886
X98.694Y-63.986
X99.014Y-118.586
X99.549Y-118.686
X100.294Y-117.706
X100.374Y-115.026
X102.184Y-86.706
X102.184Y-88.176
X102.184Y-89.666
X102.184Y-91.186
X102.184Y-92.706
X102.184Y-94.136
X102.184Y-95.056
X102.359Y-84.751
X102.4Y-116.195
X102.434Y-115.586
X102.674Y-102.646
X102.904Y-102.136
X102.954Y-69.296
X102.954Y-70.792
X102.954Y-71.886
X102.954Y-97.396
X103.004Y-60.816
X103.004Y-98.196
X103.004Y-103.136
X103.014Y-60.066
X103.034Y-73.236
X103.044Y-74.426
X103.044Y-75.226
X103.044Y-75.996
X103.044Y-76.726
X103.044Y-77.336
X103.054Y-67.836
X103.314Y-73.806
X103.379Y-78.041
X105.236Y-136.074
X106.044Y-114.736
X106.084Y-117.596
X106.289Y-109.261
X106.36Y-109.886
X106.484Y-131.996
X106.994Y-84.136
X106.994Y-99.986
X108.274Y-73.596
X108.404Y-82.046
X108.404Y-100.006
X109.454Y-97.476
X109.474Y-98.266
X109.719Y-72.231
X110.274Y-68.066
X110.274Y-68.846
X110.694Y-102.266
X111.514Y-85.806
X111.534Y-84.796
X111.534Y-86.686
X111.534Y-87.506
X112.394Y-45.466
X112.534Y-51.776
X112.594Y-55.236
X112.864Y-58.256
X113.194Y-95.316
X113.284Y-94.386
X114.394Y-58.856
X114.924Y-45.466
X115.234Y-55.206
X115.274Y-51.766
X116.884Y-69.556
X116.924Y-70.346
X117.754Y-106.146
X117.844Y-92.156
X117.914Y-77.366
X118.114Y-103.726
X118.344Y-92.196
X118.364Y-78.266
X118.964Y-96.536
X118.972Y-95.903
X120.714Y-95.326
X120.854Y-100.926
X120.934Y-90.426
X121.484Y-101.126
X121.514Y-90.426
X121.714Y-105.986
X122.189Y-105.486
X122.294Y-96.176
X123.134Y-103.696
X123.522Y-97.585
X123.896Y-97.254
X123.924Y-95.466
X124.274Y-119.466
X124.344Y-103.676
X124.524Y-118.856
X124.839Y-96.611
X124.864Y-95.986
X125.294Y-95.346
X125.954Y-100.956
X126.314Y-104.111
X126.884Y-95.326
X126.989Y-104.136
X127.114Y-59.996
X127.134Y-60.966
X127.594Y-103.746
X128.114Y-100.661
X128.139Y-106.511
X128.384Y-92.676
X128.394Y-95.306
X128.414Y-122.306
X128.714Y-100.661
X128.739Y-106.536
X129.114Y-122.736
X129.134Y-103.736
X129.344Y-109.246
X129.374Y-95.646
X129.394Y-110.276
X129.634Y-103.736
X129.869Y-122.391
X129.914Y-105.711
X129.995Y-92.075
X130.084Y-121.056
X130.084Y-121.706
X130.324Y-112.606
X130.364Y-118.006
X130.539Y-92.036
X130.539Y-105.661
X131.094Y-92.426
X131.374Y-96.076
X131.514Y-111.536
X131.884Y-110.276
X132.204Y-103.466
X132.864Y-92.446
X132.904Y-103.766
X133.044Y-71.886
X133.094Y-71.076
X133.134Y-119.666
X133.574Y-103.576
X134.014Y-95.596
X134.214Y-100.611
X134.289Y-99.911
X135.014Y-112.696
X135.104Y-103.796
X135.764Y-106.286
X135.894Y-92.856
X136.314Y-110.093
X136.414Y-106.286
X136.594Y-103.756
X137.034Y-108.596
X137.454Y-112.696
X137.514Y-96.762
X137.634Y-92.766
X137.714Y-105.436
X137.784Y-95.556
X138.014Y-96.261
X138.125Y-104.076
X138.214Y-95.626
X138.259Y-112.881
X138.364Y-105.386
X138.699Y-95.481
X139.034Y-112.896
X139.104Y-108.116
X139.234Y-103.576
X139.304Y-109.066
X139.581Y-108.116
X139.634Y-100.766
X139.781Y-109.066
X140.024Y-103.566
X140.058Y-108.126
X140.258Y-109.076
X140.384Y-95.216
X140.534Y-108.126
X140.699Y-112.249
X140.734Y-109.076
X140.764Y-92.036
X141.464Y-91.986
X141.812Y-104.036
X141.864Y-95.276
X141.874Y-92.616
X141.924Y-90.536
X142.144Y-100.496
X142.354Y-74.856
X142.944Y-103.766
X142.964Y-104.816
X143.104Y-100.026
X143.104Y-113.376
X143.624Y-104.176
X143.674Y-106.796
X143.994Y-73.416
X144.094Y-103.706
X144.235Y-109.789
X144.614Y-90.556
X144.624Y-106.666
X144.844Y-112.516
X144.864Y-92.786
X144.887Y-95.333
X145.654Y-95.616
X145.804Y-103.746
X146.354Y-95.326
X146.644Y-55.696
X147.274Y-100.336
X147.294Y-113.126
X147.374Y-110.626
X147.884Y-113.636
X148.004Y-55.276
X148.394Y-87.406
X148.474Y-113.606
X149.294Y-56.596
X149.354Y-91.296
X150.114Y-100.876
X150.304Y-91.176
X150.554Y-99.966
X151.114Y-103.656
X151.364Y-95.336
X151.394Y-90.336
X151.537Y-110.699
X151.637Y-113.199
X152.375Y-95.405
X152.419Y-57.901
X152.794Y-88.256
X152.998Y-92.391
X153.324Y-49.206
X153.404Y-90.646
X153.464Y-106.436
X153.864Y-108.821
X153.889Y-106.861
X154.394Y-54.006
X154.855Y-108.821
X154.924Y-128.966
X154.984Y-130.576
X155.234Y-53.636
X155.824Y-53.236
X155.854Y-57.686
X155.934Y-91.286
X155.954Y-89.886
X156.364Y-105.666
X156.834Y-91.306
X157.054Y-96.646
X157.114Y-103.626
X157.374Y-90.856
X157.384Y-49.206
X157.405Y-108.781
X157.445Y-107.711
X157.944Y-91.246
X158.124Y-54.246
X158.444Y-48.696
X158.494Y-124.506
X158.764Y-91.576
X159.079Y-95.951
X159.624Y-97.586
X159.894Y-116.946
X160.484Y-96.146
X160.981Y-109.153
X161.104Y-103.636
X161.714Y-122.646
X162.364Y-96.146
X162.714Y-107.286
X162.934Y-56.226
X162.964Y-122.136
X163.044Y-98.076
X163.224Y-46.726
X163.514Y-127.706
X163.544Y-96.146
X163.73Y-47.281
X164.094Y-97.046
X164.314Y-47.596
X164.564Y-103.726
X164.614Y-101.106
X164.804Y-106.166
X164.884Y-96.146
X165.444Y-52.086
X165.464Y-88.156
X165.584Y-116.946
X166.254Y-53.656
X166.404Y-96.146
X166.649Y-103.591
X167.004Y-124.006
X167.274Y-103.766
X167.364Y-129.006
X167.384Y-106.156
X167.914Y-96.146
X167.914Y-122.136
X168.034Y-103.436
X169.404Y-96.146
X169.625Y-103.532
X170.604Y-116.946
X170.884Y-96.146
X171.144Y-103.676
X172.384Y-96.146
X172.634Y-103.586
X172.774Y-123.306
X173.224Y-130.166
X173.224Y-130.706
X173.464Y-118.786
X173.874Y-96.146
X174.125Y-103.526
X174.704Y-104.236
X174.794Y-130.736
X175.164Y-118.786
X175.404Y-96.146
X175.574Y-104.236
X176.164Y-118.786
X176.224Y-130.096
X176.234Y-130.736
X176.344Y-104.236
X176.834Y-123.006
X176.904Y-96.146
X176.914Y-125.536
X177.084Y-104.236
X177.724Y-130.126
X177.724Y-130.736
X177.814Y-118.786
X178.424Y-96.146
X178.554Y-104.236
X178.914Y-118.786
X179.224Y-130.126
X179.254Y-130.736
X179.874Y-96.146
X179.934Y-125.466
X179.944Y-122.956
X180.114Y-104.236
X180.514Y-118.786
X180.724Y-130.176
X180.764Y-130.736
X180.779Y-95.991
X181.129Y-104.171
X181.359Y-95.411
X181.564Y-118.786
X182.354Y-92.586
X182.364Y-90.936
X182.374Y-91.486
X182.374Y-92.016
X182.664Y-103.916
X182.664Y-104.476
X182.674Y-104.986
X182.674Y-105.466
X182.862Y-92.586
X182.872Y-90.936
X182.882Y-91.486
X182.882Y-92.016
X183.124Y-118.796
X183.134Y-103.916
X183.184Y-104.496
X183.184Y-104.966
X183.184Y-105.466
X183.369Y-92.576
X183.379Y-90.926
X183.389Y-91.476
X183.389Y-92.006
X183.624Y-103.916
X183.654Y-104.496
X183.684Y-104.966
X183.684Y-105.486
X183.877Y-92.556
X183.887Y-90.906
X183.897Y-91.456
X183.897Y-91.986
X183.914Y-118.796
X184.144Y-104.506
X184.154Y-103.916
X184.184Y-105.456
X184.194Y-104.986
X184.384Y-92.576
X184.394Y-90.926
X184.404Y-91.476
X184.404Y-92.006
X184.714Y-103.936
X184.724Y-104.506
X184.744Y-105.486
X184.774Y-104.966
X186.614Y-62.386
X186.964Y-43.326
X187.014Y-117.406
X187.084Y-53.087
X188.914Y-116.396
X189.224Y-43.316
X189.234Y-124.846
X189.544Y-53.406
X189.654Y-69.926
X190.234Y-76.936
X190.244Y-122.556
X190.274Y-121.986
X190.294Y-125.746
X190.304Y-121.306
X190.304Y-128.366
X190.324Y-126.426
X190.334Y-118.426
X190.334Y-119.126
X190.334Y-119.816
X190.334Y-120.526
X190.334Y-124.936
X190.334Y-127.136
X190.334Y-127.786
X190.354Y-128.936
X190.404Y-88.886
X190.424Y-89.806
X190.444Y-90.716
X190.464Y-91.546
X191.024Y-122.566
X191.054Y-121.996
X191.074Y-125.756
X191.084Y-121.316
X191.084Y-128.376
X191.104Y-126.436
X191.114Y-118.436
X191.114Y-119.136
X191.114Y-119.826
X191.114Y-120.536
X191.114Y-124.946
X191.114Y-127.146
X191.114Y-127.796
X191.134Y-128.946
X191.854Y-121.346
X191.854Y-125.776
X191.864Y-128.396
X191.884Y-126.456
X191.894Y-118.456
X191.894Y-119.156
X191.894Y-119.846
X191.894Y-120.556
X191.894Y-127.166
X191.894Y-127.816
X191.914Y-128.966
X192.644Y-128.396
X192.664Y-126.456
X192.674Y-118.456
X192.674Y-119.156
X192.674Y-119.846
X192.674Y-120.556
X192.674Y-127.166
X192.674Y-127.816
X192.694Y-128.966
X193.424Y-128.416
X193.444Y-126.476
X193.454Y-118.476
X193.454Y-119.176
X193.454Y-119.866
X193.454Y-120.576
X193.454Y-127.186
X193.454Y-127.836
X193.474Y-128.986
X197.294Y-81.436
X198.364Y-57.066
X199.054Y-48.716
X199.054Y-49.316
X199.064Y-48.066
X199.074Y-49.916
X199.104Y-38.076
X199.114Y-38.606
X199.484Y-66.986
X199.484Y-68.406
X199.644Y-48.716
X199.644Y-49.316
X199.654Y-48.066
X199.664Y-49.916
X199.734Y-38.076
X199.734Y-69.256
X199.744Y-38.606
X199.754Y-69.936
X199.804Y-70.716
X199.974Y-67.786
X199.984Y-66.976
X199.984Y-68.396
X200.234Y-48.716
X200.234Y-49.316
X200.244Y-48.066
X200.254Y-49.916
X200.344Y-38.076
X200.374Y-38.576
X200.464Y-66.986
X200.484Y-67.796
X200.484Y-68.406
X200.494Y-69.256
X200.504Y-69.976
X200.504Y-70.736
X200.824Y-48.716
X200.824Y-49.316
X200.834Y-48.066
X200.844Y-49.916
X201.004Y-38.066
X201.014Y-38.576
X201.224Y-60.416
X201.244Y-61.127
X201.244Y-61.839
X201.264Y-63.262
X201.284Y-62.551
X201.304Y-63.974
X201.334Y-64.686
X201.344Y-66.122
X201.364Y-65.411
X201.384Y-66.834
X201.414Y-48.716
X201.414Y-49.316
X201.414Y-67.546
X201.414Y-68.264
X201.424Y-48.066
X201.424Y-53.816
X201.434Y-49.916
X201.444Y-68.976
X201.644Y-38.096
X201.724Y-38.606
X201.884Y-60.436
X201.934Y-61.136
X201.934Y-61.836
X201.934Y-63.236
X201.954Y-62.536
X202.004Y-48.716
X202.004Y-49.316
X202.014Y-48.066
X202.014Y-63.936
X202.014Y-66.096
X202.024Y-49.916
X202.034Y-65.396
X202.088Y-64.684
X202.094Y-66.796
X202.124Y-68.226
X202.168Y-67.544
X202.198Y-68.974
X202.262Y-43.089
X202.262Y-43.802
X202.302Y-41.662
X202.302Y-42.376
X202.314Y-44.516
X202.322Y-45.229
X202.322Y-45.942
X202.322Y-46.656
X202.324Y-38.096
X202.344Y-38.809
X202.352Y-39.522
X202.352Y-40.236
X202.352Y-40.949
X202.724Y-60.416
X202.884Y-43.73
X202.944Y-43.106
X202.944Y-45.198
X202.944Y-45.932
X202.944Y-46.666
X202.952Y-38.096
X202.967Y-38.706
X202.974Y-44.464
X202.984Y-42.406
X203.004Y-41.716
X203.024Y-39.546
X203.024Y-40.236
X203.044Y-40.966
X203.579Y-38.086
X203.589Y-38.696
X203.599Y-60.411
X204.207Y-38.086
X204.212Y-38.696
X204.834Y-38.086
X204.834Y-38.696
X205.854Y-66.286
X205.884Y-61.506
X205.884Y-62.106
X205.884Y-62.796
X205.884Y-63.456
X205.884Y-64.126
X205.884Y-64.806
X205.884Y-65.516
X206.834Y-61.486
X206.834Y-62.176
X206.834Y-62.796
X206.834Y-63.456
X206.834Y-64.126
X206.834Y-64.806
X206.834Y-65.516
X206.834Y-66.286
X207.274Y-75.486
X207.294Y-38.166
X207.294Y-38.766
X207.294Y-39.456
X207.294Y-40.116
X207.294Y-40.786
X207.294Y-41.466
X207.294Y-42.176
X207.294Y-42.906
X207.294Y-43.466
X207.294Y-44.066
X207.974Y-118.496
X207.994Y-116.136
X208.164Y-38.166
X208.164Y-38.766
X208.164Y-39.456
X208.164Y-40.116
X208.164Y-40.786
X208.164Y-41.466
X208.164Y-42.176
X208.164Y-42.906
X208.164Y-43.506
X208.164Y-44.066
X208.954Y-52.096
X209.644Y-67.406
X209.654Y-66.296
X209.654Y-76.696
X209.664Y-66.846
X210.044Y-68.296
X210.044Y-68.876
X210.044Y-69.416
X210.144Y-66.296
X210.194Y-67.396
X210.734Y-68.296
X210.734Y-68.876
X210.734Y-69.416
X212.454Y-52.486
X212.934Y-48.676
X213.264Y-67.996
X213.264Y-68.576
X213.264Y-69.116
X213.264Y-69.606
X213.824Y-76.976
X213.854Y-78.066
X213.954Y-67.996
X213.954Y-68.576
X213.954Y-69.116
X213.954Y-69.606
X214.584Y-49.936
X214.599Y-80.991
X214.714Y-67.996
X214.714Y-68.576
X214.714Y-69.116
X214.714Y-69.606
X216.243Y-78.055
X216.604Y-50.076
X216.669Y-76.971
X217.564Y-91.511
X217.589Y-90.861
X217.589Y-92.211
X217.589Y-92.811
X217.589Y-93.411
X217.589Y-94.836
X217.614Y-94.111
X218.364Y-91.511
X218.364Y-94.111
X218.364Y-94.811
X218.389Y-90.861
X218.389Y-92.211
X218.389Y-92.811
X218.389Y-93.411
X219.064Y-91.511
X219.089Y-90.861
X219.089Y-92.211
X219.089Y-92.811
X219.089Y-93.411
X219.114Y-94.111
X219.114Y-94.786
X219.639Y-77.651
X219.639Y-78.941
X219.639Y-79.541
X219.649Y-78.281
X219.649Y-80.091
X220.014Y-91.561
X220.014Y-94.161
X220.014Y-94.861
X220.039Y-90.911
X220.039Y-92.261
X220.039Y-92.861
X220.039Y-93.461
X220.226Y-77.671
X220.226Y-78.961
X220.226Y-79.561
X220.236Y-78.301
X220.236Y-80.111
X220.714Y-91.561
X220.739Y-90.911
X220.739Y-92.261
X220.739Y-92.861
X220.739Y-93.461
X220.764Y-94.161
X220.764Y-94.836
X220.813Y-77.671
X220.813Y-78.961
X220.813Y-79.561
X220.823Y-78.301
X220.823Y-80.111
X221.399Y-77.681
X221.399Y-78.971
X221.399Y-79.571
X221.409Y-78.311
X221.409Y-80.121
X221.449Y-82.491
X224.819Y-75.371
X224.864Y-79.956
X225.119Y-78.871
X225.699Y-100.821
X227.019Y-74.671
X227.019Y-75.271
X227.019Y-75.821
X227.019Y-76.371
X227.119Y-81.171
X227.119Y-81.821
X227.119Y-82.421
X227.644Y-74.671
X227.644Y-75.271
X227.644Y-75.821
X227.644Y-76.371
X227.744Y-81.171
X227.744Y-81.821
X227.744Y-82.421
X228.269Y-74.671
X228.269Y-75.271
X228.269Y-75.821
X228.269Y-76.371
X228.369Y-81.171
X228.369Y-81.821
X228.369Y-82.421
X229.124Y-72.776
X229.519Y-77.146
X229.519Y-77.796
X232.619Y-78.946
X232.619Y-79.596
X233.669Y-77.621
X235.069Y-111.176
T2
X132.919Y-97.237
X133.52Y-96.636
T3
X65.4Y-41.743
X65.4Y-133.75
X66.103Y-40.046
X66.103Y-43.44
X66.103Y-132.053
X66.103Y-135.447
X67.8Y-39.343
X67.8Y-44.143
X67.8Y-131.35
X67.8Y-136.15
X68.379Y-68.994
X68.379Y-93.878
X69.082Y-67.296
X69.082Y-70.691
X69.082Y-92.18
X69.082Y-95.575
X69.497Y-40.046
X69.497Y-43.44
X69.497Y-132.053
X69.497Y-135.447
X70.2Y-41.743
X70.2Y-133.75
X70.779Y-66.594
X70.779Y-71.394
X70.779Y-91.478
X70.779Y-96.278
X72.476Y-67.296
X72.476Y-70.691
X72.476Y-92.18
X72.476Y-95.575
X73.179Y-68.994
X73.179Y-93.878
X231.412Y-41.743
X231.412Y-133.75
X232.114Y-40.046
X232.114Y-43.44
X232.114Y-132.053
X232.114Y-135.447
X233.812Y-39.343
X233.812Y-44.143
X233.812Y-131.35
X233.812Y-136.15
X235.509Y-40.046
X235.509Y-43.44
X235.509Y-132.053
X235.509Y-135.447
X236.212Y-41.743
X236.212Y-133.75
T5
X91.904Y-121.816
X91.904Y-125.016
X92.404Y-123.316
X92.404Y-126.516
X93.904Y-121.816
X93.904Y-125.016
X94.904Y-123.316
X94.904Y-126.516
X95.904Y-121.816
X95.904Y-125.016
X96.904Y-123.316
X96.904Y-126.516
X97.904Y-121.816
X97.904Y-125.016
X99.404Y-123.316
X99.404Y-126.516
X99.904Y-121.816
X99.904Y-125.016
T6
X194.734Y-63.807
X194.734Y-65.807
X194.734Y-67.807
X194.734Y-69.807
T8
X135.809Y-131.846
X136.419Y-118.056
X137.689Y-120.596
X138.349Y-130.326
X138.959Y-118.056
X140.229Y-120.596
X141.499Y-118.056
X142.769Y-120.596
X144.039Y-118.056
X145.309Y-120.596
X145.919Y-131.846
X146.579Y-118.056
X147.849Y-120.596
X148.459Y-130.326
T9
X203.064Y-122.493
X203.064Y-125.113
X205.564Y-122.493
X205.564Y-125.113
X207.564Y-122.493
X207.564Y-125.113
X210.064Y-122.493
X210.064Y-125.113
T10
X75.381Y-40.806
X75.381Y-43.346
X75.381Y-45.886
X75.381Y-48.426
X79.748Y-40.806
X79.748Y-43.346
X79.748Y-45.886
X79.748Y-48.426
X84.114Y-40.806
X84.114Y-43.346
X84.114Y-45.886
X84.114Y-48.426
X88.481Y-40.806
X88.481Y-43.346
X88.481Y-45.886
X88.481Y-48.426
X95.264Y-40.736
X95.264Y-43.276
X95.264Y-45.816
X99.598Y-40.736
X99.598Y-43.276
X99.598Y-45.816
X99.598Y-48.356
X103.931Y-40.736
X103.931Y-43.276
X103.931Y-45.816
X103.931Y-48.356
X108.264Y-40.736
X108.264Y-43.276
X108.264Y-45.816
X108.264Y-48.356
X191.644Y-40.736
X191.644Y-43.276
X191.644Y-45.816
X191.874Y-50.636
X191.874Y-53.176
X191.874Y-55.716
X193.064Y-79.746
X193.064Y-82.286
X193.064Y-84.826
X195.724Y-40.696
X195.724Y-43.236
X195.724Y-45.776
X199.944Y-40.711
X199.944Y-43.251
X199.944Y-45.791
T11
X226.604Y-57.856
T12
X134.359Y-123.896
X149.909Y-123.896
T13
X89.334Y-122.836
X89.334Y-128.516
X102.474Y-122.836
X102.474Y-128.516
X199.994Y-122.143
X199.994Y-127.823
X213.134Y-122.143
X213.134Y-127.823
T14
X119.264Y-41.246
X182.804Y-41.246
T15
X67.8Y-41.743
X67.8Y-133.75
X70.779Y-68.994
X70.779Y-93.878
X233.812Y-41.743
X233.812Y-133.75
T16
X232.369Y-75.826
X232.369Y-81.606
T17
X230.614Y-114.436
T18
X99.389Y-58.986
X185.4Y-98.146
T19
X99.093Y-83.886
T20
X223.164Y-114.436
T21
X99.389Y-78.986
X116.6Y-98.146
X235.854Y-57.856
T22
X99.093Y-103.886
T23
X136.419Y-126.946
X147.849Y-126.946
T4
G00X231.299Y-74.396
M15
G01X232.399Y-74.396
M16
G05
G00X231.299Y-83.036
M15
G01X232.399Y-83.036
M16
G05
G00X235.649Y-74.396
M15
G01X236.449Y-74.396
M16
G05
G00X235.649Y-83.036
M15
G01X236.449Y-83.036
M16
G05
T7
G00X229.004Y-53.106
M15
G01X227.804Y-53.106
M16
G05
G00X229.104Y-62.606
M15
G01X227.904Y-62.606
M16
G05
G00X232.604Y-56.756
M15
G01X232.604Y-58.956
M16
G05
G00X233.704Y-53.106
M15
G01X232.504Y-53.106
M16
G05
G00X233.704Y-62.606
M15
G01X232.504Y-62.606
M16
G05
T8
G00X169.474Y-128.226
M15
G01X169.474Y-130.026
M16
G05
G00X169.474Y-134.686
M15
G01X169.474Y-135.486
M16
G05
G00X183.974Y-128.226
M15
G01X183.974Y-130.026
M16
G05
G00X183.974Y-134.686
M15
G01X183.974Y-135.486
M16
G05
M30
