%TF.GenerationSoftware,KiCad,Pcbnew,9.0.0*%
%TF.CreationDate,2026-05-22T15:15:51+02:00*%
%TF.ProjectId,LattePandaMU_Carrier_Custom_Board,4c617474-6550-4616-9e64-614d555f4361,rev?*%
%TF.SameCoordinates,Original*%
%TF.FileFunction,Profile,NP*%
%FSLAX46Y46*%
G04 Gerber Fmt 4.6, Leading zero omitted, Abs format (unit mm)*
G04 Created by KiCad (PCBNEW 9.0.0) date 2026-05-22 15:15:51*
%MOMM*%
%LPD*%
G01*
G04 APERTURE LIST*
%TA.AperFunction,Profile*%
%ADD10C,0.050000*%
%TD*%
G04 APERTURE END LIST*
D10*
X87664466Y-137035534D02*
X104754466Y-137035534D01*
X67804466Y-138750000D02*
X87664466Y-138750000D01*
X62800000Y-133750000D02*
X62800000Y-41750000D01*
X238800000Y-53385534D02*
X237989466Y-53385534D01*
X151664466Y-138975534D02*
X197644466Y-138975534D01*
X233800000Y-36750000D02*
G75*
G02*
X238800000Y-41750000I0J-5000000D01*
G01*
X238800000Y-133750000D02*
X238800000Y-85255534D01*
X132764466Y-137310534D02*
X151664466Y-137335534D01*
X104754466Y-137035534D02*
X104754466Y-138825534D01*
X62800000Y-41750000D02*
G75*
G02*
X67800000Y-36750000I5000000J0D01*
G01*
X238800000Y-133750000D02*
G75*
G02*
X233800000Y-138750000I-5000000J0D01*
G01*
X237989466Y-53385534D02*
X237989466Y-62535534D01*
X216174466Y-138750000D02*
X233800000Y-138750000D01*
X216174466Y-137205534D02*
X216174466Y-138750000D01*
X151664466Y-137335534D02*
X151664466Y-138975534D01*
X67800000Y-138750000D02*
G75*
G02*
X62800000Y-133750000I0J5000000D01*
G01*
X238939466Y-62535534D02*
X238939466Y-72235534D01*
X132764466Y-138825534D02*
X132764466Y-137310534D01*
X237989466Y-62535534D02*
X238939466Y-62535534D01*
X197644466Y-138975534D02*
X197634466Y-137175534D01*
X238800000Y-41750000D02*
X238800000Y-53385534D01*
X197634466Y-137175534D02*
X216174466Y-137205534D01*
X237939466Y-85255534D02*
X237939466Y-72235534D01*
X104754466Y-138825534D02*
X132764466Y-138825534D01*
X67800000Y-36750000D02*
X233800000Y-36750000D01*
X237939466Y-72235534D02*
X238939466Y-72235534D01*
X238800000Y-85255534D02*
X237939466Y-85255534D01*
X87664466Y-138750000D02*
X87664466Y-137035534D01*
M02*
