%TF.GenerationSoftware,KiCad,Pcbnew,9.0.0*%
%TF.CreationDate,2026-05-22T15:15:50+02:00*%
%TF.ProjectId,LattePandaMU_Carrier_Custom_Board,4c617474-6550-4616-9e64-614d555f4361,rev?*%
%TF.SameCoordinates,Original*%
%TF.FileFunction,Soldermask,Top*%
%TF.FilePolarity,Negative*%
%FSLAX46Y46*%
G04 Gerber Fmt 4.6, Leading zero omitted, Abs format (unit mm)*
G04 Created by KiCad (PCBNEW 9.0.0) date 2026-05-22 15:15:50*
%MOMM*%
%LPD*%
G01*
G04 APERTURE LIST*
G04 Aperture macros list*
%AMRoundRect*
0 Rectangle with rounded corners*
0 $1 Rounding radius*
0 $2 $3 $4 $5 $6 $7 $8 $9 X,Y pos of 4 corners*
0 Add a 4 corners polygon primitive as box body*
4,1,4,$2,$3,$4,$5,$6,$7,$8,$9,$2,$3,0*
0 Add four circle primitives for the rounded corners*
1,1,$1+$1,$2,$3*
1,1,$1+$1,$4,$5*
1,1,$1+$1,$6,$7*
1,1,$1+$1,$8,$9*
0 Add four rect primitives between the rounded corners*
20,1,$1+$1,$2,$3,$4,$5,0*
20,1,$1+$1,$4,$5,$6,$7,0*
20,1,$1+$1,$6,$7,$8,$9,0*
20,1,$1+$1,$8,$9,$2,$3,0*%
%AMFreePoly0*
4,1,14,0.314644,0.085355,0.385355,0.014644,0.400000,-0.020711,0.400000,-0.050000,0.385355,-0.085355,0.350000,-0.100000,-0.350000,-0.100000,-0.385355,-0.085355,-0.400000,-0.050000,-0.400000,0.050000,-0.385355,0.085355,-0.350000,0.100000,0.279289,0.100000,0.314644,0.085355,0.314644,0.085355,$1*%
%AMFreePoly1*
4,1,14,0.385355,0.085355,0.400000,0.050000,0.400000,0.020711,0.385355,-0.014644,0.314644,-0.085355,0.279289,-0.100000,-0.350000,-0.100000,-0.385355,-0.085355,-0.400000,-0.050000,-0.400000,0.050000,-0.385355,0.085355,-0.350000,0.100000,0.350000,0.100000,0.385355,0.085355,0.385355,0.085355,$1*%
%AMFreePoly2*
4,1,14,0.085355,0.385355,0.100000,0.350000,0.100000,-0.350000,0.085355,-0.385355,0.050000,-0.400000,-0.050000,-0.400000,-0.085355,-0.385355,-0.100000,-0.350000,-0.100000,0.279289,-0.085355,0.314644,-0.014644,0.385355,0.020711,0.400000,0.050000,0.400000,0.085355,0.385355,0.085355,0.385355,$1*%
%AMFreePoly3*
4,1,14,0.014644,0.385355,0.085355,0.314644,0.100000,0.279289,0.100000,-0.350000,0.085355,-0.385355,0.050000,-0.400000,-0.050000,-0.400000,-0.085355,-0.385355,-0.100000,-0.350000,-0.100000,0.350000,-0.085355,0.385355,-0.050000,0.400000,-0.020711,0.400000,0.014644,0.385355,0.014644,0.385355,$1*%
%AMFreePoly4*
4,1,14,0.385355,0.085355,0.400000,0.050000,0.400000,-0.050000,0.385355,-0.085355,0.350000,-0.100000,-0.279289,-0.100000,-0.314644,-0.085355,-0.385355,-0.014644,-0.400000,0.020711,-0.400000,0.050000,-0.385355,0.085355,-0.350000,0.100000,0.350000,0.100000,0.385355,0.085355,0.385355,0.085355,$1*%
%AMFreePoly5*
4,1,14,0.385355,0.085355,0.400000,0.050000,0.400000,-0.050000,0.385355,-0.085355,0.350000,-0.100000,-0.350000,-0.100000,-0.385355,-0.085355,-0.400000,-0.050000,-0.400000,-0.020711,-0.385355,0.014644,-0.314644,0.085355,-0.279289,0.100000,0.350000,0.100000,0.385355,0.085355,0.385355,0.085355,$1*%
%AMFreePoly6*
4,1,14,0.085355,0.385355,0.100000,0.350000,0.100000,-0.279289,0.085355,-0.314644,0.014644,-0.385355,-0.020711,-0.400000,-0.050000,-0.400000,-0.085355,-0.385355,-0.100000,-0.350000,-0.100000,0.350000,-0.085355,0.385355,-0.050000,0.400000,0.050000,0.400000,0.085355,0.385355,0.085355,0.385355,$1*%
%AMFreePoly7*
4,1,14,0.085355,0.385355,0.100000,0.350000,0.100000,-0.350000,0.085355,-0.385355,0.050000,-0.400000,0.020711,-0.400000,-0.014644,-0.385355,-0.085355,-0.314644,-0.100000,-0.279289,-0.100000,0.350000,-0.085355,0.385355,-0.050000,0.400000,0.050000,0.400000,0.085355,0.385355,0.085355,0.385355,$1*%
G04 Aperture macros list end*
%ADD10C,2.500000*%
%ADD11C,1.900000*%
%ADD12R,1.900000X1.900000*%
%ADD13C,3.250000*%
%ADD14RoundRect,0.147500X0.147500X0.172500X-0.147500X0.172500X-0.147500X-0.172500X0.147500X-0.172500X0*%
%ADD15RoundRect,0.135000X-0.135000X-0.185000X0.135000X-0.185000X0.135000X0.185000X-0.135000X0.185000X0*%
%ADD16RoundRect,0.135000X0.135000X0.185000X-0.135000X0.185000X-0.135000X-0.185000X0.135000X-0.185000X0*%
%ADD17RoundRect,0.140000X-0.170000X0.140000X-0.170000X-0.140000X0.170000X-0.140000X0.170000X0.140000X0*%
%ADD18C,3.200000*%
%ADD19C,4.400000*%
%ADD20RoundRect,0.225000X0.225000X0.250000X-0.225000X0.250000X-0.225000X-0.250000X0.225000X-0.250000X0*%
%ADD21C,1.500000*%
%ADD22RoundRect,0.150000X-0.150000X0.587500X-0.150000X-0.587500X0.150000X-0.587500X0.150000X0.587500X0*%
%ADD23R,1.700000X1.700000*%
%ADD24O,1.700000X1.700000*%
%ADD25RoundRect,0.218750X0.218750X0.256250X-0.218750X0.256250X-0.218750X-0.256250X0.218750X-0.256250X0*%
%ADD26RoundRect,0.140000X-0.140000X-0.170000X0.140000X-0.170000X0.140000X0.170000X-0.140000X0.170000X0*%
%ADD27R,1.400000X1.200000*%
%ADD28RoundRect,0.135000X0.185000X-0.135000X0.185000X0.135000X-0.185000X0.135000X-0.185000X-0.135000X0*%
%ADD29R,3.700000X1.100000*%
%ADD30RoundRect,0.250000X0.650000X-1.000000X0.650000X1.000000X-0.650000X1.000000X-0.650000X-1.000000X0*%
%ADD31RoundRect,0.135000X-0.185000X0.135000X-0.185000X-0.135000X0.185000X-0.135000X0.185000X0.135000X0*%
%ADD32RoundRect,0.147500X0.172500X-0.147500X0.172500X0.147500X-0.172500X0.147500X-0.172500X-0.147500X0*%
%ADD33RoundRect,0.140000X0.140000X0.170000X-0.140000X0.170000X-0.140000X-0.170000X0.140000X-0.170000X0*%
%ADD34R,0.625000X0.250000*%
%ADD35R,0.700000X0.400000*%
%ADD36R,0.575000X0.400000*%
%ADD37R,0.250000X0.625000*%
%ADD38R,0.400000X0.700000*%
%ADD39R,0.400000X0.575000*%
%ADD40RoundRect,0.147500X-0.172500X0.147500X-0.172500X-0.147500X0.172500X-0.147500X0.172500X0.147500X0*%
%ADD41RoundRect,0.200000X0.275000X-0.200000X0.275000X0.200000X-0.275000X0.200000X-0.275000X-0.200000X0*%
%ADD42RoundRect,0.225000X-0.225000X-0.250000X0.225000X-0.250000X0.225000X0.250000X-0.225000X0.250000X0*%
%ADD43RoundRect,0.225000X0.250000X-0.225000X0.250000X0.225000X-0.250000X0.225000X-0.250000X-0.225000X0*%
%ADD44RoundRect,0.140000X0.170000X-0.140000X0.170000X0.140000X-0.170000X0.140000X-0.170000X-0.140000X0*%
%ADD45RoundRect,0.150000X0.150000X-0.512500X0.150000X0.512500X-0.150000X0.512500X-0.150000X-0.512500X0*%
%ADD46C,1.050000*%
%ADD47C,1.300000*%
%ADD48R,4.500000X2.300000*%
%ADD49C,1.000000*%
%ADD50R,1.200000X1.200000*%
%ADD51C,1.200000*%
%ADD52C,3.500000*%
%ADD53R,2.300000X3.200000*%
%ADD54R,1.100000X0.510000*%
%ADD55RoundRect,0.243750X-0.243750X-0.456250X0.243750X-0.456250X0.243750X0.456250X-0.243750X0.456250X0*%
%ADD56C,0.800000*%
%ADD57C,6.400000*%
%ADD58R,0.300000X2.600000*%
%ADD59O,1.500000X3.300000*%
%ADD60O,1.500000X2.300000*%
%ADD61RoundRect,0.112500X0.112500X-0.187500X0.112500X0.187500X-0.112500X0.187500X-0.112500X-0.187500X0*%
%ADD62FreePoly0,180.000000*%
%ADD63RoundRect,0.050000X0.350000X0.050000X-0.350000X0.050000X-0.350000X-0.050000X0.350000X-0.050000X0*%
%ADD64FreePoly1,180.000000*%
%ADD65FreePoly2,180.000000*%
%ADD66RoundRect,0.050000X0.050000X0.350000X-0.050000X0.350000X-0.050000X-0.350000X0.050000X-0.350000X0*%
%ADD67FreePoly3,180.000000*%
%ADD68FreePoly4,180.000000*%
%ADD69FreePoly5,180.000000*%
%ADD70FreePoly6,180.000000*%
%ADD71FreePoly7,180.000000*%
%ADD72R,2.650000X2.650000*%
%ADD73RoundRect,0.200000X-0.200000X-0.275000X0.200000X-0.275000X0.200000X0.275000X-0.200000X0.275000X0*%
%ADD74C,1.150000*%
%ADD75C,1.650000*%
%ADD76R,1.550000X0.300000*%
%ADD77R,2.750000X1.200000*%
%ADD78C,1.600000*%
%ADD79C,2.200000*%
%ADD80O,1.500000X3.700000*%
%ADD81O,2.700000X1.500000*%
%ADD82RoundRect,0.250000X-0.750000X-0.250000X0.750000X-0.250000X0.750000X0.250000X-0.750000X0.250000X0*%
%ADD83C,0.650000*%
%ADD84R,1.240000X0.600000*%
%ADD85R,1.240000X0.300000*%
%ADD86O,2.100000X1.000000*%
%ADD87O,1.800000X1.000000*%
%ADD88R,1.500000X1.500000*%
%ADD89RoundRect,0.250000X0.625000X-0.350000X0.625000X0.350000X-0.625000X0.350000X-0.625000X-0.350000X0*%
%ADD90O,1.750000X1.200000*%
%ADD91RoundRect,0.150000X-0.587500X-0.150000X0.587500X-0.150000X0.587500X0.150000X-0.587500X0.150000X0*%
%ADD92RoundRect,0.150000X0.587500X0.150000X-0.587500X0.150000X-0.587500X-0.150000X0.587500X-0.150000X0*%
%ADD93RoundRect,0.112500X-0.112500X0.187500X-0.112500X-0.187500X0.112500X-0.187500X0.112500X0.187500X0*%
%ADD94RoundRect,0.112500X0.187500X0.112500X-0.187500X0.112500X-0.187500X-0.112500X0.187500X-0.112500X0*%
%ADD95C,1.100000*%
%ADD96R,0.300000X1.750000*%
%ADD97R,2.000000X3.500000*%
%ADD98RoundRect,0.218750X-0.218750X-0.256250X0.218750X-0.256250X0.218750X0.256250X-0.218750X0.256250X0*%
G04 APERTURE END LIST*
D10*
%TO.C,J6*%
X149909466Y-123895534D03*
X134359466Y-123895534D03*
D11*
X147849466Y-120595534D03*
X146579466Y-118055534D03*
X145309466Y-120595534D03*
X144039466Y-118055534D03*
X142769466Y-120595534D03*
X141499466Y-118055534D03*
X140229466Y-120595534D03*
X138959466Y-118055534D03*
X137689466Y-120595534D03*
D12*
X136419466Y-118055534D03*
D11*
X135809466Y-131845534D03*
X138349466Y-130325534D03*
X145919466Y-131845534D03*
X148459466Y-130325534D03*
D13*
X147849466Y-126945534D03*
X136419466Y-126945534D03*
%TD*%
D14*
%TO.C,D3*%
X167034466Y-123298034D03*
X166064466Y-123298034D03*
%TD*%
D15*
%TO.C,R52*%
X206714466Y-55995534D03*
X207734466Y-55995534D03*
%TD*%
D16*
%TO.C,R49*%
X200774466Y-53795534D03*
X199754466Y-53795534D03*
%TD*%
D17*
%TO.C,C21*%
X177514466Y-115055534D03*
X177514466Y-116015534D03*
%TD*%
D16*
%TO.C,R51*%
X212264466Y-48625534D03*
X211244466Y-48625534D03*
%TD*%
D18*
%TO.C,H6*%
X182804466Y-41245534D03*
D19*
X182804466Y-41245534D03*
%TD*%
D20*
%TO.C,C80*%
X206259466Y-44745534D03*
X204709466Y-44745534D03*
%TD*%
D21*
%TO.C,TP12*%
X190934466Y-61055534D03*
%TD*%
D17*
%TO.C,C38*%
X139064466Y-104405534D03*
X139064466Y-105365534D03*
%TD*%
D22*
%TO.C,Q1*%
X160364466Y-119854034D03*
X158464466Y-119854034D03*
X159414466Y-121729034D03*
%TD*%
D21*
%TO.C,TP13*%
X229554466Y-99140534D03*
%TD*%
D23*
%TO.C,J12*%
X88481133Y-40805534D03*
D24*
X88481133Y-43345534D03*
X88481133Y-45885534D03*
X88481133Y-48425534D03*
%TD*%
D21*
%TO.C,TP7*%
X220439466Y-99970534D03*
%TD*%
D25*
%TO.C,D9*%
X91751966Y-86985534D03*
X90176966Y-86985534D03*
%TD*%
D26*
%TO.C,C41*%
X141274466Y-104825534D03*
X142234466Y-104825534D03*
%TD*%
D27*
%TO.C,Y1*%
X126214466Y-121125534D03*
X128414466Y-121125534D03*
X128414466Y-119425534D03*
X126214466Y-119425534D03*
%TD*%
D20*
%TO.C,C77*%
X204754466Y-63613034D03*
X203204466Y-63613034D03*
%TD*%
D28*
%TO.C,R60*%
X212454466Y-51785534D03*
X212454466Y-50765534D03*
%TD*%
D29*
%TO.C,L1*%
X203254466Y-73375534D03*
X203254466Y-70375534D03*
%TD*%
D23*
%TO.C,JP1*%
X193064466Y-79745534D03*
D24*
X193064466Y-82285534D03*
X193064466Y-84825534D03*
%TD*%
D30*
%TO.C,D15*%
X217219466Y-69300534D03*
X217219466Y-65300534D03*
%TD*%
D31*
%TO.C,R78*%
X143854466Y-90555534D03*
X143854466Y-91575534D03*
%TD*%
D16*
%TO.C,R35*%
X94284466Y-71885534D03*
X93264466Y-71885534D03*
%TD*%
D23*
%TO.C,J1*%
X95264466Y-40735534D03*
D24*
X95264466Y-43275534D03*
X95264466Y-45815534D03*
%TD*%
D21*
%TO.C,TP10*%
X214239466Y-71360534D03*
%TD*%
D32*
%TO.C,D11*%
X225969466Y-78905534D03*
X225969466Y-77935534D03*
%TD*%
D30*
%TO.C,D19*%
X227259466Y-91560534D03*
X227259466Y-87560534D03*
%TD*%
D16*
%TO.C,R21*%
X134264466Y-110395534D03*
X133244466Y-110395534D03*
%TD*%
D30*
%TO.C,D18*%
X231109466Y-91560534D03*
X231109466Y-87560534D03*
%TD*%
D20*
%TO.C,C83*%
X206249466Y-39815534D03*
X204699466Y-39815534D03*
%TD*%
D33*
%TO.C,C51*%
X94064466Y-85335534D03*
X93104466Y-85335534D03*
%TD*%
D26*
%TO.C,C39*%
X135334466Y-108505534D03*
X136294466Y-108505534D03*
%TD*%
D15*
%TO.C,R33*%
X93154466Y-70485534D03*
X94174466Y-70485534D03*
%TD*%
D32*
%TO.C,D12*%
X229134466Y-74420534D03*
X229134466Y-73450534D03*
%TD*%
D22*
%TO.C,Q2*%
X171049466Y-119798034D03*
X169149466Y-119798034D03*
X170099466Y-121673034D03*
%TD*%
D28*
%TO.C,R14*%
X180524466Y-120585534D03*
X180524466Y-119565534D03*
%TD*%
D34*
%TO.C,U12*%
X187906966Y-52085534D03*
X187906966Y-52585534D03*
D35*
X187944466Y-53085534D03*
D34*
X187906966Y-53585534D03*
X187906966Y-54085534D03*
X188681966Y-54085534D03*
X188681966Y-53585534D03*
D36*
X188706966Y-53085534D03*
D34*
X188681966Y-52585534D03*
X188681966Y-52085534D03*
%TD*%
D37*
%TO.C,U7*%
X146432927Y-112331495D03*
X146932927Y-112331495D03*
D38*
X147432927Y-112293995D03*
D37*
X147932927Y-112331495D03*
X148432927Y-112331495D03*
X148432927Y-111556495D03*
X147932927Y-111556495D03*
D39*
X147432927Y-111531495D03*
D37*
X146932927Y-111556495D03*
X146432927Y-111556495D03*
%TD*%
D20*
%TO.C,C68*%
X209671966Y-46808034D03*
X208121966Y-46808034D03*
%TD*%
D26*
%TO.C,C25*%
X165614466Y-129035534D03*
X166574466Y-129035534D03*
%TD*%
D16*
%TO.C,R34*%
X94284466Y-73485534D03*
X93264466Y-73485534D03*
%TD*%
D40*
%TO.C,D6*%
X105164466Y-114745534D03*
X105164466Y-115715534D03*
%TD*%
D31*
%TO.C,R1*%
X217679466Y-118115534D03*
X217679466Y-119135534D03*
%TD*%
D15*
%TO.C,R2*%
X220459466Y-97460534D03*
X221479466Y-97460534D03*
%TD*%
D41*
%TO.C,R22*%
X131474466Y-118005534D03*
X131474466Y-116355534D03*
%TD*%
D33*
%TO.C,C45*%
X133224466Y-111545534D03*
X132264466Y-111545534D03*
%TD*%
D17*
%TO.C,C47*%
X124474466Y-120305534D03*
X124474466Y-121265534D03*
%TD*%
D23*
%TO.C,J19*%
X99597799Y-40735534D03*
D24*
X99597799Y-43275534D03*
X99597799Y-45815534D03*
X99597799Y-48355534D03*
%TD*%
D40*
%TO.C,D7*%
X105704466Y-132030534D03*
X105704466Y-133000534D03*
%TD*%
D17*
%TO.C,C27*%
X92324466Y-111805534D03*
X92324466Y-112765534D03*
%TD*%
D21*
%TO.C,TP11*%
X189664466Y-72815534D03*
%TD*%
D28*
%TO.C,R47*%
X198054466Y-56165534D03*
X198054466Y-55145534D03*
%TD*%
D42*
%TO.C,C64*%
X206754466Y-69375534D03*
X208304466Y-69375534D03*
%TD*%
D29*
%TO.C,L2*%
X204774466Y-51050534D03*
X204774466Y-48050534D03*
%TD*%
D33*
%TO.C,C50*%
X108044466Y-95885534D03*
X107084466Y-95885534D03*
%TD*%
D43*
%TO.C,C66*%
X80034466Y-110355534D03*
X80034466Y-108805534D03*
%TD*%
D17*
%TO.C,C19*%
X180214466Y-115025534D03*
X180214466Y-115985534D03*
%TD*%
D44*
%TO.C,C46*%
X130104466Y-120405534D03*
X130104466Y-119445534D03*
%TD*%
D45*
%TO.C,U16*%
X208004466Y-50845534D03*
X208954466Y-50845534D03*
X209904466Y-50845534D03*
X209904466Y-48570534D03*
X208954466Y-48570534D03*
X208004466Y-48570534D03*
%TD*%
D46*
%TO.C,BT1*%
X230614466Y-114435534D03*
D47*
X223164466Y-114435534D03*
D48*
X218689466Y-114435534D03*
X235089466Y-114435534D03*
%TD*%
D31*
%TO.C,R72*%
X189674466Y-65877142D03*
X189674466Y-66897142D03*
%TD*%
D15*
%TO.C,R24*%
X152104466Y-128965534D03*
X153124466Y-128965534D03*
%TD*%
D33*
%TO.C,C57*%
X94044466Y-59385534D03*
X93084466Y-59385534D03*
%TD*%
%TO.C,C58*%
X94044466Y-60385534D03*
X93084466Y-60385534D03*
%TD*%
D49*
%TO.C,FID2*%
X232614466Y-126735534D03*
%TD*%
D37*
%TO.C,U5*%
X101374466Y-116050534D03*
X100874466Y-116050534D03*
D38*
X100374466Y-116088034D03*
D37*
X99874466Y-116050534D03*
X99374466Y-116050534D03*
X99374466Y-116825534D03*
X99874466Y-116825534D03*
D39*
X100374466Y-116850534D03*
D37*
X100874466Y-116825534D03*
X101374466Y-116825534D03*
%TD*%
D50*
%TO.C,J4*%
X92404466Y-126515534D03*
D51*
X94904466Y-126515534D03*
X96904466Y-126515534D03*
X99404466Y-126515534D03*
X99904466Y-125015534D03*
X97904466Y-125015534D03*
X95904466Y-125015534D03*
X93904466Y-125015534D03*
X91904466Y-125015534D03*
X92404466Y-123315534D03*
X94904466Y-123315534D03*
X96904466Y-123315534D03*
X99404466Y-123315534D03*
X99904466Y-121815534D03*
X97904466Y-121815534D03*
X95904466Y-121815534D03*
X93904466Y-121815534D03*
X91904466Y-121815534D03*
D52*
X89334466Y-122835534D03*
X89334466Y-128515534D03*
X102474466Y-122835534D03*
X102474466Y-128515534D03*
%TD*%
D33*
%TO.C,C44*%
X131024466Y-110265534D03*
X130064466Y-110265534D03*
%TD*%
D42*
%TO.C,C32*%
X79394466Y-127215534D03*
X80944466Y-127215534D03*
%TD*%
D33*
%TO.C,C53*%
X94044466Y-102985534D03*
X93084466Y-102985534D03*
%TD*%
D17*
%TO.C,C20*%
X179164466Y-115025534D03*
X179164466Y-115985534D03*
%TD*%
D16*
%TO.C,R27*%
X94274466Y-97385534D03*
X93254466Y-97385534D03*
%TD*%
D53*
%TO.C,U14*%
X220519466Y-78970534D03*
D54*
X223069466Y-80970534D03*
X223069466Y-79970534D03*
X223069466Y-78970534D03*
X223069466Y-77970534D03*
X223069466Y-76970534D03*
X217969466Y-76970534D03*
X217969466Y-77970534D03*
X217969466Y-78970534D03*
X217969466Y-79970534D03*
X217969466Y-80970534D03*
%TD*%
D43*
%TO.C,C69*%
X79724466Y-119140534D03*
X79724466Y-117590534D03*
%TD*%
D21*
%TO.C,TP5*%
X205804466Y-59595534D03*
%TD*%
D26*
%TO.C,C33*%
X155775466Y-107700534D03*
X156735466Y-107700534D03*
%TD*%
D28*
%TO.C,R76*%
X166644466Y-106155534D03*
X166644466Y-105135534D03*
%TD*%
D55*
%TO.C,F2*%
X192946966Y-122575534D03*
X194821966Y-122575534D03*
%TD*%
D56*
%TO.C,H4*%
X231411522Y-133750000D03*
X232114466Y-132052944D03*
X232114466Y-135447056D03*
X233811522Y-131350000D03*
D57*
X233811522Y-133750000D03*
D56*
X233811522Y-136150000D03*
X235508578Y-132052944D03*
X235508578Y-135447056D03*
X236211522Y-133750000D03*
%TD*%
D22*
%TO.C,Q3*%
X166014466Y-119848034D03*
X164114466Y-119848034D03*
X165064466Y-121723034D03*
%TD*%
D17*
%TO.C,C42*%
X140164466Y-104405534D03*
X140164466Y-105365534D03*
%TD*%
D18*
%TO.C,H5*%
X119264466Y-41245534D03*
D19*
X119264466Y-41245534D03*
%TD*%
D17*
%TO.C,C22*%
X176489466Y-115055534D03*
X176489466Y-116015534D03*
%TD*%
D33*
%TO.C,C60*%
X94044466Y-78385534D03*
X93084466Y-78385534D03*
%TD*%
D14*
%TO.C,D1*%
X172084466Y-123285534D03*
X171114466Y-123285534D03*
%TD*%
D37*
%TO.C,U2*%
X177864466Y-123885534D03*
X177364466Y-123885534D03*
D38*
X176864466Y-123923034D03*
D37*
X176364466Y-123885534D03*
X175864466Y-123885534D03*
X175864466Y-124660534D03*
X176364466Y-124660534D03*
D39*
X176864466Y-124685534D03*
D37*
X177364466Y-124660534D03*
X177864466Y-124660534D03*
%TD*%
D26*
%TO.C,C36*%
X143684466Y-107555534D03*
X144644466Y-107555534D03*
%TD*%
D34*
%TO.C,U10*%
X187754466Y-42313034D03*
X187754466Y-42813034D03*
D35*
X187791966Y-43313034D03*
D34*
X187754466Y-43813034D03*
X187754466Y-44313034D03*
X188529466Y-44313034D03*
X188529466Y-43813034D03*
D36*
X188554466Y-43313034D03*
D34*
X188529466Y-42813034D03*
X188529466Y-42313034D03*
%TD*%
D17*
%TO.C,C18*%
X181839466Y-115075534D03*
X181839466Y-116035534D03*
%TD*%
D28*
%TO.C,R19*%
X188764466Y-120535534D03*
X188764466Y-119515534D03*
%TD*%
%TO.C,R77*%
X165554466Y-106155534D03*
X165554466Y-105135534D03*
%TD*%
D20*
%TO.C,C78*%
X204804466Y-61963034D03*
X203254466Y-61963034D03*
%TD*%
D34*
%TO.C,U11*%
X113494466Y-50775534D03*
X113494466Y-51275534D03*
D35*
X113531966Y-51775534D03*
D34*
X113494466Y-52275534D03*
X113494466Y-52775534D03*
X114269466Y-52775534D03*
X114269466Y-52275534D03*
D36*
X114294466Y-51775534D03*
D34*
X114269466Y-51275534D03*
X114269466Y-50775534D03*
%TD*%
D16*
%TO.C,R4*%
X159924466Y-118229034D03*
X158904466Y-118229034D03*
%TD*%
%TO.C,R30*%
X88496966Y-86985534D03*
X87476966Y-86985534D03*
%TD*%
D20*
%TO.C,C70*%
X205854466Y-75685534D03*
X204304466Y-75685534D03*
%TD*%
D58*
%TO.C,J3*%
X181224466Y-128365534D03*
X180724466Y-128365534D03*
X180224466Y-128365534D03*
X179724466Y-128365534D03*
X179224466Y-128365534D03*
X178724466Y-128365534D03*
X178224466Y-128365534D03*
X177724466Y-128365534D03*
X177224466Y-128365534D03*
X176724466Y-128365534D03*
X176224466Y-128365534D03*
X175724466Y-128365534D03*
X175224466Y-128365534D03*
X174724466Y-128365534D03*
X174224466Y-128365534D03*
X173724466Y-128365534D03*
X173224466Y-128365534D03*
X172724466Y-128365534D03*
X172224466Y-128365534D03*
D59*
X183974466Y-129125534D03*
X169474466Y-129125534D03*
D60*
X183974466Y-135085534D03*
X169474466Y-135085534D03*
%TD*%
D21*
%TO.C,TP3*%
X217609466Y-85014991D03*
%TD*%
D31*
%TO.C,R11*%
X160564466Y-123434034D03*
X160564466Y-124454034D03*
%TD*%
D16*
%TO.C,R29*%
X93184466Y-100285534D03*
X92164466Y-100285534D03*
%TD*%
D55*
%TO.C,F4*%
X82939466Y-127175534D03*
X84814466Y-127175534D03*
%TD*%
D23*
%TO.C,J21*%
X79747800Y-40805534D03*
D24*
X79747800Y-43345534D03*
X79747800Y-45885534D03*
X79747800Y-48425534D03*
%TD*%
D20*
%TO.C,C74*%
X204804466Y-68625534D03*
X203254466Y-68625534D03*
%TD*%
D16*
%TO.C,R68*%
X188523466Y-65917142D03*
X187503466Y-65917142D03*
%TD*%
D23*
%TO.C,J9*%
X103931133Y-40735534D03*
D24*
X103931133Y-43275534D03*
X103931133Y-45815534D03*
X103931133Y-48355534D03*
%TD*%
D40*
%TO.C,D2*%
X161714466Y-123459034D03*
X161714466Y-124429034D03*
%TD*%
D16*
%TO.C,R48*%
X82604466Y-108615534D03*
X81584466Y-108615534D03*
%TD*%
D26*
%TO.C,C61*%
X222169466Y-82520534D03*
X223129466Y-82520534D03*
%TD*%
D23*
%TO.C,J7*%
X108264466Y-40735534D03*
D24*
X108264466Y-43275534D03*
X108264466Y-45815534D03*
X108264466Y-48355534D03*
%TD*%
D17*
%TO.C,C23*%
X174789466Y-115030534D03*
X174789466Y-115990534D03*
%TD*%
D15*
%TO.C,R23*%
X127424466Y-117845534D03*
X128444466Y-117845534D03*
%TD*%
D23*
%TO.C,J14*%
X199944466Y-40710534D03*
D24*
X199944466Y-43250534D03*
X199944466Y-45790534D03*
%TD*%
D34*
%TO.C,U17*%
X113439466Y-54205534D03*
X113439466Y-54705534D03*
D35*
X113476966Y-55205534D03*
D34*
X113439466Y-55705534D03*
X113439466Y-56205534D03*
X114214466Y-56205534D03*
X114214466Y-55705534D03*
D36*
X114239466Y-55205534D03*
D34*
X114214466Y-54705534D03*
X114214466Y-54205534D03*
%TD*%
D61*
%TO.C,D26*%
X191334466Y-68057142D03*
X191334466Y-65957142D03*
%TD*%
D16*
%TO.C,R55*%
X82304466Y-117465534D03*
X81284466Y-117465534D03*
%TD*%
D33*
%TO.C,C56*%
X108114466Y-68985534D03*
X107154466Y-68985534D03*
%TD*%
D30*
%TO.C,D16*%
X221129466Y-69400534D03*
X221129466Y-65400534D03*
%TD*%
D15*
%TO.C,R18*%
X164044466Y-123298034D03*
X165064466Y-123298034D03*
%TD*%
D23*
%TO.C,J10*%
X191874466Y-50635534D03*
D24*
X191874466Y-53175534D03*
X191874466Y-55715534D03*
%TD*%
D20*
%TO.C,C71*%
X206909466Y-52950534D03*
X205359466Y-52950534D03*
%TD*%
D23*
%TO.C,J13*%
X75381133Y-40805534D03*
D24*
X75381133Y-43345534D03*
X75381133Y-45885534D03*
X75381133Y-48425534D03*
%TD*%
D62*
%TO.C,U6*%
X141974466Y-110585534D03*
D63*
X141974466Y-110185534D03*
X141974466Y-109785534D03*
X141974466Y-109385534D03*
X141974466Y-108985534D03*
X141974466Y-108585534D03*
X141974466Y-108185534D03*
D64*
X141974466Y-107785534D03*
D65*
X141424466Y-107235534D03*
D66*
X141024466Y-107235534D03*
X140624466Y-107235534D03*
X140224466Y-107235534D03*
X139824466Y-107235534D03*
X139424466Y-107235534D03*
X139024466Y-107235534D03*
D67*
X138624466Y-107235534D03*
D68*
X138074466Y-107785534D03*
D63*
X138074466Y-108185534D03*
X138074466Y-108585534D03*
X138074466Y-108985534D03*
X138074466Y-109385534D03*
X138074466Y-109785534D03*
X138074466Y-110185534D03*
D69*
X138074466Y-110585534D03*
D70*
X138624466Y-111135534D03*
D66*
X139024466Y-111135534D03*
X139424466Y-111135534D03*
X139824466Y-111135534D03*
X140224466Y-111135534D03*
X140624466Y-111135534D03*
X141024466Y-111135534D03*
D71*
X141424466Y-111135534D03*
D72*
X140024466Y-109185534D03*
%TD*%
D42*
%TO.C,C67*%
X206759466Y-67705534D03*
X208309466Y-67705534D03*
%TD*%
D32*
%TO.C,D21*%
X78494466Y-109520534D03*
X78494466Y-108550534D03*
%TD*%
D42*
%TO.C,C30*%
X189279466Y-123635534D03*
X190829466Y-123635534D03*
%TD*%
D44*
%TO.C,C48*%
X132944466Y-118985534D03*
X132944466Y-118025534D03*
%TD*%
D16*
%TO.C,R5*%
X165584466Y-118035534D03*
X164564466Y-118035534D03*
%TD*%
D26*
%TO.C,C43*%
X135324466Y-107465534D03*
X136284466Y-107465534D03*
%TD*%
D45*
%TO.C,U15*%
X206554466Y-73500534D03*
X207504466Y-73500534D03*
X208454466Y-73500534D03*
X208454466Y-71225534D03*
X207504466Y-71225534D03*
X206554466Y-71225534D03*
%TD*%
D20*
%TO.C,C82*%
X206234466Y-41495534D03*
X204684466Y-41495534D03*
%TD*%
D73*
%TO.C,F1*%
X165539466Y-127635534D03*
X167189466Y-127635534D03*
%TD*%
D14*
%TO.C,D14*%
X215539466Y-76970534D03*
X214569466Y-76970534D03*
%TD*%
D33*
%TO.C,C52*%
X94044466Y-84285534D03*
X93084466Y-84285534D03*
%TD*%
D15*
%TO.C,R36*%
X214599466Y-79170534D03*
X215619466Y-79170534D03*
%TD*%
D33*
%TO.C,C35*%
X131014466Y-109245534D03*
X130054466Y-109245534D03*
%TD*%
D14*
%TO.C,D13*%
X215554466Y-78070534D03*
X214584466Y-78070534D03*
%TD*%
D15*
%TO.C,R25*%
X152154466Y-130605534D03*
X153174466Y-130605534D03*
%TD*%
D56*
%TO.C,H7*%
X73178988Y-93877534D03*
X72476044Y-95574590D03*
X72476044Y-92180478D03*
X70778988Y-96277534D03*
D57*
X70778988Y-93877534D03*
D56*
X70778988Y-91477534D03*
X69081932Y-95574590D03*
X69081932Y-92180478D03*
X68378988Y-93877534D03*
%TD*%
D34*
%TO.C,U9*%
X113214466Y-44475534D03*
X113214466Y-44975534D03*
D35*
X113251966Y-45475534D03*
D34*
X113214466Y-45975534D03*
X113214466Y-46475534D03*
X113989466Y-46475534D03*
X113989466Y-45975534D03*
D36*
X114014466Y-45475534D03*
D34*
X113989466Y-44975534D03*
X113989466Y-44475534D03*
%TD*%
D16*
%TO.C,R20*%
X134274466Y-109365534D03*
X133254466Y-109365534D03*
%TD*%
%TO.C,R37*%
X225179466Y-82520534D03*
X224159466Y-82520534D03*
%TD*%
D74*
%TO.C,J15*%
X99093454Y-83885534D03*
D75*
X99093454Y-103885534D03*
D76*
X104368454Y-84635534D03*
X96818454Y-84885534D03*
X104368454Y-85135534D03*
X96818454Y-85385534D03*
X104368454Y-85635534D03*
X96818454Y-85885534D03*
X104368454Y-86135534D03*
X96818454Y-86385534D03*
X104368454Y-86635534D03*
X96818454Y-86885534D03*
X104368454Y-87135534D03*
X96818454Y-87385534D03*
X104368454Y-87635534D03*
X96818454Y-87885534D03*
X104368454Y-88135534D03*
X96818454Y-88385534D03*
X104368454Y-88635534D03*
X96818454Y-88885534D03*
X104368454Y-89135534D03*
X96818454Y-89385534D03*
X104368454Y-89635534D03*
X96818454Y-89885534D03*
X104368454Y-90135534D03*
X96818454Y-90385534D03*
X104368454Y-90635534D03*
X96818454Y-90885534D03*
X104368454Y-91135534D03*
X96818454Y-91385534D03*
X104368454Y-91635534D03*
X96818454Y-91885534D03*
X104368454Y-92135534D03*
X96818454Y-92385534D03*
X104368454Y-92635534D03*
X96818454Y-92885534D03*
X104368454Y-93135534D03*
X96818454Y-93385534D03*
X104368454Y-93635534D03*
X96818454Y-93885534D03*
X104368454Y-94135534D03*
X96818454Y-94385534D03*
X104368454Y-94635534D03*
X96818454Y-94885534D03*
X104368454Y-95135534D03*
X96818454Y-95385534D03*
X104368454Y-95635534D03*
X96818454Y-95885534D03*
X104368454Y-96135534D03*
X96818454Y-96385534D03*
X104368454Y-96635534D03*
X96818454Y-96885534D03*
X104368454Y-97135534D03*
X96818454Y-97385534D03*
X104368454Y-97635534D03*
X96818454Y-97885534D03*
X104368454Y-98135534D03*
X96818454Y-98385534D03*
X104368454Y-98635534D03*
X96818454Y-98885534D03*
X104368454Y-101135534D03*
X96818454Y-101385534D03*
X104368454Y-101635534D03*
X96818454Y-101885534D03*
X104368454Y-102135534D03*
X96818454Y-102385534D03*
X104368454Y-102635534D03*
X96818454Y-102885534D03*
X104368454Y-103135534D03*
D77*
X103593454Y-83535534D03*
X103593454Y-104235534D03*
%TD*%
D32*
%TO.C,D25*%
X78214466Y-118335534D03*
X78214466Y-117365534D03*
%TD*%
D28*
%TO.C,R10*%
X177824466Y-120585534D03*
X177824466Y-119565534D03*
%TD*%
D78*
%TO.C,J17*%
X235854466Y-57855534D03*
D79*
X226604466Y-57855534D03*
D80*
X232604466Y-57855534D03*
D81*
X233104466Y-53105534D03*
X228404466Y-53105534D03*
X233104466Y-62605534D03*
X228504466Y-62605534D03*
%TD*%
D82*
%TO.C,SW2*%
X68454466Y-117455534D03*
X76454466Y-117455534D03*
X68454466Y-121955534D03*
X76454466Y-121955534D03*
%TD*%
D56*
%TO.C,H1*%
X231411522Y-41742590D03*
X232114466Y-40045534D03*
X232114466Y-43439646D03*
X233811522Y-39342590D03*
D57*
X233811522Y-41742590D03*
D56*
X233811522Y-44142590D03*
X235508578Y-40045534D03*
X235508578Y-43439646D03*
X236211522Y-41742590D03*
%TD*%
D15*
%TO.C,R15*%
X169114466Y-123285534D03*
X170134466Y-123285534D03*
%TD*%
D28*
%TO.C,R13*%
X178884466Y-120585534D03*
X178884466Y-119565534D03*
%TD*%
D26*
%TO.C,C37*%
X143114466Y-112495534D03*
X144074466Y-112495534D03*
%TD*%
D17*
%TO.C,C28*%
X95894466Y-111785534D03*
X95894466Y-112745534D03*
%TD*%
D55*
%TO.C,F3*%
X192946966Y-125035534D03*
X194821966Y-125035534D03*
%TD*%
D16*
%TO.C,R3*%
X170619466Y-118135534D03*
X169599466Y-118135534D03*
%TD*%
D17*
%TO.C,C29*%
X94864466Y-111795534D03*
X94864466Y-112755534D03*
%TD*%
D83*
%TO.C,J18*%
X232369466Y-81605534D03*
X232369466Y-75825534D03*
D84*
X231249466Y-81915534D03*
X231249466Y-81115534D03*
D85*
X231249466Y-79965534D03*
X231249466Y-78965534D03*
X231249466Y-78465534D03*
X231249466Y-77465534D03*
D84*
X231249466Y-76315534D03*
X231249466Y-75515534D03*
X231249466Y-75515534D03*
X231249466Y-76315534D03*
D85*
X231249466Y-76965534D03*
X231249466Y-77965534D03*
X231249466Y-79465534D03*
X231249466Y-80465534D03*
D84*
X231249466Y-81115534D03*
X231249466Y-81915534D03*
D86*
X231849466Y-83035534D03*
D87*
X236049466Y-83035534D03*
D86*
X231849466Y-74395534D03*
D87*
X236049466Y-74395534D03*
%TD*%
D21*
%TO.C,TP2*%
X66539466Y-105785534D03*
%TD*%
D55*
%TO.C,F5*%
X83009466Y-124905534D03*
X84884466Y-124905534D03*
%TD*%
D20*
%TO.C,C79*%
X206239466Y-46325534D03*
X204689466Y-46325534D03*
%TD*%
D56*
%TO.C,H3*%
X65400000Y-133750000D03*
X66102944Y-132052944D03*
X66102944Y-135447056D03*
X67800000Y-131350000D03*
D57*
X67800000Y-133750000D03*
D56*
X67800000Y-136150000D03*
X69497056Y-132052944D03*
X69497056Y-135447056D03*
X70200000Y-133750000D03*
%TD*%
D32*
%TO.C,D8*%
X105734466Y-134965534D03*
X105734466Y-133995534D03*
%TD*%
D33*
%TO.C,C55*%
X108114466Y-67935534D03*
X107154466Y-67935534D03*
%TD*%
D17*
%TO.C,C24*%
X173739466Y-115030534D03*
X173739466Y-115990534D03*
%TD*%
D20*
%TO.C,C65*%
X209684466Y-45170534D03*
X208134466Y-45170534D03*
%TD*%
D88*
%TO.C,J5*%
X203064464Y-125113219D03*
D21*
X205564464Y-125113219D03*
X207564464Y-125113219D03*
X210064464Y-125113219D03*
X203064464Y-122493219D03*
X205564464Y-122493219D03*
X207564464Y-122493219D03*
X210064464Y-122493219D03*
D52*
X199994464Y-127823219D03*
X213134464Y-127823219D03*
X199994464Y-122143219D03*
X213134464Y-122143219D03*
%TD*%
D89*
%TO.C,M1*%
X194734466Y-69807142D03*
D90*
X194734466Y-67807142D03*
X194734466Y-65807142D03*
X194734466Y-63807142D03*
%TD*%
D31*
%TO.C,R59*%
X211324466Y-50795534D03*
X211324466Y-51815534D03*
%TD*%
D33*
%TO.C,C59*%
X94044466Y-77385534D03*
X93084466Y-77385534D03*
%TD*%
D56*
%TO.C,H2*%
X65400000Y-41742590D03*
X66102944Y-40045534D03*
X66102944Y-43439646D03*
X67800000Y-39342590D03*
D57*
X67800000Y-41742590D03*
D56*
X67800000Y-44142590D03*
X69497056Y-40045534D03*
X69497056Y-43439646D03*
X70200000Y-41742590D03*
%TD*%
D20*
%TO.C,C81*%
X206254466Y-43125534D03*
X204704466Y-43125534D03*
%TD*%
D91*
%TO.C,Q8*%
X199769466Y-55145534D03*
X199769466Y-57045534D03*
X201644466Y-56095534D03*
%TD*%
D37*
%TO.C,U1*%
X180964466Y-123885534D03*
X180464466Y-123885534D03*
D38*
X179964466Y-123923034D03*
D37*
X179464466Y-123885534D03*
X178964466Y-123885534D03*
X178964466Y-124660534D03*
X179464466Y-124660534D03*
D39*
X179964466Y-124685534D03*
D37*
X180464466Y-124660534D03*
X180964466Y-124660534D03*
%TD*%
D30*
%TO.C,D17*%
X225109466Y-69420534D03*
X225109466Y-65420534D03*
%TD*%
D31*
%TO.C,R6*%
X159464466Y-123484034D03*
X159464466Y-124504034D03*
%TD*%
D28*
%TO.C,R46*%
X209834466Y-72005534D03*
X209834466Y-70985534D03*
%TD*%
%TO.C,R16*%
X181574466Y-120585534D03*
X181574466Y-119565534D03*
%TD*%
D42*
%TO.C,C31*%
X79389466Y-124915534D03*
X80939466Y-124915534D03*
%TD*%
D37*
%TO.C,U8*%
X152644466Y-111621784D03*
X152144466Y-111621784D03*
D38*
X151644466Y-111659284D03*
D37*
X151144466Y-111621784D03*
X150644466Y-111621784D03*
X150644466Y-112396784D03*
X151144466Y-112396784D03*
D39*
X151644466Y-112421784D03*
D37*
X152144466Y-112396784D03*
X152644466Y-112396784D03*
%TD*%
D28*
%TO.C,R9*%
X176184466Y-120585534D03*
X176184466Y-119565534D03*
%TD*%
D40*
%TO.C,D10*%
X224819466Y-76070534D03*
X224819466Y-77040534D03*
%TD*%
D92*
%TO.C,Q4*%
X187039466Y-120535534D03*
X187039466Y-118635534D03*
X185164466Y-119585534D03*
%TD*%
D23*
%TO.C,J20*%
X84114466Y-40805534D03*
D24*
X84114466Y-43345534D03*
X84114466Y-45885534D03*
X84114466Y-48425534D03*
%TD*%
D26*
%TO.C,C40*%
X155775466Y-108770534D03*
X156735466Y-108770534D03*
%TD*%
D20*
%TO.C,C76*%
X204804466Y-65313034D03*
X203254466Y-65313034D03*
%TD*%
D21*
%TO.C,TP6*%
X197274466Y-51555534D03*
%TD*%
D33*
%TO.C,C54*%
X94044466Y-104085534D03*
X93084466Y-104085534D03*
%TD*%
D16*
%TO.C,R43*%
X215639466Y-80293034D03*
X214619466Y-80293034D03*
%TD*%
D49*
%TO.C,FID1*%
X68254466Y-54815534D03*
%TD*%
D33*
%TO.C,C34*%
X136704466Y-112695534D03*
X135744466Y-112695534D03*
%TD*%
D93*
%TO.C,D24*%
X224264466Y-98725534D03*
X224264466Y-100825534D03*
%TD*%
D37*
%TO.C,U3*%
X94554466Y-116050534D03*
X94054466Y-116050534D03*
D38*
X93554466Y-116088034D03*
D37*
X93054466Y-116050534D03*
X92554466Y-116050534D03*
X92554466Y-116825534D03*
X93054466Y-116825534D03*
D39*
X93554466Y-116850534D03*
D37*
X94054466Y-116825534D03*
X94554466Y-116825534D03*
%TD*%
D17*
%TO.C,C17*%
X182889466Y-115075534D03*
X182889466Y-116035534D03*
%TD*%
D28*
%TO.C,R53*%
X224239466Y-96210534D03*
X224239466Y-95190534D03*
%TD*%
%TO.C,R7*%
X173464466Y-120570534D03*
X173464466Y-119550534D03*
%TD*%
%TO.C,R17*%
X183124466Y-120585534D03*
X183124466Y-119565534D03*
%TD*%
D16*
%TO.C,R69*%
X191834466Y-63855534D03*
X190814466Y-63855534D03*
%TD*%
D20*
%TO.C,C75*%
X204804466Y-66963034D03*
X203254466Y-66963034D03*
%TD*%
D94*
%TO.C,D4*%
X165614466Y-125735534D03*
X163514466Y-125735534D03*
%TD*%
D95*
%TO.C,A1*%
X185400000Y-98145534D03*
D78*
X116600000Y-98145534D03*
D96*
X117625000Y-102245534D03*
X117875000Y-94045534D03*
X118125000Y-102245534D03*
X118375000Y-94045534D03*
X118625000Y-102245534D03*
X118875000Y-94045534D03*
X119125000Y-102245534D03*
X119375000Y-94045534D03*
X119625000Y-102245534D03*
X119875000Y-94045534D03*
X120125000Y-102245534D03*
X120375000Y-94045534D03*
X120625000Y-102245534D03*
X120875000Y-94045534D03*
X121125000Y-102245534D03*
X121375000Y-94045534D03*
X121625000Y-102245534D03*
X121875000Y-94045534D03*
X122125000Y-102245534D03*
X122375000Y-94045534D03*
X122625000Y-102245534D03*
X122875000Y-94045534D03*
X123125000Y-102245534D03*
X123375000Y-94045534D03*
X123625000Y-102245534D03*
X123875000Y-94045534D03*
X124125000Y-102245534D03*
X124375000Y-94045534D03*
X124625000Y-102245534D03*
X124875000Y-94045534D03*
X125125000Y-102245534D03*
X125375000Y-94045534D03*
X125625000Y-102245534D03*
X125875000Y-94045534D03*
X126125000Y-102245534D03*
X126375000Y-94045534D03*
X126625000Y-102245534D03*
X126875000Y-94045534D03*
X127125000Y-102245534D03*
X127375000Y-94045534D03*
X127625000Y-102245534D03*
X127875000Y-94045534D03*
X128125000Y-102245534D03*
X128375000Y-94045534D03*
X128625000Y-102245534D03*
X128875000Y-94045534D03*
X129125000Y-102245534D03*
X129375000Y-94045534D03*
X129625000Y-102245534D03*
X129875000Y-94045534D03*
X130125000Y-102245534D03*
X130375000Y-94045534D03*
X130625000Y-102245534D03*
X130875000Y-94045534D03*
X131125000Y-102245534D03*
X131375000Y-94045534D03*
X131625000Y-102245534D03*
X131875000Y-94045534D03*
X132125000Y-102245534D03*
X132375000Y-94045534D03*
X132625000Y-102245534D03*
X132875000Y-94045534D03*
X133125000Y-102245534D03*
X133375000Y-94045534D03*
X133625000Y-102245534D03*
X133875000Y-94045534D03*
X134125000Y-102245534D03*
X134375000Y-94045534D03*
X134625000Y-102245534D03*
X134875000Y-94045534D03*
X135125000Y-102245534D03*
X135375000Y-94045534D03*
X135625000Y-102245534D03*
X135875000Y-94045534D03*
X136125000Y-102245534D03*
X136375000Y-94045534D03*
X136625000Y-102245534D03*
X136875000Y-94045534D03*
X137125000Y-102245534D03*
X137375000Y-94045534D03*
X137625000Y-102245534D03*
X137875000Y-94045534D03*
X138125000Y-102245534D03*
X138375000Y-94045534D03*
X138625000Y-102245534D03*
X138875000Y-94045534D03*
X139125000Y-102245534D03*
X139375000Y-94045534D03*
X139625000Y-102245534D03*
X139875000Y-94045534D03*
X140125000Y-102245534D03*
X140375000Y-94045534D03*
X140625000Y-102245534D03*
X140875000Y-94045534D03*
X141125000Y-102245534D03*
X141375000Y-94045534D03*
X141625000Y-102245534D03*
X141875000Y-94045534D03*
X142125000Y-102245534D03*
X142375000Y-94045534D03*
X142625000Y-102245534D03*
X142875000Y-94045534D03*
X143125000Y-102245534D03*
X143375000Y-94045534D03*
X143625000Y-102245534D03*
X143875000Y-94045534D03*
X144125000Y-102245534D03*
X144375000Y-94045534D03*
X144625000Y-102245534D03*
X144875000Y-94045534D03*
X145125000Y-102245534D03*
X145375000Y-94045534D03*
X145625000Y-102245534D03*
X145875000Y-94045534D03*
X146125000Y-102245534D03*
X146375000Y-94045534D03*
X146625000Y-102245534D03*
X146875000Y-94045534D03*
X147125000Y-102245534D03*
X147375000Y-94045534D03*
X147625000Y-102245534D03*
X147875000Y-94045534D03*
X148125000Y-102245534D03*
X148375000Y-94045534D03*
X148625000Y-102245534D03*
X148875000Y-94045534D03*
X149125000Y-102245534D03*
X149375000Y-94045534D03*
X149625000Y-102245534D03*
X149875000Y-94045534D03*
X150125000Y-102245534D03*
X150375000Y-94045534D03*
X150625000Y-102245534D03*
X150875000Y-94045534D03*
X151125000Y-102245534D03*
X151375000Y-94045534D03*
X151625000Y-102245534D03*
X151875000Y-94045534D03*
X152125000Y-102245534D03*
X152375000Y-94045534D03*
X152625000Y-102245534D03*
X152875000Y-94045534D03*
X153125000Y-102245534D03*
X153375000Y-94045534D03*
X155625000Y-102245534D03*
X155875000Y-94045534D03*
X156125000Y-102245534D03*
X156375000Y-94045534D03*
X156625000Y-102245534D03*
X156875000Y-94045534D03*
X157125000Y-102245534D03*
X157375000Y-94045534D03*
X157625000Y-102245534D03*
X157875000Y-94045534D03*
X158125000Y-102245534D03*
X158375000Y-94045534D03*
X158625000Y-102245534D03*
X158875000Y-94045534D03*
X159125000Y-102245534D03*
X159375000Y-94045534D03*
X159625000Y-102245534D03*
X159875000Y-94045534D03*
X160125000Y-102245534D03*
X160375000Y-94045534D03*
X160625000Y-102245534D03*
X160875000Y-94045534D03*
X161125000Y-102245534D03*
X161375000Y-94045534D03*
X161625000Y-102245534D03*
X161875000Y-94045534D03*
X162125000Y-102245534D03*
X162375000Y-94045534D03*
X162625000Y-102245534D03*
X162875000Y-94045534D03*
X163125000Y-102245534D03*
X163375000Y-94045534D03*
X163625000Y-102245534D03*
X163875000Y-94045534D03*
X164125000Y-102245534D03*
X164375000Y-94045534D03*
X164625000Y-102245534D03*
X164875000Y-94045534D03*
X165125000Y-102245534D03*
X165375000Y-94045534D03*
X165625000Y-102245534D03*
X165875000Y-94045534D03*
X166125000Y-102245534D03*
X166375000Y-94045534D03*
X166625000Y-102245534D03*
X166875000Y-94045534D03*
X167125000Y-102245534D03*
X167375000Y-94045534D03*
X167625000Y-102245534D03*
X167875000Y-94045534D03*
X168125000Y-102245534D03*
X168375000Y-94045534D03*
X168625000Y-102245534D03*
X168875000Y-94045534D03*
X169125000Y-102245534D03*
X169375000Y-94045534D03*
X169625000Y-102245534D03*
X169875000Y-94045534D03*
X170125000Y-102245534D03*
X170375000Y-94045534D03*
X170625000Y-102245534D03*
X170875000Y-94045534D03*
X171125000Y-102245534D03*
X171375000Y-94045534D03*
X171625000Y-102245534D03*
X171875000Y-94045534D03*
X172125000Y-102245534D03*
X172375000Y-94045534D03*
X172625000Y-102245534D03*
X172875000Y-94045534D03*
X173125000Y-102245534D03*
X173375000Y-94045534D03*
X173625000Y-102245534D03*
X173875000Y-94045534D03*
X174125000Y-102245534D03*
X174375000Y-94045534D03*
X174625000Y-102245534D03*
X174875000Y-94045534D03*
X175125000Y-102245534D03*
X175375000Y-94045534D03*
X175625000Y-102245534D03*
X175875000Y-94045534D03*
X176125000Y-102245534D03*
X176375000Y-94045534D03*
X176625000Y-102245534D03*
X176875000Y-94045534D03*
X177125000Y-102245534D03*
X177375000Y-94045534D03*
X177625000Y-102245534D03*
X177875000Y-94045534D03*
X178125000Y-102245534D03*
X178375000Y-94045534D03*
X178625000Y-102245534D03*
X178875000Y-94045534D03*
X179125000Y-102245534D03*
X179375000Y-94045534D03*
X179625000Y-102245534D03*
X179875000Y-94045534D03*
X180125000Y-102245534D03*
X180375000Y-94045534D03*
X180625000Y-102245534D03*
X180875000Y-94045534D03*
X181125000Y-102245534D03*
X181375000Y-94045534D03*
X181625000Y-102245534D03*
X181875000Y-94045534D03*
X182125000Y-102245534D03*
X182375000Y-94045534D03*
X182625000Y-102245534D03*
X182875000Y-94045534D03*
X183125000Y-102245534D03*
X183375000Y-94045534D03*
X183625000Y-102245534D03*
X183875000Y-94045534D03*
X184125000Y-102245534D03*
X184375000Y-94045534D03*
D97*
X188500000Y-90145534D03*
X113500000Y-86145534D03*
%TD*%
D32*
%TO.C,D5*%
X105144466Y-117640534D03*
X105144466Y-116670534D03*
%TD*%
D56*
%TO.C,H8*%
X68378988Y-68993534D03*
X69081932Y-67296478D03*
X69081932Y-70690590D03*
X70778988Y-66593534D03*
D57*
X70778988Y-68993534D03*
D56*
X70778988Y-71393534D03*
X72476044Y-67296478D03*
X72476044Y-70690590D03*
X73178988Y-68993534D03*
%TD*%
D33*
%TO.C,C49*%
X108044466Y-96885534D03*
X107084466Y-96885534D03*
%TD*%
D28*
%TO.C,R58*%
X209644466Y-76005534D03*
X209644466Y-74985534D03*
%TD*%
%TO.C,R8*%
X175139466Y-120585534D03*
X175139466Y-119565534D03*
%TD*%
D23*
%TO.C,J8*%
X191644466Y-40735534D03*
D24*
X191644466Y-43275534D03*
X191644466Y-45815534D03*
%TD*%
D17*
%TO.C,C84*%
X189664466Y-68187142D03*
X189664466Y-69147142D03*
%TD*%
D37*
%TO.C,U4*%
X208984466Y-116930534D03*
X208484466Y-116930534D03*
D38*
X207984466Y-116968034D03*
D37*
X207484466Y-116930534D03*
X206984466Y-116930534D03*
X206984466Y-117705534D03*
X207484466Y-117705534D03*
D39*
X207984466Y-117730534D03*
D37*
X208484466Y-117705534D03*
X208984466Y-117705534D03*
%TD*%
D31*
%TO.C,R79*%
X142664466Y-90535534D03*
X142664466Y-91555534D03*
%TD*%
D15*
%TO.C,R32*%
X107254466Y-72775534D03*
X108274466Y-72775534D03*
%TD*%
D98*
%TO.C,D22*%
X203566966Y-56035534D03*
X205141966Y-56035534D03*
%TD*%
D17*
%TO.C,C26*%
X93364466Y-111805534D03*
X93364466Y-112765534D03*
%TD*%
D31*
%TO.C,R57*%
X208544466Y-75005534D03*
X208544466Y-76025534D03*
%TD*%
D30*
%TO.C,D20*%
X223459466Y-91560534D03*
X223459466Y-87560534D03*
%TD*%
D21*
%TO.C,TP4*%
X221609466Y-62230534D03*
%TD*%
D82*
%TO.C,SW1*%
X68674466Y-108685534D03*
X76674466Y-108685534D03*
X68674466Y-113185534D03*
X76674466Y-113185534D03*
%TD*%
D23*
%TO.C,J11*%
X195724466Y-40695534D03*
D24*
X195724466Y-43235534D03*
X195724466Y-45775534D03*
%TD*%
D95*
%TO.C,J16*%
X99389466Y-58985534D03*
D78*
X99389466Y-78985534D03*
D76*
X104664466Y-59735534D03*
X97114466Y-59985534D03*
X104664466Y-60235534D03*
X97114466Y-60485534D03*
X104664466Y-60735534D03*
X97114466Y-60985534D03*
X104664466Y-61235534D03*
X97114466Y-61485534D03*
X104664466Y-61735534D03*
X97114466Y-61985534D03*
X104664466Y-62235534D03*
X97114466Y-62485534D03*
X104664466Y-62735534D03*
X97114466Y-62985534D03*
X104664466Y-63235534D03*
X97114466Y-63485534D03*
X104664466Y-63735534D03*
X97114466Y-63985534D03*
X104664466Y-64235534D03*
X97114466Y-64485534D03*
X104664466Y-64735534D03*
X97114466Y-64985534D03*
X104664466Y-65235534D03*
X97114466Y-67485534D03*
X104664466Y-67735534D03*
X97114466Y-67985534D03*
X104664466Y-68235534D03*
X97114466Y-68485534D03*
X104664466Y-68735534D03*
X97114466Y-68985534D03*
X104664466Y-69235534D03*
X97114466Y-69485534D03*
X104664466Y-69735534D03*
X97114466Y-69985534D03*
X104664466Y-70235534D03*
X97114466Y-70485534D03*
X104664466Y-70735534D03*
X97114466Y-70985534D03*
X104664466Y-71235534D03*
X97114466Y-71485534D03*
X104664466Y-71735534D03*
X97114466Y-71985534D03*
X104664466Y-72235534D03*
X97114466Y-72485534D03*
X104664466Y-72735534D03*
X97114466Y-72985534D03*
X104664466Y-73235534D03*
X97114466Y-73485534D03*
X104664466Y-73735534D03*
X97114466Y-73985534D03*
X104664466Y-74235534D03*
X97114466Y-74485534D03*
X104664466Y-74735534D03*
X97114466Y-74985534D03*
X104664466Y-75235534D03*
X97114466Y-75485534D03*
X104664466Y-75735534D03*
X97114466Y-75985534D03*
X104664466Y-76235534D03*
X97114466Y-76485534D03*
X104664466Y-76735534D03*
X97114466Y-76985534D03*
X104664466Y-77235534D03*
X97114466Y-77485534D03*
X104664466Y-77735534D03*
X97114466Y-77985534D03*
X104664466Y-78235534D03*
D77*
X103889466Y-58635534D03*
X103889466Y-79335534D03*
%TD*%
M02*
