%TF.GenerationSoftware,KiCad,Pcbnew,9.0.0*%
%TF.CreationDate,2026-05-22T15:15:50+02:00*%
%TF.ProjectId,LattePandaMU_Carrier_Custom_Board,4c617474-6550-4616-9e64-614d555f4361,rev?*%
%TF.SameCoordinates,Original*%
%TF.FileFunction,Legend,Bot*%
%TF.FilePolarity,Positive*%
%FSLAX46Y46*%
G04 Gerber Fmt 4.6, Leading zero omitted, Abs format (unit mm)*
G04 Created by KiCad (PCBNEW 9.0.0) date 2026-05-22 15:15:50*
%MOMM*%
%LPD*%
G01*
G04 APERTURE LIST*
%ADD10C,0.300000*%
%ADD11C,0.000000*%
G04 APERTURE END LIST*
D10*
X160692098Y-64186362D02*
X160692098Y-65400648D01*
X160692098Y-65400648D02*
X160763526Y-65543505D01*
X160763526Y-65543505D02*
X160834955Y-65614934D01*
X160834955Y-65614934D02*
X160977812Y-65686362D01*
X160977812Y-65686362D02*
X161192098Y-65686362D01*
X161192098Y-65686362D02*
X161334955Y-65614934D01*
X160692098Y-65114934D02*
X160834955Y-65186362D01*
X160834955Y-65186362D02*
X161120669Y-65186362D01*
X161120669Y-65186362D02*
X161263526Y-65114934D01*
X161263526Y-65114934D02*
X161334955Y-65043505D01*
X161334955Y-65043505D02*
X161406383Y-64900648D01*
X161406383Y-64900648D02*
X161406383Y-64472076D01*
X161406383Y-64472076D02*
X161334955Y-64329219D01*
X161334955Y-64329219D02*
X161263526Y-64257791D01*
X161263526Y-64257791D02*
X161120669Y-64186362D01*
X161120669Y-64186362D02*
X160834955Y-64186362D01*
X160834955Y-64186362D02*
X160692098Y-64257791D01*
X159977812Y-65186362D02*
X159977812Y-64186362D01*
X159977812Y-63686362D02*
X160049240Y-63757791D01*
X160049240Y-63757791D02*
X159977812Y-63829219D01*
X159977812Y-63829219D02*
X159906383Y-63757791D01*
X159906383Y-63757791D02*
X159977812Y-63686362D01*
X159977812Y-63686362D02*
X159977812Y-63829219D01*
X159477811Y-64186362D02*
X158906383Y-64186362D01*
X159263526Y-63686362D02*
X159263526Y-64972076D01*
X159263526Y-64972076D02*
X159192097Y-65114934D01*
X159192097Y-65114934D02*
X159049240Y-65186362D01*
X159049240Y-65186362D02*
X158906383Y-65186362D01*
X158406383Y-65186362D02*
X158406383Y-63686362D01*
X157763526Y-65186362D02*
X157763526Y-64400648D01*
X157763526Y-64400648D02*
X157834954Y-64257791D01*
X157834954Y-64257791D02*
X157977811Y-64186362D01*
X157977811Y-64186362D02*
X158192097Y-64186362D01*
X158192097Y-64186362D02*
X158334954Y-64257791D01*
X158334954Y-64257791D02*
X158406383Y-64329219D01*
X156406383Y-64186362D02*
X156406383Y-65186362D01*
X157049240Y-64186362D02*
X157049240Y-64972076D01*
X157049240Y-64972076D02*
X156977811Y-65114934D01*
X156977811Y-65114934D02*
X156834954Y-65186362D01*
X156834954Y-65186362D02*
X156620668Y-65186362D01*
X156620668Y-65186362D02*
X156477811Y-65114934D01*
X156477811Y-65114934D02*
X156406383Y-65043505D01*
X155692097Y-65186362D02*
X155692097Y-63686362D01*
X155692097Y-64257791D02*
X155549240Y-64186362D01*
X155549240Y-64186362D02*
X155263525Y-64186362D01*
X155263525Y-64186362D02*
X155120668Y-64257791D01*
X155120668Y-64257791D02*
X155049240Y-64329219D01*
X155049240Y-64329219D02*
X154977811Y-64472076D01*
X154977811Y-64472076D02*
X154977811Y-64900648D01*
X154977811Y-64900648D02*
X155049240Y-65043505D01*
X155049240Y-65043505D02*
X155120668Y-65114934D01*
X155120668Y-65114934D02*
X155263525Y-65186362D01*
X155263525Y-65186362D02*
X155549240Y-65186362D01*
X155549240Y-65186362D02*
X155692097Y-65114934D01*
X154334954Y-65043505D02*
X154263525Y-65114934D01*
X154263525Y-65114934D02*
X154334954Y-65186362D01*
X154334954Y-65186362D02*
X154406382Y-65114934D01*
X154406382Y-65114934D02*
X154334954Y-65043505D01*
X154334954Y-65043505D02*
X154334954Y-65186362D01*
X152977811Y-65114934D02*
X153120668Y-65186362D01*
X153120668Y-65186362D02*
X153406382Y-65186362D01*
X153406382Y-65186362D02*
X153549239Y-65114934D01*
X153549239Y-65114934D02*
X153620668Y-65043505D01*
X153620668Y-65043505D02*
X153692096Y-64900648D01*
X153692096Y-64900648D02*
X153692096Y-64472076D01*
X153692096Y-64472076D02*
X153620668Y-64329219D01*
X153620668Y-64329219D02*
X153549239Y-64257791D01*
X153549239Y-64257791D02*
X153406382Y-64186362D01*
X153406382Y-64186362D02*
X153120668Y-64186362D01*
X153120668Y-64186362D02*
X152977811Y-64257791D01*
X152120668Y-65186362D02*
X152263525Y-65114934D01*
X152263525Y-65114934D02*
X152334954Y-65043505D01*
X152334954Y-65043505D02*
X152406382Y-64900648D01*
X152406382Y-64900648D02*
X152406382Y-64472076D01*
X152406382Y-64472076D02*
X152334954Y-64329219D01*
X152334954Y-64329219D02*
X152263525Y-64257791D01*
X152263525Y-64257791D02*
X152120668Y-64186362D01*
X152120668Y-64186362D02*
X151906382Y-64186362D01*
X151906382Y-64186362D02*
X151763525Y-64257791D01*
X151763525Y-64257791D02*
X151692097Y-64329219D01*
X151692097Y-64329219D02*
X151620668Y-64472076D01*
X151620668Y-64472076D02*
X151620668Y-64900648D01*
X151620668Y-64900648D02*
X151692097Y-65043505D01*
X151692097Y-65043505D02*
X151763525Y-65114934D01*
X151763525Y-65114934D02*
X151906382Y-65186362D01*
X151906382Y-65186362D02*
X152120668Y-65186362D01*
X150977811Y-65186362D02*
X150977811Y-64186362D01*
X150977811Y-64329219D02*
X150906382Y-64257791D01*
X150906382Y-64257791D02*
X150763525Y-64186362D01*
X150763525Y-64186362D02*
X150549239Y-64186362D01*
X150549239Y-64186362D02*
X150406382Y-64257791D01*
X150406382Y-64257791D02*
X150334954Y-64400648D01*
X150334954Y-64400648D02*
X150334954Y-65186362D01*
X150334954Y-64400648D02*
X150263525Y-64257791D01*
X150263525Y-64257791D02*
X150120668Y-64186362D01*
X150120668Y-64186362D02*
X149906382Y-64186362D01*
X149906382Y-64186362D02*
X149763525Y-64257791D01*
X149763525Y-64257791D02*
X149692096Y-64400648D01*
X149692096Y-64400648D02*
X149692096Y-65186362D01*
X147906382Y-63614934D02*
X149192096Y-65543505D01*
X147620667Y-64186362D02*
X147049239Y-64186362D01*
X147406382Y-63686362D02*
X147406382Y-64972076D01*
X147406382Y-64972076D02*
X147334953Y-65114934D01*
X147334953Y-65114934D02*
X147192096Y-65186362D01*
X147192096Y-65186362D02*
X147049239Y-65186362D01*
X146620667Y-65114934D02*
X146477810Y-65186362D01*
X146477810Y-65186362D02*
X146192096Y-65186362D01*
X146192096Y-65186362D02*
X146049239Y-65114934D01*
X146049239Y-65114934D02*
X145977810Y-64972076D01*
X145977810Y-64972076D02*
X145977810Y-64900648D01*
X145977810Y-64900648D02*
X146049239Y-64757791D01*
X146049239Y-64757791D02*
X146192096Y-64686362D01*
X146192096Y-64686362D02*
X146406382Y-64686362D01*
X146406382Y-64686362D02*
X146549239Y-64614934D01*
X146549239Y-64614934D02*
X146620667Y-64472076D01*
X146620667Y-64472076D02*
X146620667Y-64400648D01*
X146620667Y-64400648D02*
X146549239Y-64257791D01*
X146549239Y-64257791D02*
X146406382Y-64186362D01*
X146406382Y-64186362D02*
X146192096Y-64186362D01*
X146192096Y-64186362D02*
X146049239Y-64257791D01*
X145120667Y-65186362D02*
X145263524Y-65114934D01*
X145263524Y-65114934D02*
X145334953Y-65043505D01*
X145334953Y-65043505D02*
X145406381Y-64900648D01*
X145406381Y-64900648D02*
X145406381Y-64472076D01*
X145406381Y-64472076D02*
X145334953Y-64329219D01*
X145334953Y-64329219D02*
X145263524Y-64257791D01*
X145263524Y-64257791D02*
X145120667Y-64186362D01*
X145120667Y-64186362D02*
X144906381Y-64186362D01*
X144906381Y-64186362D02*
X144763524Y-64257791D01*
X144763524Y-64257791D02*
X144692096Y-64329219D01*
X144692096Y-64329219D02*
X144620667Y-64472076D01*
X144620667Y-64472076D02*
X144620667Y-64900648D01*
X144620667Y-64900648D02*
X144692096Y-65043505D01*
X144692096Y-65043505D02*
X144763524Y-65114934D01*
X144763524Y-65114934D02*
X144906381Y-65186362D01*
X144906381Y-65186362D02*
X145120667Y-65186362D01*
X143977810Y-65186362D02*
X143977810Y-63686362D01*
X143834953Y-64614934D02*
X143406381Y-65186362D01*
X143406381Y-64186362D02*
X143977810Y-64757791D01*
X142549238Y-65186362D02*
X142692095Y-65114934D01*
X142692095Y-65114934D02*
X142763524Y-65043505D01*
X142763524Y-65043505D02*
X142834952Y-64900648D01*
X142834952Y-64900648D02*
X142834952Y-64472076D01*
X142834952Y-64472076D02*
X142763524Y-64329219D01*
X142763524Y-64329219D02*
X142692095Y-64257791D01*
X142692095Y-64257791D02*
X142549238Y-64186362D01*
X142549238Y-64186362D02*
X142334952Y-64186362D01*
X142334952Y-64186362D02*
X142192095Y-64257791D01*
X142192095Y-64257791D02*
X142120667Y-64329219D01*
X142120667Y-64329219D02*
X142049238Y-64472076D01*
X142049238Y-64472076D02*
X142049238Y-64900648D01*
X142049238Y-64900648D02*
X142120667Y-65043505D01*
X142120667Y-65043505D02*
X142192095Y-65114934D01*
X142192095Y-65114934D02*
X142334952Y-65186362D01*
X142334952Y-65186362D02*
X142549238Y-65186362D01*
X141406381Y-65186362D02*
X141406381Y-64186362D01*
X141406381Y-64329219D02*
X141334952Y-64257791D01*
X141334952Y-64257791D02*
X141192095Y-64186362D01*
X141192095Y-64186362D02*
X140977809Y-64186362D01*
X140977809Y-64186362D02*
X140834952Y-64257791D01*
X140834952Y-64257791D02*
X140763524Y-64400648D01*
X140763524Y-64400648D02*
X140763524Y-65186362D01*
X140763524Y-64400648D02*
X140692095Y-64257791D01*
X140692095Y-64257791D02*
X140549238Y-64186362D01*
X140549238Y-64186362D02*
X140334952Y-64186362D01*
X140334952Y-64186362D02*
X140192095Y-64257791D01*
X140192095Y-64257791D02*
X140120666Y-64400648D01*
X140120666Y-64400648D02*
X140120666Y-65186362D01*
X138763524Y-65186362D02*
X138763524Y-64400648D01*
X138763524Y-64400648D02*
X138834952Y-64257791D01*
X138834952Y-64257791D02*
X138977809Y-64186362D01*
X138977809Y-64186362D02*
X139263524Y-64186362D01*
X139263524Y-64186362D02*
X139406381Y-64257791D01*
X138763524Y-65114934D02*
X138906381Y-65186362D01*
X138906381Y-65186362D02*
X139263524Y-65186362D01*
X139263524Y-65186362D02*
X139406381Y-65114934D01*
X139406381Y-65114934D02*
X139477809Y-64972076D01*
X139477809Y-64972076D02*
X139477809Y-64829219D01*
X139477809Y-64829219D02*
X139406381Y-64686362D01*
X139406381Y-64686362D02*
X139263524Y-64614934D01*
X139263524Y-64614934D02*
X138906381Y-64614934D01*
X138906381Y-64614934D02*
X138763524Y-64543505D01*
X137834952Y-65186362D02*
X137977809Y-65114934D01*
X137977809Y-65114934D02*
X138049238Y-64972076D01*
X138049238Y-64972076D02*
X138049238Y-63686362D01*
X136620667Y-64186362D02*
X136620667Y-65186362D01*
X137263524Y-64186362D02*
X137263524Y-64972076D01*
X137263524Y-64972076D02*
X137192095Y-65114934D01*
X137192095Y-65114934D02*
X137049238Y-65186362D01*
X137049238Y-65186362D02*
X136834952Y-65186362D01*
X136834952Y-65186362D02*
X136692095Y-65114934D01*
X136692095Y-65114934D02*
X136620667Y-65043505D01*
X135977809Y-65114934D02*
X135834952Y-65186362D01*
X135834952Y-65186362D02*
X135549238Y-65186362D01*
X135549238Y-65186362D02*
X135406381Y-65114934D01*
X135406381Y-65114934D02*
X135334952Y-64972076D01*
X135334952Y-64972076D02*
X135334952Y-64900648D01*
X135334952Y-64900648D02*
X135406381Y-64757791D01*
X135406381Y-64757791D02*
X135549238Y-64686362D01*
X135549238Y-64686362D02*
X135763524Y-64686362D01*
X135763524Y-64686362D02*
X135906381Y-64614934D01*
X135906381Y-64614934D02*
X135977809Y-64472076D01*
X135977809Y-64472076D02*
X135977809Y-64400648D01*
X135977809Y-64400648D02*
X135906381Y-64257791D01*
X135906381Y-64257791D02*
X135763524Y-64186362D01*
X135763524Y-64186362D02*
X135549238Y-64186362D01*
X135549238Y-64186362D02*
X135406381Y-64257791D01*
X134692095Y-65186362D02*
X134692095Y-64186362D01*
X134692095Y-63686362D02*
X134763523Y-63757791D01*
X134763523Y-63757791D02*
X134692095Y-63829219D01*
X134692095Y-63829219D02*
X134620666Y-63757791D01*
X134620666Y-63757791D02*
X134692095Y-63686362D01*
X134692095Y-63686362D02*
X134692095Y-63829219D01*
D11*
%TO.C,Xigote_Log*%
G36*
X144353834Y-68252712D02*
G01*
X144331514Y-68278683D01*
X144309194Y-68252712D01*
X144331514Y-68226741D01*
X144353834Y-68252712D01*
G37*
G36*
X147166136Y-68252712D02*
G01*
X147143816Y-68278683D01*
X147121496Y-68252712D01*
X147143816Y-68226741D01*
X147166136Y-68252712D01*
G37*
G36*
X145280956Y-73007832D02*
G01*
X145391707Y-73058814D01*
X145584533Y-73134781D01*
X145830851Y-73146911D01*
X146083623Y-73058814D01*
X146146059Y-73028058D01*
X146237419Y-72994101D01*
X146273342Y-72998294D01*
X146268677Y-73018817D01*
X146213744Y-73102808D01*
X146117422Y-73205605D01*
X146005567Y-73301538D01*
X145904034Y-73364937D01*
X145849136Y-73392725D01*
X145801101Y-73454157D01*
X145809750Y-73563027D01*
X145843246Y-73686156D01*
X145915513Y-73801338D01*
X146022129Y-73837352D01*
X146042658Y-73837805D01*
X146086542Y-73850065D01*
X146050143Y-73888499D01*
X146006468Y-73907546D01*
X145887457Y-73930070D01*
X145737665Y-73938851D01*
X145639787Y-73935089D01*
X145505674Y-73916824D01*
X145425187Y-73888499D01*
X145410978Y-73877415D01*
X145391195Y-73845671D01*
X145453201Y-73837352D01*
X145526608Y-73822399D01*
X145609787Y-73736793D01*
X145665580Y-73563027D01*
X145675940Y-73497242D01*
X145657340Y-73418672D01*
X145571296Y-73364937D01*
X145537904Y-73347678D01*
X145429725Y-73269735D01*
X145320442Y-73168410D01*
X145235911Y-73069373D01*
X145201988Y-72998294D01*
X145212606Y-72990842D01*
X145280956Y-73007832D01*
G37*
G36*
X148891256Y-68927968D02*
G01*
X148930108Y-69032420D01*
X148959413Y-69140435D01*
X148978481Y-69266404D01*
X148989474Y-69431806D01*
X148994557Y-69658119D01*
X148995893Y-69966822D01*
X148995880Y-70095361D01*
X148995423Y-70170697D01*
X148994248Y-70364587D01*
X148988837Y-70542012D01*
X148988267Y-70560713D01*
X148975364Y-70705934D01*
X148952965Y-70822441D01*
X148918499Y-70932430D01*
X148869392Y-71058092D01*
X148804595Y-71200803D01*
X148623217Y-71481131D01*
X148408360Y-71678027D01*
X148168720Y-71784791D01*
X147912995Y-71794725D01*
X147771908Y-71749222D01*
X147616882Y-71631589D01*
X147602294Y-71614207D01*
X147538580Y-71514317D01*
X147509310Y-71394118D01*
X147503293Y-71212299D01*
X147503351Y-71209399D01*
X147587054Y-71209399D01*
X147624462Y-71394520D01*
X147733580Y-71550443D01*
X147881929Y-71634336D01*
X148078686Y-71638337D01*
X148304449Y-71548721D01*
X148327445Y-71535178D01*
X148509112Y-71390401D01*
X148660558Y-71186757D01*
X148798946Y-70901792D01*
X148816854Y-70857842D01*
X148882827Y-70669402D01*
X148898564Y-70542012D01*
X148863077Y-70454001D01*
X148775383Y-70383698D01*
X148648479Y-70325593D01*
X148530188Y-70309096D01*
X148452219Y-70338002D01*
X148429919Y-70405955D01*
X148478635Y-70506599D01*
X148478968Y-70507028D01*
X148543751Y-70645397D01*
X148529327Y-70773130D01*
X148438368Y-70866369D01*
X148377623Y-70910913D01*
X148363059Y-70921593D01*
X148326769Y-70983560D01*
X148326138Y-70991306D01*
X148295397Y-71077986D01*
X148232690Y-71195319D01*
X148194715Y-71252265D01*
X148110271Y-71324759D01*
X147998332Y-71333194D01*
X147939081Y-71323102D01*
X147869647Y-71276758D01*
X147843478Y-71169081D01*
X147844998Y-71126638D01*
X147925011Y-71126638D01*
X147941881Y-71169963D01*
X148005771Y-71186497D01*
X148085499Y-71156792D01*
X148146639Y-71087006D01*
X148176076Y-71013079D01*
X148186881Y-70910913D01*
X148132809Y-70875820D01*
X148116361Y-70878312D01*
X148033857Y-70934208D01*
X147958173Y-71031348D01*
X147925011Y-71126638D01*
X147844998Y-71126638D01*
X147847663Y-71052197D01*
X147916461Y-70903234D01*
X148052405Y-70806444D01*
X148245271Y-70771935D01*
X148345000Y-70768081D01*
X148434303Y-70744834D01*
X148460688Y-70695848D01*
X148453276Y-70655270D01*
X148384352Y-70575112D01*
X148264317Y-70528889D01*
X148119343Y-70529367D01*
X148009121Y-70561782D01*
X147832389Y-70671271D01*
X147698287Y-70828532D01*
X147614086Y-71014322D01*
X147587054Y-71209399D01*
X147503351Y-71209399D01*
X147504304Y-71161777D01*
X147530503Y-70943516D01*
X147596769Y-70785053D01*
X147700550Y-70660993D01*
X147850369Y-70536942D01*
X148007317Y-70445388D01*
X148138451Y-70409190D01*
X148231717Y-70374805D01*
X148274749Y-70275517D01*
X148249608Y-70132132D01*
X148242555Y-70114017D01*
X148191321Y-69979898D01*
X148132654Y-69823624D01*
X148022580Y-69625282D01*
X147866436Y-69488807D01*
X147721313Y-69442154D01*
X148164868Y-69442154D01*
X148213470Y-69555552D01*
X148244265Y-69605671D01*
X148312945Y-69663091D01*
X148408495Y-69650846D01*
X148450656Y-69638751D01*
X148605538Y-69619398D01*
X148745233Y-69633863D01*
X148834472Y-69679753D01*
X148835869Y-69681410D01*
X148838662Y-69720493D01*
X148757557Y-69733080D01*
X148636331Y-69755081D01*
X148503111Y-69812328D01*
X148479645Y-69827199D01*
X148394622Y-69916559D01*
X148371408Y-70046070D01*
X148371503Y-70066109D01*
X148382566Y-70156632D01*
X148430502Y-70193538D01*
X148541435Y-70200565D01*
X148560083Y-70201000D01*
X148696042Y-70225752D01*
X148798114Y-70276827D01*
X148861033Y-70324906D01*
X148924101Y-70354741D01*
X148925888Y-70354494D01*
X148941609Y-70300950D01*
X148945950Y-70170697D01*
X148940457Y-69987874D01*
X148926674Y-69776619D01*
X148906147Y-69561071D01*
X148880422Y-69365370D01*
X148851044Y-69213653D01*
X148840269Y-69172027D01*
X148796902Y-69045860D01*
X148741703Y-68986128D01*
X148651551Y-68963880D01*
X148637159Y-68962525D01*
X148454045Y-68992841D01*
X148296770Y-69099150D01*
X148193831Y-69262839D01*
X148170920Y-69335214D01*
X148164868Y-69442154D01*
X147721313Y-69442154D01*
X147687105Y-69431157D01*
X147503426Y-69458181D01*
X147334239Y-69575729D01*
X147188456Y-69730035D01*
X147345661Y-69731557D01*
X147348402Y-69731600D01*
X147458435Y-69745579D01*
X147611741Y-69779094D01*
X147782084Y-69824607D01*
X147943229Y-69874580D01*
X148068939Y-69921476D01*
X148132979Y-69957757D01*
X148136664Y-69967177D01*
X148114943Y-70037870D01*
X148085677Y-70086572D01*
X148051532Y-70143393D01*
X147965190Y-70255538D01*
X147874678Y-70346102D01*
X147832269Y-70372202D01*
X147705020Y-70420158D01*
X147552830Y-70453541D01*
X147453411Y-70467670D01*
X147322672Y-70486250D01*
X147336526Y-70673230D01*
X147334923Y-70720467D01*
X147332364Y-70795863D01*
X147287922Y-70968710D01*
X147193111Y-71193133D01*
X147093054Y-71414099D01*
X146991664Y-71680747D01*
X146924909Y-71936523D01*
X146883495Y-72219579D01*
X146858125Y-72568070D01*
X146850324Y-72713051D01*
X146835038Y-72926868D01*
X146813289Y-73083461D01*
X146777992Y-73213378D01*
X146722062Y-73347168D01*
X146707086Y-73377284D01*
X146638414Y-73515380D01*
X146514504Y-73750107D01*
X146398164Y-73943895D01*
X146294829Y-74076352D01*
X146190822Y-74164654D01*
X146072463Y-74225975D01*
X145905003Y-74278003D01*
X145618817Y-74289436D01*
X145347787Y-74201930D01*
X145304205Y-74176924D01*
X145190950Y-74085059D01*
X145081084Y-73945633D01*
X144954702Y-73735001D01*
X144919132Y-73670620D01*
X144789154Y-73421665D01*
X144736298Y-73297603D01*
X145031724Y-73297603D01*
X145035446Y-73451786D01*
X145067127Y-73573591D01*
X145135298Y-73708821D01*
X145166827Y-73760570D01*
X145282533Y-73915880D01*
X145398390Y-74033463D01*
X145548056Y-74121348D01*
X145758734Y-74154519D01*
X145969059Y-74093722D01*
X146167145Y-73943075D01*
X146341107Y-73706700D01*
X146381265Y-73632565D01*
X146428959Y-73510507D01*
X146444782Y-73377284D01*
X146437173Y-73187272D01*
X146418159Y-73033202D01*
X146375870Y-72797402D01*
X146317737Y-72526047D01*
X146250386Y-72252303D01*
X146226350Y-72160994D01*
X146109579Y-71700993D01*
X146107575Y-71692218D01*
X146368494Y-71692218D01*
X146373549Y-71934166D01*
X146390140Y-72197411D01*
X146416122Y-72445474D01*
X146449352Y-72641874D01*
X146456003Y-72671085D01*
X146497598Y-72855091D01*
X146540043Y-73044430D01*
X146582783Y-73196152D01*
X146628479Y-73270327D01*
X146670760Y-73250043D01*
X146708021Y-73140257D01*
X146738654Y-72945929D01*
X146761052Y-72672017D01*
X146773611Y-72323481D01*
X146786698Y-71615517D01*
X146976417Y-71193993D01*
X146983511Y-71178219D01*
X147081215Y-70955612D01*
X147138646Y-70807896D01*
X147159376Y-70720467D01*
X147146976Y-70678720D01*
X147105017Y-70668049D01*
X147098412Y-70668934D01*
X147050818Y-70727545D01*
X147029453Y-70810763D01*
X147017506Y-70857297D01*
X147006996Y-70918141D01*
X146927121Y-71123377D01*
X146791241Y-71248839D01*
X146602381Y-71291362D01*
X146539590Y-71292055D01*
X146449093Y-71307267D01*
X146405910Y-71361489D01*
X146380992Y-71479388D01*
X146377122Y-71508050D01*
X146368494Y-71692218D01*
X146107575Y-71692218D01*
X146021437Y-71315125D01*
X145959258Y-70983913D01*
X145920374Y-70687880D01*
X145902118Y-70407547D01*
X145901825Y-70123437D01*
X145914657Y-69860535D01*
X146032375Y-69860535D01*
X146032960Y-70101589D01*
X146043980Y-70388641D01*
X146063424Y-70686563D01*
X146089280Y-70960222D01*
X146119538Y-71174491D01*
X146139396Y-71253277D01*
X146178651Y-71330889D01*
X146213599Y-71338298D01*
X146228702Y-71262917D01*
X146257186Y-71189871D01*
X146282382Y-71150993D01*
X146496540Y-71150993D01*
X146503538Y-71171345D01*
X146562823Y-71187251D01*
X146656898Y-71163880D01*
X146754446Y-71106617D01*
X146764452Y-71097620D01*
X146820265Y-71010551D01*
X146852417Y-70902617D01*
X146853917Y-70810763D01*
X146817775Y-70771935D01*
X146769814Y-70804462D01*
X146687980Y-70888271D01*
X146598390Y-70993746D01*
X146526194Y-71091212D01*
X146496540Y-71150993D01*
X146282382Y-71150993D01*
X146334395Y-71070735D01*
X146443246Y-70932886D01*
X146578897Y-70789514D01*
X146724584Y-70683100D01*
X146891126Y-70618109D01*
X146895398Y-70616912D01*
X147032152Y-70570614D01*
X147096097Y-70524549D01*
X147102778Y-70467670D01*
X147081865Y-70378849D01*
X147052111Y-70240883D01*
X147036905Y-70185154D01*
X146978306Y-70107155D01*
X146860272Y-70064944D01*
X146844016Y-70061358D01*
X146835546Y-70058289D01*
X147171566Y-70058289D01*
X147207870Y-70217642D01*
X147208629Y-70219956D01*
X147250405Y-70307967D01*
X147318474Y-70347313D01*
X147444029Y-70356312D01*
X147466056Y-70355848D01*
X147632719Y-70327195D01*
X147788090Y-70263741D01*
X147906219Y-70179022D01*
X147961157Y-70086572D01*
X147955147Y-70047030D01*
X147885692Y-69981117D01*
X147756870Y-69930202D01*
X147588039Y-69900733D01*
X147398557Y-69899159D01*
X147294879Y-69913144D01*
X147197361Y-69962147D01*
X147171566Y-70058289D01*
X146835546Y-70058289D01*
X146590522Y-69969505D01*
X146361600Y-69824412D01*
X146189236Y-69646046D01*
X146063109Y-69468001D01*
X146038039Y-69750655D01*
X146032375Y-69860535D01*
X145914657Y-69860535D01*
X145916827Y-69816072D01*
X145916842Y-69815847D01*
X145933229Y-69566804D01*
X145946800Y-69353117D01*
X145956144Y-69197522D01*
X145959851Y-69122753D01*
X145956535Y-69107304D01*
X145890069Y-69070155D01*
X145737665Y-69057824D01*
X145684574Y-69058859D01*
X145557175Y-69078363D01*
X145515479Y-69122753D01*
X145515480Y-69122776D01*
X145519192Y-69197625D01*
X145528540Y-69353280D01*
X145542115Y-69567007D01*
X145558503Y-69816072D01*
X145562181Y-69873456D01*
X145564709Y-69934642D01*
X145574650Y-70175247D01*
X145571349Y-70457257D01*
X145549610Y-70738962D01*
X145506767Y-71039842D01*
X145440153Y-71379374D01*
X145377697Y-71646281D01*
X145347101Y-71777035D01*
X145224944Y-72252303D01*
X145164190Y-72497516D01*
X145104806Y-72770642D01*
X145060587Y-73011616D01*
X145038157Y-73187272D01*
X145031724Y-73297603D01*
X144736298Y-73297603D01*
X144703004Y-73219458D01*
X144652097Y-73034770D01*
X144627848Y-72838369D01*
X144621672Y-72601027D01*
X144611764Y-72327772D01*
X144561433Y-71977593D01*
X144461165Y-71627479D01*
X144302783Y-71242604D01*
X144285889Y-71205502D01*
X144193226Y-70979782D01*
X144146537Y-70809680D01*
X144141854Y-70724211D01*
X144316222Y-70724211D01*
X144339017Y-70814789D01*
X144398723Y-70966515D01*
X144498913Y-71193993D01*
X144688632Y-71615517D01*
X144701719Y-72323481D01*
X144702954Y-72381611D01*
X144712681Y-72647875D01*
X144727463Y-72879887D01*
X144745517Y-73054438D01*
X144765062Y-73148315D01*
X144799010Y-73216610D01*
X144847785Y-73256881D01*
X144891260Y-73200679D01*
X144935287Y-73044430D01*
X144942996Y-73009901D01*
X144986702Y-72815275D01*
X145025979Y-72641874D01*
X145033664Y-72605651D01*
X145065509Y-72395000D01*
X145089644Y-72140567D01*
X145103924Y-71878834D01*
X145106204Y-71646281D01*
X145094338Y-71479388D01*
X145083690Y-71417709D01*
X145054263Y-71331070D01*
X144993698Y-71297178D01*
X144872949Y-71291362D01*
X144822900Y-71288884D01*
X144646493Y-71226145D01*
X144523792Y-71081228D01*
X144457825Y-70857297D01*
X144454740Y-70837227D01*
X144450678Y-70823437D01*
X144617640Y-70823437D01*
X144626413Y-70920512D01*
X144663336Y-71027274D01*
X144720884Y-71106617D01*
X144759915Y-71134395D01*
X144861209Y-71178663D01*
X144944319Y-71183978D01*
X144978790Y-71145724D01*
X144950836Y-71089916D01*
X144878810Y-70994694D01*
X144788165Y-70890448D01*
X144704403Y-70806440D01*
X144653027Y-70771935D01*
X144644540Y-70773159D01*
X144617640Y-70823437D01*
X144450678Y-70823437D01*
X144418788Y-70715167D01*
X144370313Y-70668049D01*
X144367083Y-70668079D01*
X144326768Y-70680176D01*
X144316222Y-70724211D01*
X144141854Y-70724211D01*
X144138952Y-70671234D01*
X144152658Y-70486250D01*
X144032932Y-70469234D01*
X144372164Y-70469234D01*
X144380029Y-70525728D01*
X144445527Y-70571670D01*
X144584204Y-70618109D01*
X144728985Y-70671829D01*
X144875437Y-70770735D01*
X145032084Y-70932886D01*
X145138576Y-71067474D01*
X145189600Y-71145724D01*
X145216765Y-71187383D01*
X145246628Y-71262917D01*
X145248958Y-71298184D01*
X145276127Y-71342397D01*
X145318293Y-71308320D01*
X145355810Y-71206165D01*
X145359866Y-71186168D01*
X145386062Y-71001292D01*
X145409422Y-70750599D01*
X145428092Y-70467192D01*
X145440213Y-70184172D01*
X145443929Y-69934642D01*
X145437385Y-69751704D01*
X145412221Y-69468001D01*
X145286094Y-69646046D01*
X145277405Y-69658032D01*
X145100479Y-69834872D01*
X144869034Y-69977165D01*
X144615058Y-70064944D01*
X144551170Y-70081753D01*
X144509749Y-70108174D01*
X144464310Y-70137158D01*
X144423219Y-70240883D01*
X144399327Y-70352614D01*
X144372552Y-70467670D01*
X144372164Y-70469234D01*
X144032932Y-70469234D01*
X143925660Y-70453988D01*
X143852149Y-70440216D01*
X143696883Y-70392464D01*
X143582952Y-70333508D01*
X143573502Y-70326082D01*
X143479759Y-70231685D01*
X143398031Y-70119258D01*
X143376993Y-70077699D01*
X143514200Y-70077699D01*
X143555457Y-70167577D01*
X143684369Y-70265412D01*
X143706956Y-70277558D01*
X143866258Y-70333520D01*
X144031301Y-70356312D01*
X144034484Y-70356311D01*
X144158625Y-70346897D01*
X144225886Y-70306780D01*
X144267460Y-70217642D01*
X144297223Y-70108174D01*
X144295164Y-69990866D01*
X144224888Y-69926552D01*
X144076773Y-69899159D01*
X144033445Y-69897218D01*
X143849758Y-69907871D01*
X143683780Y-69940995D01*
X143560605Y-69999743D01*
X143514200Y-70077699D01*
X143376993Y-70077699D01*
X143346631Y-70017720D01*
X143343873Y-69955986D01*
X143345300Y-69954450D01*
X143412708Y-69918138D01*
X143540382Y-69871513D01*
X143702119Y-69822058D01*
X143871715Y-69777258D01*
X144022966Y-69744596D01*
X144129669Y-69731557D01*
X144286874Y-69730035D01*
X144141091Y-69575729D01*
X143980116Y-69461543D01*
X143796689Y-69430499D01*
X143616747Y-69484398D01*
X143459129Y-69617389D01*
X143342676Y-69823624D01*
X143331899Y-69852544D01*
X143272851Y-70009331D01*
X143225722Y-70132132D01*
X143200000Y-70266100D01*
X143238245Y-70369395D01*
X143336879Y-70409190D01*
X143456702Y-70440273D01*
X143613438Y-70528990D01*
X143765735Y-70652740D01*
X143880920Y-70788730D01*
X143905020Y-70830470D01*
X143958411Y-70992839D01*
X143973627Y-71205340D01*
X143974396Y-71216077D01*
X143963454Y-71375376D01*
X143894765Y-71585640D01*
X143761600Y-71724663D01*
X143562335Y-71794725D01*
X143425833Y-71801769D01*
X143178111Y-71739282D01*
X142949844Y-71583530D01*
X142749548Y-71341274D01*
X142585737Y-71019276D01*
X142580422Y-71005860D01*
X142530362Y-70872846D01*
X142495990Y-70755702D01*
X142474371Y-70630477D01*
X142468518Y-70552512D01*
X142569225Y-70552512D01*
X142570177Y-70569826D01*
X142602547Y-70709921D01*
X142670687Y-70894520D01*
X142760719Y-71089646D01*
X142858762Y-71261321D01*
X142891772Y-71306191D01*
X143024442Y-71440757D01*
X143172809Y-71546676D01*
X143222733Y-71572696D01*
X143433215Y-71644710D01*
X143607838Y-71630796D01*
X143758854Y-71530617D01*
X143848985Y-71392338D01*
X143884147Y-71205340D01*
X143855760Y-71006257D01*
X143770643Y-70817118D01*
X143635612Y-70659951D01*
X143457484Y-70556788D01*
X143354929Y-70531146D01*
X143198215Y-70532945D01*
X143080141Y-70585406D01*
X143022963Y-70682109D01*
X143021286Y-70694490D01*
X143033296Y-70743241D01*
X143095300Y-70766193D01*
X143226786Y-70771935D01*
X143357898Y-70786253D01*
X143516507Y-70861263D01*
X143611073Y-70992056D01*
X143625811Y-71117613D01*
X143631852Y-71169081D01*
X143622485Y-71231710D01*
X143578836Y-71305210D01*
X143476998Y-71333194D01*
X143422772Y-71335898D01*
X143327615Y-71302731D01*
X143242640Y-71195319D01*
X143231752Y-71177137D01*
X143172657Y-71061611D01*
X143148561Y-70983560D01*
X143133269Y-70955100D01*
X143285903Y-70955100D01*
X143328691Y-71087006D01*
X143368555Y-71141203D01*
X143446782Y-71182696D01*
X143518747Y-71176404D01*
X143550319Y-71117613D01*
X143548177Y-71098474D01*
X143500140Y-71002473D01*
X143416658Y-70914407D01*
X143334765Y-70875820D01*
X143303924Y-70884765D01*
X143285903Y-70955100D01*
X143133269Y-70955100D01*
X143119140Y-70928806D01*
X143036962Y-70866369D01*
X143019939Y-70856243D01*
X142940754Y-70755690D01*
X142929924Y-70628126D01*
X142992322Y-70512221D01*
X143046111Y-70444718D01*
X143042916Y-70375513D01*
X142952490Y-70327184D01*
X142941673Y-70324462D01*
X142825106Y-70331389D01*
X142703246Y-70384012D01*
X142607488Y-70463872D01*
X142569225Y-70552512D01*
X142468518Y-70552512D01*
X142462565Y-70473222D01*
X142457636Y-70259987D01*
X142457366Y-70179922D01*
X142530466Y-70179922D01*
X142536427Y-70307626D01*
X142551230Y-70354741D01*
X142595019Y-70336828D01*
X142677216Y-70276827D01*
X142687437Y-70268685D01*
X142797579Y-70220317D01*
X142933895Y-70200565D01*
X142955947Y-70200479D01*
X143055572Y-70190426D01*
X143096189Y-70146870D01*
X143103922Y-70046070D01*
X143103281Y-70018159D01*
X143070717Y-69898827D01*
X142972219Y-69812328D01*
X142847301Y-69757667D01*
X142717773Y-69733080D01*
X142713968Y-69733068D01*
X142635508Y-69719689D01*
X142640858Y-69679753D01*
X142659179Y-69663554D01*
X142766455Y-69626410D01*
X142914096Y-69621377D01*
X143066835Y-69650846D01*
X143113172Y-69663276D01*
X143192426Y-69648412D01*
X143261860Y-69555552D01*
X143293836Y-69492828D01*
X143313928Y-69390486D01*
X143281499Y-69262839D01*
X143276138Y-69248582D01*
X143167987Y-69088659D01*
X143007703Y-68987555D01*
X142823779Y-68963880D01*
X142798652Y-68967204D01*
X142718622Y-68995536D01*
X142668208Y-69068035D01*
X142624287Y-69213653D01*
X142617111Y-69244555D01*
X142586124Y-69426800D01*
X142558188Y-69660133D01*
X142538613Y-69901894D01*
X142533982Y-69994485D01*
X142530466Y-70179922D01*
X142457366Y-70179922D01*
X142456646Y-69966822D01*
X142457534Y-69699618D01*
X142462230Y-69477113D01*
X142473398Y-69314543D01*
X142493691Y-69188657D01*
X142525764Y-69076205D01*
X142572270Y-68953939D01*
X142625073Y-68833588D01*
X142641135Y-68802096D01*
X142791444Y-68802096D01*
X142825095Y-68835051D01*
X142914203Y-68850248D01*
X142952253Y-68853286D01*
X143114666Y-68913862D01*
X143275014Y-69032947D01*
X143396788Y-69185202D01*
X143410836Y-69209183D01*
X143493509Y-69302311D01*
X143568921Y-69292723D01*
X143642993Y-69180301D01*
X143673092Y-69094758D01*
X143698614Y-68868149D01*
X143671946Y-68623027D01*
X143599370Y-68397685D01*
X143487167Y-68230418D01*
X143479189Y-68223085D01*
X143436434Y-68203983D01*
X143545310Y-68203983D01*
X143609740Y-68281064D01*
X143724533Y-68431013D01*
X143799129Y-68667182D01*
X143807088Y-68868149D01*
X143811286Y-68974168D01*
X143807078Y-69067655D01*
X143809984Y-69194355D01*
X143833497Y-69258475D01*
X143883916Y-69287157D01*
X143987205Y-69274508D01*
X144101109Y-69177805D01*
X144207890Y-69012151D01*
X144296527Y-68794908D01*
X144355999Y-68543438D01*
X144364034Y-68493291D01*
X144378968Y-68415962D01*
X144386430Y-68420394D01*
X144387704Y-68513932D01*
X144384077Y-68703924D01*
X144377553Y-68878818D01*
X144360603Y-69036991D01*
X144328453Y-69143184D01*
X144274989Y-69226699D01*
X144234373Y-69278843D01*
X144183453Y-69367453D01*
X144194590Y-69390486D01*
X144204120Y-69410194D01*
X144298034Y-69421081D01*
X144444745Y-69389936D01*
X144616137Y-69266866D01*
X144759941Y-69061115D01*
X144865824Y-68784268D01*
X144925323Y-68564368D01*
X144929737Y-68787705D01*
X144929544Y-68827506D01*
X144910038Y-69009494D01*
X144868794Y-69158102D01*
X144784960Y-69299149D01*
X144666461Y-69436328D01*
X144542503Y-69537690D01*
X144439688Y-69577252D01*
X144433461Y-69577398D01*
X144366562Y-69614707D01*
X144362811Y-69699993D01*
X144423982Y-69807284D01*
X144434159Y-69818317D01*
X144553584Y-69876882D01*
X144704587Y-69862319D01*
X144870914Y-69786630D01*
X145036313Y-69661819D01*
X145184532Y-69499891D01*
X145299319Y-69312848D01*
X145364420Y-69112695D01*
X145373056Y-69035424D01*
X145369268Y-69013581D01*
X146102747Y-69013581D01*
X146104546Y-69035424D01*
X146110910Y-69112695D01*
X146164292Y-69277675D01*
X146282881Y-69482043D01*
X146438166Y-69664379D01*
X146605470Y-69790845D01*
X146606059Y-69791156D01*
X146800311Y-69871307D01*
X146944839Y-69876539D01*
X147051348Y-69807284D01*
X147057098Y-69800436D01*
X147114165Y-69693758D01*
X147106422Y-69610707D01*
X147035642Y-69577252D01*
X146937704Y-69540745D01*
X146814095Y-69441433D01*
X146694839Y-69305224D01*
X146606536Y-69158102D01*
X146595569Y-69130079D01*
X146558372Y-68967433D01*
X146545593Y-68787705D01*
X146550007Y-68564368D01*
X146609506Y-68784268D01*
X146688799Y-69006601D01*
X146825241Y-69228787D01*
X146991516Y-69370809D01*
X147177296Y-69421081D01*
X147224269Y-69419611D01*
X147288313Y-69397510D01*
X147279783Y-69337879D01*
X147200341Y-69226699D01*
X147157199Y-69163581D01*
X147120632Y-69065286D01*
X147100688Y-68921834D01*
X147091253Y-68703924D01*
X147089354Y-68618703D01*
X147087466Y-68466806D01*
X147090976Y-68408527D01*
X147101169Y-68436520D01*
X147119331Y-68543438D01*
X147174002Y-68779639D01*
X147261100Y-68999595D01*
X147367049Y-69169074D01*
X147480827Y-69270716D01*
X147591414Y-69287157D01*
X147619957Y-69275781D01*
X147656363Y-69233070D01*
X147668959Y-69141580D01*
X147664052Y-68974457D01*
X147781343Y-68974457D01*
X147832337Y-69180301D01*
X147844136Y-69204796D01*
X147918026Y-69301041D01*
X147994188Y-69294470D01*
X148078542Y-69185202D01*
X148104447Y-69143850D01*
X148239759Y-68997780D01*
X148404155Y-68891466D01*
X148561127Y-68850248D01*
X148645301Y-68840792D01*
X148683886Y-68815999D01*
X148673827Y-68774436D01*
X148610344Y-68664229D01*
X148506049Y-68531860D01*
X148381545Y-68402242D01*
X148257432Y-68300288D01*
X148231026Y-68282463D01*
X148115554Y-68214224D01*
X148042982Y-68199051D01*
X148029277Y-68206893D01*
X147988163Y-68230418D01*
X147933293Y-68295876D01*
X147838102Y-68493951D01*
X147785358Y-68732909D01*
X147781343Y-68974457D01*
X147664052Y-68974457D01*
X147664044Y-68974168D01*
X147670684Y-68706516D01*
X147736285Y-68460558D01*
X147865590Y-68281064D01*
X147928664Y-68206893D01*
X147922376Y-68154701D01*
X147837270Y-68124532D01*
X147668508Y-68112241D01*
X147330874Y-68139412D01*
X146945631Y-68254781D01*
X146590927Y-68452005D01*
X146286515Y-68722365D01*
X146196078Y-68826919D01*
X146126760Y-68928050D01*
X146102747Y-69013581D01*
X145369268Y-69013581D01*
X145358115Y-68949268D01*
X145301078Y-68854641D01*
X145188815Y-68722365D01*
X144932997Y-68487538D01*
X144584476Y-68278964D01*
X144202500Y-68150958D01*
X143806822Y-68112241D01*
X143643882Y-68123617D01*
X143555077Y-68152883D01*
X143545310Y-68203983D01*
X143436434Y-68203983D01*
X143423058Y-68198007D01*
X143345513Y-68220856D01*
X143221090Y-68298111D01*
X143171604Y-68334239D01*
X143035520Y-68454590D01*
X142913360Y-68588446D01*
X142825282Y-68712163D01*
X142791444Y-68802096D01*
X142641135Y-68802096D01*
X142722141Y-68643270D01*
X142812587Y-68496688D01*
X142818902Y-68488159D01*
X142979093Y-68326735D01*
X143194500Y-68178290D01*
X143432961Y-68061771D01*
X143662314Y-67996125D01*
X143926229Y-67982889D01*
X144287141Y-68043494D01*
X144645457Y-68184471D01*
X144980222Y-68397010D01*
X145270483Y-68672299D01*
X145336025Y-68747849D01*
X145443996Y-68861851D01*
X145529352Y-68923605D01*
X145618455Y-68949004D01*
X145737665Y-68953939D01*
X145798718Y-68953172D01*
X145900598Y-68940665D01*
X145984672Y-68900278D01*
X146077302Y-68816120D01*
X146204847Y-68672299D01*
X146421304Y-68457084D01*
X146747390Y-68228833D01*
X147102007Y-68070050D01*
X147464200Y-67989543D01*
X147813017Y-67996125D01*
X147824973Y-67998115D01*
X148055568Y-68067036D01*
X148293438Y-68185721D01*
X148506466Y-68335247D01*
X148662535Y-68496688D01*
X148706458Y-68563007D01*
X148805364Y-68740967D01*
X148839827Y-68815999D01*
X148891256Y-68927968D01*
G37*
%TD*%
M02*
