%TF.GenerationSoftware,KiCad,Pcbnew,9.0.0*%
%TF.CreationDate,2026-05-22T15:15:50+02:00*%
%TF.ProjectId,LattePandaMU_Carrier_Custom_Board,4c617474-6550-4616-9e64-614d555f4361,rev?*%
%TF.SameCoordinates,Original*%
%TF.FileFunction,Copper,L4,Bot*%
%TF.FilePolarity,Positive*%
%FSLAX46Y46*%
G04 Gerber Fmt 4.6, Leading zero omitted, Abs format (unit mm)*
G04 Created by KiCad (PCBNEW 9.0.0) date 2026-05-22 15:15:50*
%MOMM*%
%LPD*%
G01*
G04 APERTURE LIST*
G04 Aperture macros list*
%AMRoundRect*
0 Rectangle with rounded corners*
0 $1 Rounding radius*
0 $2 $3 $4 $5 $6 $7 $8 $9 X,Y pos of 4 corners*
0 Add a 4 corners polygon primitive as box body*
4,1,4,$2,$3,$4,$5,$6,$7,$8,$9,$2,$3,0*
0 Add four circle primitives for the rounded corners*
1,1,$1+$1,$2,$3*
1,1,$1+$1,$4,$5*
1,1,$1+$1,$6,$7*
1,1,$1+$1,$8,$9*
0 Add four rect primitives between the rounded corners*
20,1,$1+$1,$2,$3,$4,$5,0*
20,1,$1+$1,$4,$5,$6,$7,0*
20,1,$1+$1,$6,$7,$8,$9,0*
20,1,$1+$1,$8,$9,$2,$3,0*%
G04 Aperture macros list end*
%TA.AperFunction,ComponentPad*%
%ADD10C,2.500000*%
%TD*%
%TA.AperFunction,ComponentPad*%
%ADD11C,1.900000*%
%TD*%
%TA.AperFunction,ComponentPad*%
%ADD12R,1.900000X1.900000*%
%TD*%
%TA.AperFunction,ComponentPad*%
%ADD13C,3.200000*%
%TD*%
%TA.AperFunction,ComponentPad*%
%ADD14R,1.700000X1.700000*%
%TD*%
%TA.AperFunction,ComponentPad*%
%ADD15O,1.700000X1.700000*%
%TD*%
%TA.AperFunction,ComponentPad*%
%ADD16R,1.200000X1.200000*%
%TD*%
%TA.AperFunction,ComponentPad*%
%ADD17C,1.200000*%
%TD*%
%TA.AperFunction,ComponentPad*%
%ADD18C,3.500000*%
%TD*%
%TA.AperFunction,ComponentPad*%
%ADD19C,0.800000*%
%TD*%
%TA.AperFunction,ComponentPad*%
%ADD20C,6.400000*%
%TD*%
%TA.AperFunction,ComponentPad*%
%ADD21O,1.500000X3.300000*%
%TD*%
%TA.AperFunction,ComponentPad*%
%ADD22O,1.500000X2.300000*%
%TD*%
%TA.AperFunction,ComponentPad*%
%ADD23C,2.200000*%
%TD*%
%TA.AperFunction,ComponentPad*%
%ADD24O,1.500000X3.700000*%
%TD*%
%TA.AperFunction,ComponentPad*%
%ADD25O,2.700000X1.500000*%
%TD*%
%TA.AperFunction,ComponentPad*%
%ADD26O,2.100000X1.000000*%
%TD*%
%TA.AperFunction,ComponentPad*%
%ADD27O,1.800000X1.000000*%
%TD*%
%TA.AperFunction,ComponentPad*%
%ADD28R,1.500000X1.500000*%
%TD*%
%TA.AperFunction,ComponentPad*%
%ADD29C,1.500000*%
%TD*%
%TA.AperFunction,ComponentPad*%
%ADD30RoundRect,0.250000X0.625000X-0.350000X0.625000X0.350000X-0.625000X0.350000X-0.625000X-0.350000X0*%
%TD*%
%TA.AperFunction,ComponentPad*%
%ADD31O,1.750000X1.200000*%
%TD*%
%TA.AperFunction,ViaPad*%
%ADD32C,0.400000*%
%TD*%
%TA.AperFunction,ViaPad*%
%ADD33C,0.600000*%
%TD*%
%TA.AperFunction,Conductor*%
%ADD34C,0.198628*%
%TD*%
%TA.AperFunction,Conductor*%
%ADD35C,0.200000*%
%TD*%
%TA.AperFunction,Conductor*%
%ADD36C,0.150000*%
%TD*%
%TA.AperFunction,Conductor*%
%ADD37C,0.143510*%
%TD*%
%TA.AperFunction,Conductor*%
%ADD38C,1.500000*%
%TD*%
%TA.AperFunction,Conductor*%
%ADD39C,0.300000*%
%TD*%
%TA.AperFunction,Conductor*%
%ADD40C,0.500000*%
%TD*%
G04 APERTURE END LIST*
D10*
%TO.P,J6,SH,SH*%
%TO.N,GND*%
X149909466Y-123895534D03*
X134359466Y-123895534D03*
D11*
%TO.P,J6,R10,GND*%
X147849466Y-120595534D03*
%TO.P,J6,R9,TD4-*%
%TO.N,/Gigabit Ethernet/MDI3-*%
X146579466Y-118055534D03*
%TO.P,J6,R8,TD4+*%
%TO.N,/Gigabit Ethernet/MDI3+*%
X145309466Y-120595534D03*
%TO.P,J6,R7,TD3-*%
%TO.N,/Gigabit Ethernet/MDI2-*%
X144039466Y-118055534D03*
%TO.P,J6,R6,TD3+*%
%TO.N,/Gigabit Ethernet/MDI2+*%
X142769466Y-120595534D03*
%TO.P,J6,R5,TD2-*%
%TO.N,/Gigabit Ethernet/MDI1-*%
X141499466Y-118055534D03*
%TO.P,J6,R4,TD2+*%
%TO.N,/Gigabit Ethernet/MDI1+*%
X140229466Y-120595534D03*
%TO.P,J6,R3,TD1-*%
%TO.N,/Gigabit Ethernet/MDI0-*%
X138959466Y-118055534D03*
%TO.P,J6,R2,TD1+*%
%TO.N,/Gigabit Ethernet/MDI0+*%
X137689466Y-120595534D03*
D12*
%TO.P,J6,R1,CT*%
%TO.N,Net-(J6-CT)*%
X136419466Y-118055534D03*
D11*
%TO.P,J6,L4*%
%TO.N,Net-(U6-LED1)*%
X135809466Y-131845534D03*
%TO.P,J6,L3*%
%TO.N,Net-(J6-PadL3)*%
X138349466Y-130325534D03*
%TO.P,J6,L2*%
%TO.N,Net-(U6-LED2)*%
X145919466Y-131845534D03*
%TO.P,J6,L1*%
%TO.N,Net-(J6-PadL1)*%
X148459466Y-130325534D03*
%TD*%
D13*
%TO.P,H6,1,1*%
%TO.N,GND*%
X182804466Y-41245534D03*
%TD*%
D14*
%TO.P,J12,1,Pin_1*%
%TO.N,GND*%
X88481133Y-40805534D03*
D15*
%TO.P,J12,2,Pin_2*%
X88481133Y-43345534D03*
%TO.P,J12,3,Pin_3*%
X88481133Y-45885534D03*
%TO.P,J12,4,Pin_4*%
X88481133Y-48425534D03*
%TD*%
D14*
%TO.P,JP1,1,A*%
%TO.N,/~{PWR_LED{slash}PSON}*%
X193064466Y-79745534D03*
D15*
%TO.P,JP1,2,C*%
%TO.N,Net-(JP1-C)*%
X193064466Y-82285534D03*
%TO.P,JP1,3,B*%
%TO.N,/LattePanda Module/SLS_S3*%
X193064466Y-84825534D03*
%TD*%
D14*
%TO.P,J1,1,Pin_1*%
%TO.N,Net-(A1-SIO_UART_TX)*%
X95264466Y-40735534D03*
D15*
%TO.P,J1,2,Pin_2*%
%TO.N,Net-(A1-SIO_UART_RX)*%
X95264466Y-43275534D03*
%TO.P,J1,3,Pin_3*%
%TO.N,GND*%
X95264466Y-45815534D03*
%TD*%
D14*
%TO.P,J19,1,Pin_1*%
%TO.N,/GPIO/GPP_D0*%
X99597799Y-40735534D03*
D15*
%TO.P,J19,2,Pin_2*%
%TO.N,/GPIO/GPP_D1*%
X99597799Y-43275534D03*
%TO.P,J19,3,Pin_3*%
%TO.N,/GPIO/GPP_D2*%
X99597799Y-45815534D03*
%TO.P,J19,4,Pin_4*%
%TO.N,/GPIO/GPP_D3*%
X99597799Y-48355534D03*
%TD*%
D16*
%TO.P,J4,1,VBUS1*%
%TO.N,Net-(J4A-VBUS1)*%
X92404466Y-126515534D03*
D17*
%TO.P,J4,2,D1-*%
%TO.N,/USB 2.0 & 3.0/CON_USB3_D_N*%
X94904466Y-126515534D03*
%TO.P,J4,3,D1+*%
%TO.N,/USB 2.0 & 3.0/CON_USB3_D_P*%
X96904466Y-126515534D03*
%TO.P,J4,4,GND1*%
%TO.N,GND*%
X99404466Y-126515534D03*
%TO.P,J4,5,SSRX1-*%
%TO.N,/USB 2.0 & 3.0/CON_USB3_SSRX_N*%
X99904466Y-125015534D03*
%TO.P,J4,6,SSRX1+*%
%TO.N,/USB 2.0 & 3.0/CON_USB3_SSRX_P*%
X97904466Y-125015534D03*
%TO.P,J4,7,DRAIN1*%
%TO.N,GND*%
X95904466Y-125015534D03*
%TO.P,J4,8,SSTX1-*%
%TO.N,/USB 2.0 & 3.0/CON_USB3_SSTX_N*%
X93904466Y-125015534D03*
%TO.P,J4,9,SSTX1+*%
%TO.N,/USB 2.0 & 3.0/CON_USB3_SSTX_P*%
X91904466Y-125015534D03*
%TO.P,J4,10,VBUS2*%
%TO.N,Net-(J4B-VBUS2)*%
X92404466Y-123315534D03*
%TO.P,J4,11,D2-*%
%TO.N,/USB 2.0 & 3.0/CON_USB4_D_N*%
X94904466Y-123315534D03*
%TO.P,J4,12,D2+*%
%TO.N,/USB 2.0 & 3.0/CON_USB4_D_P*%
X96904466Y-123315534D03*
%TO.P,J4,13,GND2*%
%TO.N,GND*%
X99404466Y-123315534D03*
%TO.P,J4,14,SSRX2-*%
%TO.N,/USB 2.0 & 3.0/CON_USB4_SSRX_N*%
X99904466Y-121815534D03*
%TO.P,J4,15,SSRX2+*%
%TO.N,/USB 2.0 & 3.0/CON_USB4_SSRX_P*%
X97904466Y-121815534D03*
%TO.P,J4,16,DRAIN2*%
%TO.N,GND*%
X95904466Y-121815534D03*
%TO.P,J4,17,SSTX2-*%
%TO.N,/USB 2.0 & 3.0/CON_USB4_SSTX_N*%
X93904466Y-121815534D03*
%TO.P,J4,18,SSTX2+*%
%TO.N,/USB 2.0 & 3.0/CON_USB4_SSTX_P*%
X91904466Y-121815534D03*
D18*
%TO.P,J4,19,SHIELD*%
%TO.N,GND*%
X89334466Y-122835534D03*
X89334466Y-128515534D03*
X102474466Y-122835534D03*
X102474466Y-128515534D03*
%TD*%
D19*
%TO.P,H4,1,1*%
%TO.N,GND*%
X231411522Y-133750000D03*
X232114466Y-132052944D03*
X232114466Y-135447056D03*
X233811522Y-131350000D03*
D20*
X233811522Y-133750000D03*
D19*
X233811522Y-136150000D03*
X235508578Y-132052944D03*
X235508578Y-135447056D03*
X236211522Y-133750000D03*
%TD*%
D13*
%TO.P,H5,1,1*%
%TO.N,GND*%
X119264466Y-41245534D03*
%TD*%
D21*
%TO.P,J3,SH,SH*%
%TO.N,GND*%
X183974466Y-129125534D03*
X169474466Y-129125534D03*
D22*
X183974466Y-135085534D03*
X169474466Y-135085534D03*
%TD*%
D14*
%TO.P,J21,1,Pin_1*%
%TO.N,+3V3*%
X79747800Y-40805534D03*
D15*
%TO.P,J21,2,Pin_2*%
X79747800Y-43345534D03*
%TO.P,J21,3,Pin_3*%
X79747800Y-45885534D03*
%TO.P,J21,4,Pin_4*%
X79747800Y-48425534D03*
%TD*%
D14*
%TO.P,J9,1,Pin_1*%
%TO.N,/GPIO/I2C2_SCL*%
X103931133Y-40735534D03*
D15*
%TO.P,J9,2,Pin_2*%
%TO.N,/GPIO/I2C3_SCL*%
X103931133Y-43275534D03*
%TO.P,J9,3,Pin_3*%
%TO.N,/GPIO/I2C4_SCL*%
X103931133Y-45815534D03*
%TO.P,J9,4,Pin_4*%
%TO.N,/GPIO/I2C5_SCL*%
X103931133Y-48355534D03*
%TD*%
D14*
%TO.P,J7,1,Pin_1*%
%TO.N,/GPIO/I2C2_SDA*%
X108264466Y-40735534D03*
D15*
%TO.P,J7,2,Pin_2*%
%TO.N,/GPIO/I2C3_SDA*%
X108264466Y-43275534D03*
%TO.P,J7,3,Pin_3*%
%TO.N,/GPIO/I2C4_SDA*%
X108264466Y-45815534D03*
%TO.P,J7,4,Pin_4*%
%TO.N,/GPIO/I2C5_SDA*%
X108264466Y-48355534D03*
%TD*%
D14*
%TO.P,J14,1,Pin_1*%
%TO.N,+3V3*%
X199944466Y-40710534D03*
D15*
%TO.P,J14,2,Pin_2*%
X199944466Y-43250534D03*
%TO.P,J14,3,Pin_3*%
X199944466Y-45790534D03*
%TD*%
D14*
%TO.P,J10,1,Pin_1*%
%TO.N,/GPIO/SOC_UART0_TX*%
X191874466Y-50635534D03*
D15*
%TO.P,J10,2,Pin_2*%
%TO.N,/GPIO/SOC_UART1_TX*%
X191874466Y-53175534D03*
%TO.P,J10,3,Pin_3*%
%TO.N,/GPIO/SOC_UART2_TX*%
X191874466Y-55715534D03*
%TD*%
D14*
%TO.P,J13,1,Pin_1*%
%TO.N,+3V3*%
X75381133Y-40805534D03*
D15*
%TO.P,J13,2,Pin_2*%
X75381133Y-43345534D03*
%TO.P,J13,3,Pin_3*%
X75381133Y-45885534D03*
%TO.P,J13,4,Pin_4*%
X75381133Y-48425534D03*
%TD*%
D19*
%TO.P,H7,1,1*%
%TO.N,GND*%
X73178988Y-93877534D03*
X72476044Y-95574590D03*
X72476044Y-92180478D03*
X70778988Y-96277534D03*
D20*
X70778988Y-93877534D03*
D19*
X70778988Y-91477534D03*
X69081932Y-95574590D03*
X69081932Y-92180478D03*
X68378988Y-93877534D03*
%TD*%
D23*
%TO.P,J17,1*%
%TO.N,+12V*%
X226604466Y-57855534D03*
D24*
%TO.P,J17,2*%
%TO.N,GND*%
X232604466Y-57855534D03*
D25*
%TO.P,J17,3*%
X233104466Y-53105534D03*
X228404466Y-53105534D03*
X233104466Y-62605534D03*
X228504466Y-62605534D03*
%TD*%
D19*
%TO.P,H1,1,1*%
%TO.N,GND*%
X231411522Y-41742590D03*
X232114466Y-40045534D03*
X232114466Y-43439646D03*
X233811522Y-39342590D03*
D20*
X233811522Y-41742590D03*
D19*
X233811522Y-44142590D03*
X235508578Y-40045534D03*
X235508578Y-43439646D03*
X236211522Y-41742590D03*
%TD*%
D26*
%TO.P,J18,S1,SHIELD*%
%TO.N,GND*%
X231849466Y-83035534D03*
D27*
X236049466Y-83035534D03*
D26*
X231849466Y-74395534D03*
D27*
X236049466Y-74395534D03*
%TD*%
D19*
%TO.P,H3,1,1*%
%TO.N,GND*%
X65400000Y-133750000D03*
X66102944Y-132052944D03*
X66102944Y-135447056D03*
X67800000Y-131350000D03*
D20*
X67800000Y-133750000D03*
D19*
X67800000Y-136150000D03*
X69497056Y-132052944D03*
X69497056Y-135447056D03*
X70200000Y-133750000D03*
%TD*%
D28*
%TO.P,J5,1,VBUS1*%
%TO.N,Net-(J5-VBUS1)*%
X203064464Y-125113219D03*
D29*
%TO.P,J5,2,D1-*%
%TO.N,/USB 2.0 & 3.0/CON_USB1_D_N*%
X205564464Y-125113219D03*
%TO.P,J5,3,D1+*%
%TO.N,/USB 2.0 & 3.0/CON_USB1_D_P*%
X207564464Y-125113219D03*
%TO.P,J5,4,GND1*%
%TO.N,GND*%
X210064464Y-125113219D03*
%TO.P,J5,5,VBUS2*%
%TO.N,Net-(J5-VBUS1)*%
X203064464Y-122493219D03*
%TO.P,J5,6,D2-*%
%TO.N,/USB 2.0 & 3.0/CON_USB2_D_N*%
X205564464Y-122493219D03*
%TO.P,J5,7,D2+*%
%TO.N,/USB 2.0 & 3.0/CON_USB2_D_P*%
X207564464Y-122493219D03*
%TO.P,J5,8,GND2*%
%TO.N,GND*%
X210064464Y-122493219D03*
D18*
%TO.P,J5,9,Shield*%
X199994464Y-127823219D03*
X213134464Y-127823219D03*
X199994464Y-122143219D03*
X213134464Y-122143219D03*
%TD*%
D30*
%TO.P,M1,1,-*%
%TO.N,GND*%
X194734466Y-69807142D03*
D31*
%TO.P,M1,2,+*%
%TO.N,+5V*%
X194734466Y-67807142D03*
%TO.P,M1,3,Tacho*%
%TO.N,Net-(D26-A)*%
X194734466Y-65807142D03*
%TO.P,M1,4,PWM*%
%TO.N,Net-(M1-PWM)*%
X194734466Y-63807142D03*
%TD*%
D19*
%TO.P,H2,1,1*%
%TO.N,GND*%
X65400000Y-41742590D03*
X66102944Y-40045534D03*
X66102944Y-43439646D03*
X67800000Y-39342590D03*
D20*
X67800000Y-41742590D03*
D19*
X67800000Y-44142590D03*
X69497056Y-40045534D03*
X69497056Y-43439646D03*
X70200000Y-41742590D03*
%TD*%
D14*
%TO.P,J20,1,Pin_1*%
%TO.N,GND*%
X84114466Y-40805534D03*
D15*
%TO.P,J20,2,Pin_2*%
X84114466Y-43345534D03*
%TO.P,J20,3,Pin_3*%
X84114466Y-45885534D03*
%TO.P,J20,4,Pin_4*%
X84114466Y-48425534D03*
%TD*%
D19*
%TO.P,H8,1,1*%
%TO.N,GND*%
X68378988Y-68993534D03*
X69081932Y-67296478D03*
X69081932Y-70690590D03*
X70778988Y-66593534D03*
D20*
X70778988Y-68993534D03*
D19*
X70778988Y-71393534D03*
X72476044Y-67296478D03*
X72476044Y-70690590D03*
X73178988Y-68993534D03*
%TD*%
D14*
%TO.P,J8,1,Pin_1*%
%TO.N,/GPIO/SOC_UART0_RX*%
X191644466Y-40735534D03*
D15*
%TO.P,J8,2,Pin_2*%
%TO.N,/GPIO/SOC_UART1_RX*%
X191644466Y-43275534D03*
%TO.P,J8,3,Pin_3*%
%TO.N,/GPIO/SOC_UART2_RX*%
X191644466Y-45815534D03*
%TD*%
D14*
%TO.P,J11,1,Pin_1*%
%TO.N,GND*%
X195724466Y-40695534D03*
D15*
%TO.P,J11,2,Pin_2*%
X195724466Y-43235534D03*
%TO.P,J11,3,Pin_3*%
X195724466Y-45775534D03*
%TD*%
D32*
%TO.N,GND*%
X66714466Y-121985534D03*
X129374466Y-95645534D03*
%TO.N,/USB 2.0 & 3.0/CON_USB4_SSRX_N*%
X123895821Y-97254179D03*
%TO.N,/USB 2.0 & 3.0/CON_USB4_SSRX_P*%
X123522169Y-97584620D03*
%TO.N,GND*%
X142144466Y-100495534D03*
%TO.N,/GPIO/I2C2_SCL*%
X158124466Y-54245534D03*
%TO.N,/Gigabit Ethernet/MDI1-*%
X148474466Y-113605534D03*
%TO.N,/Gigabit Ethernet/MDI1+*%
X147884466Y-113635534D03*
%TO.N,/USB 2.0 & 3.0/CON_USB4_D_P*%
X102400214Y-116194937D03*
%TO.N,/USB 2.0 & 3.0/CON_USB3_SSTX_N*%
X92294466Y-118405534D03*
%TO.N,/USB 2.0 & 3.0/CON_USB3_SSTX_P*%
X91755749Y-118203933D03*
%TO.N,GND*%
X141924466Y-90535534D03*
X168034466Y-103435534D03*
X103054466Y-67835534D03*
X151537304Y-110698874D03*
X205884466Y-63455534D03*
X173874466Y-96145534D03*
X111514466Y-85805534D03*
X170884466Y-96145534D03*
X224819466Y-75370534D03*
X136594466Y-103755534D03*
X220236133Y-80110534D03*
X180779466Y-95990534D03*
X176904466Y-96145534D03*
X139781133Y-109065534D03*
X80814466Y-119165534D03*
X131374466Y-96075534D03*
X102184466Y-94135534D03*
X130084466Y-121055534D03*
X176834466Y-123005534D03*
X123134466Y-103695534D03*
X130084466Y-121705534D03*
X138214466Y-95625534D03*
X78494466Y-110305534D03*
X160484466Y-96145534D03*
X174794466Y-130735534D03*
X207294466Y-38165534D03*
X140534466Y-108125534D03*
X221409466Y-80120534D03*
X127594466Y-103745534D03*
X221399466Y-77680534D03*
X102184466Y-92705534D03*
X225699466Y-100820534D03*
X173224466Y-130705534D03*
X140257799Y-109075534D03*
X201724466Y-38605534D03*
X102184466Y-88175534D03*
X207294466Y-39455534D03*
X167364466Y-129005534D03*
X129114466Y-122735534D03*
X111534466Y-86685534D03*
X92004466Y-77385534D03*
X91894466Y-102335534D03*
X103014466Y-60065534D03*
X78194466Y-119215534D03*
X102954466Y-71885534D03*
X220226133Y-77670534D03*
X207294466Y-42905534D03*
X129344466Y-109245534D03*
X229124466Y-72775534D03*
X114924466Y-45465534D03*
X157114466Y-103625534D03*
X186964466Y-43325534D03*
X208164466Y-42905534D03*
X181129466Y-104170534D03*
X129394466Y-110275534D03*
X124274466Y-119465534D03*
X138125000Y-104075534D03*
X199104466Y-38075534D03*
X77959466Y-121955534D03*
X207274466Y-75485534D03*
X98694466Y-63985534D03*
X151364466Y-95335534D03*
X190424466Y-89805534D03*
X212454466Y-52485534D03*
X175404466Y-96145534D03*
X198364466Y-57065534D03*
X205884466Y-61505534D03*
X102904466Y-102135534D03*
X144624466Y-106665534D03*
X190464466Y-91545534D03*
X189654466Y-69925534D03*
X102954466Y-70792134D03*
X132204466Y-103465534D03*
X208164466Y-42175534D03*
X187084466Y-53086534D03*
X221399466Y-79570534D03*
X137634466Y-92765534D03*
X190404466Y-88885534D03*
X105235793Y-136074207D03*
X141874466Y-92615534D03*
X133574466Y-103575534D03*
X199734466Y-38075534D03*
X208164466Y-38165534D03*
X126884466Y-95325534D03*
X103004466Y-103135534D03*
X129634466Y-103735534D03*
X209654466Y-76695534D03*
X219639466Y-78940534D03*
X163544466Y-96145534D03*
X205884466Y-62795534D03*
X201014466Y-38575534D03*
X112394466Y-45465534D03*
X214599466Y-80990534D03*
X220822799Y-80110534D03*
X176234466Y-130735534D03*
X106084466Y-117595534D03*
X164804466Y-106165534D03*
X157405466Y-108780534D03*
X205884466Y-65515534D03*
X172634466Y-103585534D03*
X169404466Y-96145534D03*
X207294466Y-43465534D03*
X135894466Y-92855534D03*
X134014466Y-95595534D03*
X139634466Y-100765534D03*
X103379466Y-78040534D03*
X220812799Y-79560534D03*
X220812799Y-77670534D03*
X142944466Y-103765534D03*
X161104466Y-103635534D03*
X130364466Y-118005534D03*
X189234466Y-124845534D03*
X176224466Y-130095534D03*
X205884466Y-64805534D03*
X122294466Y-96175534D03*
X140734466Y-109075534D03*
X103044466Y-75995534D03*
X219649466Y-80090534D03*
X93554466Y-115275534D03*
X146354466Y-95325534D03*
X177724466Y-130125534D03*
X221409466Y-78310534D03*
X140057799Y-108125534D03*
X213824466Y-76975534D03*
X172774466Y-123305534D03*
X135014466Y-112695534D03*
X208164466Y-38765534D03*
X102184466Y-95055534D03*
X207294466Y-42175534D03*
X189544466Y-53405534D03*
X175574466Y-104235534D03*
X220812799Y-78960534D03*
X206834466Y-66285534D03*
X139304466Y-109065534D03*
X206834466Y-61485534D03*
X171144466Y-103675534D03*
X102184466Y-91185534D03*
X144864466Y-92785534D03*
X102954466Y-69295534D03*
X131094466Y-92425534D03*
X128394466Y-95305534D03*
X147374466Y-110625534D03*
X167384466Y-106155534D03*
X206834466Y-62175534D03*
X129869466Y-122390534D03*
X207994466Y-116135534D03*
X103044466Y-76725534D03*
X201424466Y-53815534D03*
X206834466Y-63455534D03*
X103044466Y-75225534D03*
X205854466Y-66285534D03*
X103004466Y-60815534D03*
X120854466Y-100925534D03*
X145654466Y-95615534D03*
X167004466Y-124005534D03*
X124344466Y-103675534D03*
X106044466Y-114735534D03*
X208164466Y-41465534D03*
X103044466Y-77335534D03*
X112594466Y-55235534D03*
X206834466Y-64805534D03*
X174704466Y-104235534D03*
X206834466Y-64125534D03*
X111534466Y-87505534D03*
X137784466Y-95555534D03*
X102184466Y-89665534D03*
X219649466Y-78280534D03*
X208164466Y-40115534D03*
X102674466Y-102645534D03*
X133134466Y-119665534D03*
X132864466Y-92445534D03*
X121484466Y-101125534D03*
X166404466Y-96145534D03*
X103314466Y-73805534D03*
X177084466Y-104235534D03*
X129134466Y-103735534D03*
X158494466Y-124505534D03*
X125954466Y-100955534D03*
X207294466Y-40115534D03*
X169625000Y-103532134D03*
X189224466Y-43315534D03*
X138699466Y-95480534D03*
X106484466Y-131995534D03*
X179944466Y-122955534D03*
X162364466Y-96145534D03*
X179254466Y-130735534D03*
X172384466Y-96145534D03*
X135104466Y-103795534D03*
X190444466Y-90715534D03*
X180764466Y-130735534D03*
X220226133Y-78960534D03*
X102954466Y-97395534D03*
X103004466Y-98195534D03*
X92304466Y-97385534D03*
X201644466Y-38095534D03*
X140384466Y-95215534D03*
X103044466Y-74425534D03*
X164564466Y-103725534D03*
X144094466Y-103705534D03*
X93074466Y-83495534D03*
X157445466Y-107710534D03*
X124524466Y-118855534D03*
X102359466Y-84750534D03*
X207974466Y-118495534D03*
X141864466Y-95275534D03*
X219639466Y-77650534D03*
X220822799Y-78300534D03*
X159079466Y-95950534D03*
X219639466Y-79540534D03*
X167274466Y-103765534D03*
X235069466Y-111175534D03*
X177724466Y-130735534D03*
X67154466Y-113175534D03*
X208164466Y-43505534D03*
X164614466Y-101105534D03*
X221399466Y-78970534D03*
X207294466Y-40785534D03*
X125294466Y-95345534D03*
X187014466Y-117405534D03*
X120714466Y-95325534D03*
X173224466Y-130165534D03*
X139581133Y-108115534D03*
X79384466Y-128425534D03*
X200344466Y-38075534D03*
X131514466Y-111535534D03*
X179934466Y-125465534D03*
X79364466Y-123695534D03*
X144844466Y-112515534D03*
X208164466Y-40785534D03*
X176914466Y-125535534D03*
X212934466Y-48675534D03*
X208164466Y-44065534D03*
X167914466Y-96145534D03*
X144887233Y-95332767D03*
X92144466Y-104695534D03*
X207294466Y-41465534D03*
X144614466Y-90555534D03*
X180114466Y-104235534D03*
X128414466Y-122305534D03*
X178424466Y-96145534D03*
X199114466Y-38605534D03*
X180724466Y-130175534D03*
X92034466Y-78395534D03*
X93084466Y-86115534D03*
X207294466Y-38765534D03*
X166649466Y-103590534D03*
X208954466Y-52095534D03*
X206834466Y-62795534D03*
X174125000Y-103525534D03*
X181359466Y-95410534D03*
X115234466Y-55205534D03*
X92164466Y-58925534D03*
X100374466Y-115025534D03*
X200374466Y-38575534D03*
X108274466Y-73595534D03*
X205884466Y-62105534D03*
X176344466Y-104235534D03*
X81194466Y-110385534D03*
X147294466Y-113125534D03*
X221449466Y-82490534D03*
X201004466Y-38065534D03*
X213854466Y-78065534D03*
X207294466Y-44065534D03*
X220236133Y-78300534D03*
X132904466Y-103765534D03*
X92024466Y-60665534D03*
X199744466Y-38605534D03*
X111534466Y-84795534D03*
X128384466Y-92675534D03*
X145804466Y-103745534D03*
X100294466Y-117705534D03*
X112534466Y-51775534D03*
X179224466Y-130125534D03*
X164884466Y-96145534D03*
X151637304Y-113198874D03*
X115274466Y-51765534D03*
X178554466Y-104235534D03*
X78124466Y-113195534D03*
X102184466Y-86705534D03*
X93554466Y-117605534D03*
X123924466Y-95465534D03*
X161714466Y-122645534D03*
X151114466Y-103655534D03*
X220226133Y-79560534D03*
X142964466Y-104815534D03*
X206834466Y-65515534D03*
X205884466Y-64125534D03*
X225119466Y-78870534D03*
X139104466Y-108115534D03*
X179874466Y-96145534D03*
X208164466Y-39455534D03*
%TO.N,VDC*%
X184714466Y-103935534D03*
X210734466Y-69415534D03*
X220014466Y-94860534D03*
X184154466Y-103915534D03*
X217589466Y-90860534D03*
X219114466Y-94110534D03*
X182881966Y-92015534D03*
X182861966Y-92585534D03*
X184384466Y-92575534D03*
X220039466Y-92260534D03*
X220764466Y-94835534D03*
X220764466Y-94160534D03*
X213954466Y-69115534D03*
X183184466Y-104495534D03*
X209644466Y-67405534D03*
X209654466Y-66295534D03*
X219089466Y-90860534D03*
X183389466Y-92005534D03*
X217589466Y-92810534D03*
X184404466Y-91475534D03*
X183886966Y-90905534D03*
X182364466Y-90935534D03*
X219089466Y-92810534D03*
X220739466Y-92860534D03*
X182674466Y-105465534D03*
X182664466Y-104475534D03*
X183876966Y-92555534D03*
X184194466Y-104985534D03*
X183369466Y-92575534D03*
X218364466Y-94110534D03*
X213264466Y-68575534D03*
X219064466Y-91510534D03*
X213954466Y-69605534D03*
X220014466Y-91560534D03*
X218364466Y-91510534D03*
X218364466Y-94810534D03*
X214714466Y-67995534D03*
X217589466Y-94835534D03*
X182354466Y-92585534D03*
X182664466Y-103915534D03*
X210044466Y-68875534D03*
X184144466Y-104505534D03*
X220739466Y-92260534D03*
X214714466Y-68575534D03*
X210734466Y-68875534D03*
X220039466Y-93460534D03*
X183134466Y-103915534D03*
X220039466Y-92860534D03*
X218389466Y-92810534D03*
X218389466Y-93410534D03*
X184394466Y-90925534D03*
X219114466Y-94785534D03*
X183896966Y-91985534D03*
X217614466Y-94110534D03*
X184184466Y-105455534D03*
X183654466Y-104495534D03*
X218389466Y-90860534D03*
X220014466Y-94160534D03*
X214714466Y-69605534D03*
X183379466Y-90925534D03*
X183684466Y-104965534D03*
X210194466Y-67395534D03*
X220739466Y-93460534D03*
X220739466Y-90910534D03*
X184404466Y-92005534D03*
X220714466Y-91560534D03*
X182374466Y-91485534D03*
X183389466Y-91475534D03*
X213264466Y-69605534D03*
X209664466Y-66845534D03*
X182871966Y-90935534D03*
X210044466Y-69415534D03*
X220039466Y-90910534D03*
X213954466Y-67995534D03*
X184744466Y-105485534D03*
X214714466Y-69115534D03*
X183684466Y-105485534D03*
X183624466Y-103915534D03*
X184724466Y-104505534D03*
X210144466Y-66295534D03*
X210044466Y-68295534D03*
X213954466Y-68575534D03*
X213264466Y-69115534D03*
X183184466Y-105465534D03*
X182881966Y-91485534D03*
X218389466Y-92210534D03*
X213264466Y-67995534D03*
X182674466Y-104985534D03*
X210734466Y-68295534D03*
X217589466Y-92210534D03*
X219089466Y-93410534D03*
X219089466Y-92210534D03*
X183184466Y-104965534D03*
X217589466Y-93410534D03*
X217564466Y-91510534D03*
X184774466Y-104965534D03*
X183896966Y-91455534D03*
X182374466Y-92015534D03*
%TO.N,/GPIO/I2C5_SDA*%
X153324466Y-49205534D03*
X153404466Y-90645534D03*
%TO.N,/LattePanda Module/HSIO_3_RX+*%
X124864466Y-95985534D03*
X116884466Y-69556131D03*
%TO.N,/USB 2.0 & 3.0/CON_USB3_SSRX_N*%
X118963869Y-96535534D03*
X99548921Y-118685534D03*
X106360078Y-109885534D03*
%TO.N,/~{PLT_RST}*%
X143624466Y-104175534D03*
X137034466Y-108595534D03*
X117754466Y-106145534D03*
%TO.N,/Gigabit Ethernet/GbE_PCIe_CLK+*%
X140764466Y-92035534D03*
X138364466Y-105385534D03*
D33*
%TO.N,/LattePanda Module/USB2_P7-*%
X132919050Y-97237259D03*
D32*
X127134466Y-60965534D03*
%TO.N,/GPIO/I2C2_SCL*%
X157944466Y-91245534D03*
%TO.N,/GPIO/I2C4_SCL*%
X155934466Y-91285534D03*
X155234466Y-53635534D03*
%TO.N,/USB 2.0 & 3.0/CON_USB4_SSRX_P*%
X126314466Y-104110534D03*
%TO.N,/LattePanda Module/~{PWR_SW}*%
X83654466Y-108625534D03*
X110694466Y-102265534D03*
%TO.N,/USB 2.0 & 3.0/CON_USB2_D_N*%
X135764466Y-106285534D03*
X153889466Y-106860534D03*
%TO.N,/LattePanda Module/REFCLK0+*%
X109474466Y-98265534D03*
X113194466Y-95315534D03*
%TO.N,/GPIO/SOC_UART2_RX*%
X164314466Y-47595534D03*
X152375000Y-95405000D03*
%TO.N,/LattePanda Module/SLS_S3*%
X106994466Y-99985534D03*
X106994466Y-84135534D03*
%TO.N,/GPIO/I2C4_SDA*%
X155854466Y-57685534D03*
X155954466Y-89885534D03*
%TO.N,/USB 2.0 & 3.0/CON_USB3_D_N*%
X128714466Y-100660534D03*
X128739466Y-106535534D03*
%TO.N,/Fan/FAN_1_PWM*%
X117914466Y-77365534D03*
X117844466Y-92155534D03*
%TO.N,/GPIO/I2C3_SCL*%
X155824466Y-53235534D03*
X156834466Y-91305534D03*
%TO.N,/LattePanda Module/SUSCLK_WIFI*%
X91744466Y-70495534D03*
X143994466Y-73415534D03*
X109719466Y-72230534D03*
X90364466Y-98585534D03*
X150114466Y-100875534D03*
%TO.N,/LattePanda Module/REFCLK3-*%
X137514466Y-96761889D03*
X133044466Y-71885534D03*
%TO.N,/Gigabit Ethernet/GbE_PCIe_TX-*%
X134214466Y-100610534D03*
X139234466Y-103575534D03*
%TO.N,/~{WAKE}*%
X98364466Y-97885534D03*
X103034466Y-73235534D03*
X142354466Y-74855534D03*
X143104466Y-100025534D03*
%TO.N,/GPIO/SOC_UART0_TX*%
X165444466Y-52085534D03*
X164094466Y-97045534D03*
%TO.N,/~{PWR_LED{slash}PSON}*%
X188914466Y-116395534D03*
X197294466Y-81435534D03*
X186614466Y-62385534D03*
X108404466Y-82045534D03*
X190234466Y-76935534D03*
X108404466Y-100005534D03*
%TO.N,/USB 2.0 & 3.0/CON_USB3_SSRX_P*%
X106289466Y-109260534D03*
X118971668Y-95903332D03*
X99014466Y-118585534D03*
%TO.N,/HDMI/DDI_B_HPD*%
X160981433Y-109152501D03*
X162714466Y-107285534D03*
%TO.N,Net-(A1-SIO_UART_TX)*%
X120934466Y-90425534D03*
X112864466Y-58255534D03*
%TO.N,/GPIO/GPP_D0*%
X149354466Y-91295534D03*
X149294466Y-56595534D03*
%TO.N,/Gigabit Ethernet/GbE_PCIe_CLK-*%
X137714466Y-105435534D03*
X141464466Y-91985534D03*
%TO.N,/Fan/FAN_1_TAC*%
X118364466Y-78265534D03*
X118344406Y-92196345D03*
D33*
%TO.N,/LattePanda Module/USB2_P7+*%
X133520092Y-96636217D03*
D32*
X127114466Y-59995534D03*
%TO.N,/Gigabit Ethernet/GbE_PCIe_RX+*%
X130539466Y-92035534D03*
X130539466Y-105660534D03*
%TO.N,/Gigabit Ethernet/GbE_PCIe_TX+*%
X140024466Y-103565534D03*
X134288869Y-99910534D03*
%TO.N,/LattePanda Module/REFCLK3+*%
X133094466Y-71075534D03*
X138014466Y-96260534D03*
%TO.N,Net-(A1-~{BIOS_SEL})*%
X150554466Y-99965534D03*
X148394466Y-87405534D03*
%TO.N,/USB 2.0 & 3.0/CON_USB2_D_P*%
X136414466Y-106285534D03*
X153464466Y-106435534D03*
%TO.N,/GPIO/I2C3_SDA*%
X157384466Y-49205534D03*
X157374466Y-90855534D03*
%TO.N,/GPIO/SOC_UART1_RX*%
X159624466Y-97585534D03*
X163729656Y-47281213D03*
%TO.N,/LattePanda Module/HSIO_3_TX+*%
X110274466Y-68065534D03*
X122189466Y-105485534D03*
%TO.N,/GPIO/SOC_UART0_RX*%
X163224466Y-46725534D03*
X157054466Y-96645534D03*
%TO.N,/GPIO/GPP_D1*%
X150304466Y-91175534D03*
X148004466Y-55275534D03*
%TO.N,/Gigabit Ethernet/GbE_PCIe_RX-*%
X129995063Y-92074608D03*
X129914466Y-105710534D03*
%TO.N,/LattePanda Module/HSIO_3_TX-*%
X110274466Y-68845534D03*
X121714466Y-105985534D03*
%TO.N,/GPIO/SOC_UART1_TX*%
X163044466Y-98075534D03*
X162934466Y-56225534D03*
%TO.N,Net-(A1-SIO_UART_RX)*%
X121514466Y-90425534D03*
X114394466Y-58855534D03*
%TO.N,+BATT*%
X147274466Y-100335534D03*
X156364466Y-105666165D03*
%TO.N,/USB 2.0 & 3.0/CON_USB4_D_N*%
X102433869Y-115585534D03*
%TO.N,/GPIO/GPP_D2*%
X146644466Y-55695534D03*
X151394466Y-90335534D03*
%TO.N,/LattePanda Module/REFCLK0-*%
X109454466Y-97475534D03*
X113284466Y-94385534D03*
%TO.N,/USB 2.0 & 3.0/CON_USB3_D_P*%
X128114466Y-100660534D03*
X128139466Y-106510534D03*
%TO.N,/GPIO/SOC_UART2_TX*%
X165464466Y-88155534D03*
X166254466Y-53655534D03*
%TO.N,/LattePanda Module/~{RST_SW}*%
X118114466Y-103725534D03*
X87184466Y-110755534D03*
%TO.N,/USB 2.0 & 3.0/CON_USB4_SSRX_N*%
X126989466Y-104135534D03*
%TO.N,/GPIO/I2C2_SDA*%
X158764466Y-91575534D03*
X158444466Y-48695534D03*
%TO.N,/GPIO/GPP_D3*%
X152419466Y-57900534D03*
X152794466Y-88255534D03*
%TO.N,/LattePanda Module/HSIO_3_RX-*%
X116924466Y-70345534D03*
X124839466Y-96610534D03*
%TO.N,/GPIO/I2C5_SCL*%
X154394466Y-54005534D03*
X152998400Y-92391297D03*
%TO.N,+3V3*%
X141812497Y-104035534D03*
X199054466Y-48715534D03*
X203024466Y-39545534D03*
X143104466Y-113375534D03*
X130324466Y-112605534D03*
X199654466Y-48065534D03*
X202261966Y-43088867D03*
X204206966Y-38085534D03*
X201414466Y-49315534D03*
X170604466Y-116945534D03*
X94064466Y-87985534D03*
X94064466Y-76485534D03*
X202321966Y-46655534D03*
X94064466Y-75135534D03*
X94064466Y-87385534D03*
X94064466Y-89865534D03*
X154924466Y-128965534D03*
X199064466Y-48065534D03*
X202951966Y-38095534D03*
X200244466Y-48065534D03*
X199644466Y-49315534D03*
X202351966Y-39522201D03*
X204834466Y-38695534D03*
X202344466Y-38808867D03*
X94064466Y-88485534D03*
X202014466Y-48065534D03*
X94064466Y-58385534D03*
X203004466Y-41715534D03*
X200824466Y-48715534D03*
X165584466Y-116945534D03*
X202314466Y-44515534D03*
X202944466Y-45931534D03*
X202944466Y-46665534D03*
X202966966Y-38705534D03*
X202321966Y-45942201D03*
X94064466Y-83385534D03*
X202261966Y-43802201D03*
X202351966Y-40948867D03*
X204211966Y-38695534D03*
X94064466Y-86285534D03*
X201414466Y-48715534D03*
X154984466Y-130575534D03*
X199074466Y-49915534D03*
X203579466Y-38085534D03*
X202944466Y-45197534D03*
X200844466Y-49915534D03*
X200254466Y-49915534D03*
X203044466Y-40965534D03*
X202004466Y-49315534D03*
X199644466Y-48715534D03*
X200234466Y-48715534D03*
X204834466Y-38085534D03*
X202321966Y-45228867D03*
X202024466Y-49915534D03*
X200824466Y-49315534D03*
X203024466Y-40235534D03*
X202884466Y-43729534D03*
X202984466Y-42405534D03*
X202974466Y-44463534D03*
X199054466Y-49315534D03*
X202301966Y-41662201D03*
X159894466Y-116945534D03*
X202004466Y-48715534D03*
X202301966Y-42375534D03*
X200834466Y-48065534D03*
X201424466Y-48065534D03*
X94064466Y-88985534D03*
X94064466Y-105085534D03*
X203589466Y-38695534D03*
X94064466Y-102085534D03*
X202351966Y-40235534D03*
X200234466Y-49315534D03*
X202324466Y-38095534D03*
X94064466Y-61185534D03*
X199664466Y-49915534D03*
X94064466Y-79485534D03*
X201434466Y-49915534D03*
X202944466Y-43105534D03*
%TO.N,5V_HDMI_VCC*%
X162964466Y-122135534D03*
X167914466Y-122135534D03*
%TO.N,+5V*%
X82084466Y-128425534D03*
X81604466Y-122165534D03*
X193454466Y-127835534D03*
X191894466Y-120555534D03*
X82084466Y-129035534D03*
X191084466Y-128375534D03*
X202088258Y-64684462D03*
X191854466Y-121345534D03*
X190334466Y-124935534D03*
X81304466Y-130915534D03*
X82774466Y-130305534D03*
X80874466Y-122155534D03*
X81604466Y-123435534D03*
X191104466Y-126435534D03*
X201244466Y-61127201D03*
X202014466Y-66095534D03*
X192674466Y-127165534D03*
X191894466Y-118455534D03*
X82384466Y-121575534D03*
X193454466Y-119865534D03*
X190334466Y-119815534D03*
X200464466Y-66985534D03*
X201224466Y-60415534D03*
X201444466Y-68975534D03*
X193474466Y-128985534D03*
X200504466Y-70735534D03*
X193454466Y-120575534D03*
X190304466Y-128365534D03*
X201414466Y-68263867D03*
X193454466Y-119175534D03*
X80574466Y-128395534D03*
X202168258Y-67544462D03*
X81304466Y-130285534D03*
X200484466Y-68405534D03*
X192664466Y-126455534D03*
X192644466Y-128395534D03*
X83074466Y-122185534D03*
X191914466Y-128965534D03*
X81604466Y-121555534D03*
X192674466Y-127815534D03*
X201284466Y-62550534D03*
X202724466Y-60415534D03*
X192674466Y-120555534D03*
X199484466Y-66985534D03*
X83474466Y-129015534D03*
X192694466Y-128965534D03*
X191114466Y-127795534D03*
X191114466Y-119135534D03*
X190274466Y-121985534D03*
X191084466Y-121315534D03*
X200494466Y-69255534D03*
X83074466Y-121575534D03*
X202124466Y-68225534D03*
X201934466Y-61135534D03*
X191114466Y-119825534D03*
X199804466Y-70715534D03*
X82384466Y-122845534D03*
X201264466Y-63262201D03*
X201884466Y-60435534D03*
X201954466Y-62535534D03*
X191114466Y-127145534D03*
X190334466Y-127785534D03*
X190304466Y-121305534D03*
X191864466Y-128395534D03*
X191894466Y-127165534D03*
X202034466Y-65395534D03*
X200484466Y-67795534D03*
X202198258Y-68974462D03*
X201934466Y-63235534D03*
X192674466Y-119845534D03*
X201344466Y-66122201D03*
X203599466Y-60410534D03*
X80874466Y-121545534D03*
X192674466Y-118455534D03*
X82384466Y-123455534D03*
X202094466Y-66795534D03*
X82384466Y-122185534D03*
X81304466Y-129015534D03*
X80874466Y-122815534D03*
X81304466Y-128405534D03*
X199984466Y-66975534D03*
X200504466Y-69975534D03*
X199754466Y-69935534D03*
X83474466Y-129675534D03*
X163514466Y-127705534D03*
X193454466Y-118475534D03*
X202014466Y-63935534D03*
X83474466Y-130915534D03*
X193454466Y-127185534D03*
X83474466Y-128435534D03*
X199734466Y-69255534D03*
X82774466Y-130935534D03*
X191134466Y-128945534D03*
X201304466Y-63973867D03*
X191894466Y-119155534D03*
X82774466Y-129035534D03*
X190324466Y-126425534D03*
X190334466Y-118425534D03*
X82774466Y-128425534D03*
X193424466Y-128415534D03*
X201384466Y-66833867D03*
X191054466Y-121995534D03*
X82084466Y-130935534D03*
X80574466Y-130275534D03*
X80574466Y-130905534D03*
X191854466Y-125775534D03*
X191894466Y-127815534D03*
X191894466Y-119845534D03*
X82084466Y-129695534D03*
X191114466Y-124945534D03*
X191884466Y-126455534D03*
X82774466Y-129695534D03*
X191024466Y-122565534D03*
X191114466Y-120535534D03*
X191114466Y-118435534D03*
X201244466Y-61838867D03*
X199984466Y-68395534D03*
X81304466Y-129675534D03*
X201364466Y-65410534D03*
X199974466Y-67785534D03*
X201934466Y-61835534D03*
X83074466Y-123455534D03*
X80574466Y-129665534D03*
X190334466Y-120525534D03*
X190334466Y-127135534D03*
X192674466Y-119155534D03*
X190354466Y-128935534D03*
X80874466Y-123425534D03*
X201334466Y-64685534D03*
X190244466Y-122555534D03*
X193444466Y-126475534D03*
X83074466Y-122845534D03*
X81604466Y-122825534D03*
X201414466Y-67545534D03*
X190334466Y-119125534D03*
X190294466Y-125745534D03*
X199484466Y-68405534D03*
X80574466Y-129005534D03*
X83474466Y-130285534D03*
X191074466Y-125755534D03*
X82084466Y-130305534D03*
%TO.N,+1V0*%
X143674466Y-106795534D03*
X144234680Y-109788982D03*
X136314466Y-110093134D03*
X131884466Y-110275534D03*
X154855466Y-108820534D03*
X137454466Y-112695534D03*
X153864466Y-108820534D03*
X140699465Y-112249119D03*
%TO.N,/Power Supply/PWR_C_D-*%
X229519466Y-77145534D03*
X232619466Y-79595534D03*
%TO.N,/Power Supply/PWR_C_D+*%
X232619466Y-78945534D03*
X229519466Y-77795534D03*
%TO.N,+15V*%
X228269466Y-75270534D03*
X228369466Y-82420534D03*
X227644466Y-75270534D03*
X228269466Y-74670534D03*
X227744466Y-81170534D03*
X227119466Y-82420534D03*
X228369466Y-81820534D03*
X227119466Y-81170534D03*
X227644466Y-74670534D03*
X227744466Y-82420534D03*
X227744466Y-81820534D03*
X227019466Y-75270534D03*
X228369466Y-81170534D03*
X227644466Y-76370534D03*
X227019466Y-75820534D03*
X227119466Y-81820534D03*
X228269466Y-76370534D03*
X228269466Y-75820534D03*
X227019466Y-74670534D03*
X227644466Y-75820534D03*
X227019466Y-76370534D03*
%TO.N,/Power Supply/CC2*%
X233669466Y-77620534D03*
X216669466Y-76970534D03*
%TO.N,Net-(U6-LED1)*%
X139034466Y-112895534D03*
%TO.N,Net-(U6-LED2)*%
X138259466Y-112880534D03*
%TO.N,Net-(Q4-D)*%
X175164466Y-118785534D03*
X180514466Y-118785534D03*
X181564466Y-118785534D03*
X183124466Y-118795534D03*
X178914466Y-118785534D03*
X177814466Y-118785534D03*
X183914466Y-118795534D03*
X173464466Y-118785534D03*
X176164466Y-118785534D03*
%TO.N,/Power Supply/PWR_EN*%
X216604466Y-50075534D03*
X214584466Y-49935534D03*
%TO.N,/Power Supply/CC1*%
X216243166Y-78055482D03*
X224864466Y-79955534D03*
%TD*%
D34*
%TO.N,/LattePanda Module/REFCLK0-*%
X112753183Y-94686817D02*
X113054466Y-94385534D01*
X110615749Y-95423933D02*
X111352865Y-94686817D01*
X110002865Y-97736817D02*
X110615749Y-97123933D01*
X109454466Y-97475534D02*
X109454466Y-97476131D01*
X111352865Y-94686817D02*
X112753183Y-94686817D01*
X109715152Y-97736817D02*
X110002865Y-97736817D01*
X110615749Y-97123933D02*
X110615749Y-95423933D01*
X113054466Y-94385534D02*
X113284466Y-94385534D01*
X109454466Y-97476131D02*
X109715152Y-97736817D01*
%TO.N,/LattePanda Module/REFCLK0+*%
X113104466Y-95315534D02*
X113194466Y-95315534D01*
X112773183Y-94984251D02*
X113104466Y-95315534D01*
X111476067Y-94984251D02*
X112773183Y-94984251D01*
X110913183Y-95547135D02*
X111476067Y-94984251D01*
X110913183Y-97247135D02*
X110913183Y-95547135D01*
X109483869Y-98265534D02*
X109715152Y-98034251D01*
X109474466Y-98265534D02*
X109483869Y-98265534D01*
X109715152Y-98034251D02*
X110126067Y-98034251D01*
X110126067Y-98034251D02*
X110913183Y-97247135D01*
D35*
%TO.N,/LattePanda Module/USB2_P7-*%
X132919050Y-96954416D02*
X132919050Y-97237259D01*
X131739466Y-95774832D02*
X132919050Y-96954416D01*
X131739466Y-64278732D02*
X131739466Y-95774832D01*
X128171268Y-60710534D02*
X131739466Y-64278732D01*
X127389465Y-60710535D02*
X128171267Y-60710535D01*
X128171267Y-60710535D02*
X128171268Y-60710534D01*
X127134466Y-60965534D02*
X127389465Y-60710535D01*
%TO.N,/LattePanda Module/USB2_P7+*%
X132189466Y-95588434D02*
X133237249Y-96636217D01*
X132189466Y-64092336D02*
X132189466Y-95588434D01*
X128357663Y-60260533D02*
X132189466Y-64092336D01*
X133237249Y-96636217D02*
X133520092Y-96636217D01*
X127114466Y-59995534D02*
X127379465Y-60260533D01*
X127379465Y-60260533D02*
X128357663Y-60260533D01*
D34*
%TO.N,/LattePanda Module/HSIO_3_TX-*%
X121714466Y-105755265D02*
X121714466Y-105985534D01*
X119764466Y-103805265D02*
X121714466Y-105755265D01*
X119764466Y-76695852D02*
X119764466Y-103805265D01*
X111677865Y-68609251D02*
X119764466Y-76695852D01*
X110510749Y-68609251D02*
X111677865Y-68609251D01*
X110274466Y-68845534D02*
X110510749Y-68609251D01*
%TO.N,/LattePanda Module/HSIO_3_TX+*%
X110520749Y-68311817D02*
X111801067Y-68311817D01*
X111801067Y-68311817D02*
X112269705Y-68780455D01*
X110274466Y-68065534D02*
X110520749Y-68311817D01*
%TO.N,/LattePanda Module/HSIO_3_RX+*%
X124712622Y-96137378D02*
X124864466Y-95985534D01*
X122664466Y-95375216D02*
X123426628Y-96137378D01*
X123426628Y-96137378D02*
X124712622Y-96137378D01*
X122664466Y-73675216D02*
X122664466Y-95375216D01*
X118826067Y-69836817D02*
X122664466Y-73675216D01*
X116884466Y-69556131D02*
X117165152Y-69836817D01*
X117165152Y-69836817D02*
X118826067Y-69836817D01*
%TO.N,/LattePanda Module/HSIO_3_RX-*%
X124663744Y-96434812D02*
X124839466Y-96610534D01*
X123303426Y-96434812D02*
X124663744Y-96434812D01*
X116953869Y-70345534D02*
X117165152Y-70134251D01*
X117165152Y-70134251D02*
X118702865Y-70134251D01*
X122367032Y-73798418D02*
X122367032Y-95498418D01*
X122367032Y-95498418D02*
X123303426Y-96434812D01*
X116924466Y-70345534D02*
X116953869Y-70345534D01*
X118702865Y-70134251D02*
X122367032Y-73798418D01*
%TO.N,/LattePanda Module/REFCLK3-*%
X137514466Y-96445852D02*
X137514466Y-96761889D01*
X136915749Y-95847135D02*
X137514466Y-96445852D01*
X136915749Y-74447135D02*
X136915749Y-95847135D01*
X134102865Y-71634251D02*
X136915749Y-74447135D01*
X133365152Y-71634251D02*
X134102865Y-71634251D01*
X133044466Y-71885534D02*
X133113869Y-71885534D01*
X133113869Y-71885534D02*
X133365152Y-71634251D01*
%TO.N,/LattePanda Module/REFCLK3+*%
X137749784Y-96260534D02*
X138014466Y-96260534D01*
X137213183Y-95723933D02*
X137749784Y-96260534D01*
X137213183Y-74323933D02*
X137213183Y-95723933D01*
X133103869Y-71075534D02*
X133365152Y-71336817D01*
X133094466Y-71075534D02*
X133103869Y-71075534D01*
X133365152Y-71336817D02*
X134226067Y-71336817D01*
X134226067Y-71336817D02*
X137213183Y-74323933D01*
%TO.N,/Gigabit Ethernet/GbE_PCIe_TX+*%
X134490152Y-100111817D02*
X134288869Y-99910534D01*
X137651067Y-100111817D02*
X134490152Y-100111817D01*
X139767806Y-102228556D02*
X137651067Y-100111817D01*
X140017797Y-103565534D02*
X139767806Y-103315543D01*
X139767806Y-103315543D02*
X139767806Y-102228556D01*
X140024466Y-103565534D02*
X140017797Y-103565534D01*
%TO.N,/Gigabit Ethernet/GbE_PCIe_TX-*%
X139470372Y-102351758D02*
X138634307Y-101515693D01*
X139470372Y-103201721D02*
X139470372Y-102351758D01*
X139465749Y-103206344D02*
X139470372Y-103201721D01*
X139465749Y-103344251D02*
X139465749Y-103206344D01*
X139234466Y-103575534D02*
X139465749Y-103344251D01*
D36*
%TO.N,/Power Supply/CC1*%
X219143218Y-80955534D02*
X216243166Y-78055482D01*
X223864466Y-80955534D02*
X219143218Y-80955534D01*
X224864466Y-79955534D02*
X223864466Y-80955534D01*
%TO.N,/LattePanda Module/SUSCLK_WIFI*%
X91904466Y-70285534D02*
X91644466Y-70545534D01*
X107774466Y-70285534D02*
X91904466Y-70285534D01*
X109719466Y-72230534D02*
X107774466Y-70285534D01*
%TO.N,/GPIO/I2C5_SCL*%
X154394466Y-90695534D02*
X154394466Y-54005534D01*
X152998400Y-92391297D02*
X153114466Y-92275231D01*
X153114466Y-91975534D02*
X154394466Y-90695534D01*
X153114466Y-92275231D02*
X153114466Y-91975534D01*
%TO.N,/Power Supply/CC2*%
X229209466Y-76620534D02*
X232669466Y-76620534D01*
X228694466Y-77135534D02*
X229209466Y-76620534D01*
X216834466Y-77135534D02*
X228694466Y-77135534D01*
X216669466Y-76970534D02*
X216834466Y-77135534D01*
X232669466Y-76620534D02*
X233669466Y-77620534D01*
%TO.N,/GPIO/I2C2_SCL*%
X158494466Y-90695534D02*
X157944466Y-91245534D01*
X158254466Y-54315534D02*
X158494466Y-54555534D01*
X158194466Y-54315534D02*
X158254466Y-54315534D01*
X158124466Y-54245534D02*
X158194466Y-54315534D01*
X158494466Y-54555534D02*
X158494466Y-90695534D01*
%TO.N,/GPIO/I2C3_SDA*%
X157594466Y-49415534D02*
X157384466Y-49205534D01*
X157594466Y-90635534D02*
X157594466Y-49415534D01*
X157374466Y-90855534D02*
X157594466Y-90635534D01*
D37*
%TO.N,/Gigabit Ethernet/MDI3+*%
X145232927Y-120518995D02*
X145309466Y-120595534D01*
%TO.N,/Gigabit Ethernet/MDI1-*%
X148354466Y-113725534D02*
X148474466Y-113605534D01*
X146985407Y-115606475D02*
X148354466Y-114237416D01*
X148354466Y-114237416D02*
X148354466Y-113725534D01*
X143732447Y-115820073D02*
X143825447Y-115727073D01*
X143732447Y-116369744D02*
X143732447Y-115820073D01*
X141655447Y-116462756D02*
X141779447Y-116462756D01*
X143515447Y-116462744D02*
X143639447Y-116462744D01*
X143639447Y-116462744D02*
X143732447Y-116369744D01*
X143422447Y-115820073D02*
X143422447Y-116369744D01*
X143205447Y-115727073D02*
X143329447Y-115727073D01*
X143112447Y-115820073D02*
X143205447Y-115727073D01*
X143112447Y-116369756D02*
X143112447Y-115820073D01*
X142275447Y-116462756D02*
X142399447Y-116462756D01*
X141965447Y-115727073D02*
X142089447Y-115727073D01*
X140472545Y-117028613D02*
X140472545Y-116129337D01*
X141469447Y-115727073D02*
X141562447Y-115820073D01*
X142492447Y-116369756D02*
X142492447Y-115820073D01*
X143329447Y-115727073D02*
X143422447Y-115820073D01*
X142182447Y-116369756D02*
X142275447Y-116462756D01*
X142089447Y-115727073D02*
X142182447Y-115820073D01*
X141779447Y-116462756D02*
X141872447Y-116369756D01*
X141562447Y-115820073D02*
X141562447Y-116369756D01*
X140874809Y-115727073D02*
X141469447Y-115727073D01*
X141499466Y-118055534D02*
X140472545Y-117028613D01*
X141562447Y-116369756D02*
X141655447Y-116462756D01*
X141872447Y-116369756D02*
X141872447Y-115820073D01*
X143019447Y-116462756D02*
X143112447Y-116369756D01*
X142492447Y-115820073D02*
X142585447Y-115727073D01*
X142802447Y-115820073D02*
X142802447Y-116369756D01*
X142399447Y-116462756D02*
X142492447Y-116369756D01*
X143422447Y-116369744D02*
X143515447Y-116462744D01*
X142802447Y-116369756D02*
X142895447Y-116462756D01*
X142895447Y-116462756D02*
X143019447Y-116462756D01*
X142709447Y-115727073D02*
X142802447Y-115820073D01*
X142585447Y-115727073D02*
X142709447Y-115727073D01*
X142182447Y-115820073D02*
X142182447Y-116369756D01*
X140472545Y-116129337D02*
X140874809Y-115727073D01*
X141872447Y-115820073D02*
X141965447Y-115727073D01*
X146864809Y-115727073D02*
X146985407Y-115606475D01*
X143825447Y-115727073D02*
X146864809Y-115727073D01*
D34*
%TO.N,/USB 2.0 & 3.0/CON_USB4_D_P*%
X102299528Y-116094251D02*
X97796067Y-116094251D01*
X102400214Y-116194937D02*
X102299528Y-116094251D01*
X97796067Y-116094251D02*
X96809625Y-117080693D01*
%TO.N,/USB 2.0 & 3.0/CON_USB4_D_N*%
X94904466Y-121265534D02*
X94904466Y-123315534D01*
X95755749Y-120414251D02*
X94904466Y-121265534D01*
X95755749Y-117713933D02*
X95755749Y-120414251D01*
X97672865Y-115796817D02*
X95755749Y-117713933D01*
X102339466Y-115585534D02*
X102128183Y-115796817D01*
X102128183Y-115796817D02*
X97672865Y-115796817D01*
X102433869Y-115585534D02*
X102339466Y-115585534D01*
%TO.N,/USB 2.0 & 3.0/CON_USB3_SSTX_P*%
X92755749Y-124098329D02*
X92755749Y-124164251D01*
X92755749Y-122532739D02*
X93206380Y-122983370D01*
X92755749Y-124164251D02*
X91904466Y-125015534D01*
X92755749Y-120417135D02*
X92755749Y-122532739D01*
X91755749Y-118203933D02*
X91755749Y-119417135D01*
X91755749Y-119417135D02*
X92755749Y-120417135D01*
X93206380Y-122983370D02*
X93206380Y-123647698D01*
X93206380Y-123647698D02*
X92755749Y-124098329D01*
%TO.N,/USB 2.0 & 3.0/CON_USB3_SSTX_N*%
X93083223Y-124194291D02*
X93904466Y-125015534D01*
X93505794Y-122859348D02*
X93505794Y-123771719D01*
X93505794Y-123771719D02*
X93083223Y-124194291D01*
X93055163Y-122408717D02*
X93505794Y-122859348D01*
X93055163Y-120293113D02*
X93055163Y-122408717D01*
X92053183Y-119291133D02*
X93055163Y-120293113D01*
X92053183Y-118646817D02*
X92053183Y-119291133D01*
X92294466Y-118405534D02*
X92053183Y-118646817D01*
D38*
%TO.N,VDC*%
X209589466Y-78660534D02*
X213954466Y-74295534D01*
X219739466Y-91810534D02*
X214889466Y-91810534D01*
X214889466Y-91810534D02*
X209589466Y-86510534D01*
X181964466Y-91545534D02*
X185124466Y-91545534D01*
X185877534Y-104985534D02*
X185354466Y-104985534D01*
X187314466Y-93735534D02*
X187314466Y-103548602D01*
X209589466Y-86510534D02*
X209589466Y-78660534D01*
X185334466Y-104965534D02*
X183184466Y-104965534D01*
X211274466Y-67095534D02*
X211274466Y-63395534D01*
X178814466Y-88395534D02*
X181964466Y-91545534D01*
X207861866Y-58502934D02*
X184857066Y-58502934D01*
X211274466Y-63395534D02*
X211274466Y-61915534D01*
X184857066Y-58502934D02*
X178814466Y-64545534D01*
X211274466Y-61915534D02*
X207861866Y-58502934D01*
X213954466Y-74295534D02*
X213954466Y-68575534D01*
X185124466Y-91545534D02*
X187314466Y-93735534D01*
X187314466Y-103548602D02*
X185877534Y-104985534D01*
X185354466Y-104985534D02*
X185334466Y-104965534D01*
X178814466Y-64545534D02*
X178814466Y-88395534D01*
D36*
%TO.N,/GPIO/I2C5_SDA*%
X153324466Y-49205534D02*
X153324466Y-90565534D01*
X153324466Y-90565534D02*
X153404466Y-90645534D01*
D34*
%TO.N,/USB 2.0 & 3.0/CON_USB3_SSRX_N*%
X99053183Y-124098329D02*
X99053183Y-124164251D01*
X98602552Y-123647698D02*
X99053183Y-124098329D01*
X99548921Y-118685534D02*
X99548921Y-118851397D01*
X99053183Y-122532739D02*
X98602552Y-122983370D01*
X118839466Y-96535534D02*
X118963869Y-96535534D01*
X99053183Y-124164251D02*
X99904466Y-125015534D01*
X99053183Y-119347135D02*
X99053183Y-122532739D01*
X106360078Y-109885534D02*
X106551361Y-109694251D01*
X118668183Y-96364251D02*
X118839466Y-96535534D01*
X99548921Y-118851397D02*
X99053183Y-119347135D01*
X112173183Y-100727135D02*
X116536067Y-96364251D01*
X98602552Y-122983370D02*
X98602552Y-123647698D01*
X110466067Y-109694251D02*
X112173183Y-107987135D01*
X106551361Y-109694251D02*
X110466067Y-109694251D01*
X112173183Y-107987135D02*
X112173183Y-100727135D01*
X116536067Y-96364251D02*
X118668183Y-96364251D01*
D36*
%TO.N,/~{PLT_RST}*%
X142434466Y-107105534D02*
X143624466Y-105915534D01*
X137034466Y-105805534D02*
X137034466Y-108595534D01*
X137034466Y-108595534D02*
X140944466Y-108595534D01*
X118974466Y-106055534D02*
X120494466Y-107575534D01*
X136334466Y-105105534D02*
X137034466Y-105805534D01*
X130874466Y-107575534D02*
X133344466Y-105105534D01*
X133344466Y-105105534D02*
X136334466Y-105105534D01*
X117754466Y-106145534D02*
X117844466Y-106055534D01*
X143624466Y-105915534D02*
X143624466Y-104175534D01*
X120494466Y-107575534D02*
X130874466Y-107575534D01*
X140944466Y-108595534D02*
X142434466Y-107105534D01*
X117844466Y-106055534D02*
X118974466Y-106055534D01*
D34*
%TO.N,/Gigabit Ethernet/GbE_PCIe_CLK+*%
X139584001Y-106796817D02*
X140542865Y-106796817D01*
X138364466Y-105385534D02*
X138364466Y-105454937D01*
X138213183Y-106263933D02*
X138290887Y-106341637D01*
X139346067Y-106558883D02*
X139584001Y-106796817D01*
X140777787Y-103685971D02*
X140777787Y-103323933D01*
X138213183Y-105606220D02*
X138213183Y-106263933D01*
X140777815Y-104885999D02*
X140777815Y-104523933D01*
X140777815Y-105723933D02*
X141015749Y-105485999D01*
X138746067Y-106796817D02*
X138984001Y-106558883D01*
X141015749Y-106323933D02*
X140777815Y-106085999D01*
X140777815Y-104523933D02*
X141015749Y-104285999D01*
X140835597Y-92035534D02*
X140976283Y-92176220D01*
X141015749Y-103923933D02*
X140777787Y-103685971D01*
X141015749Y-105485999D02*
X141015749Y-105123933D01*
X141015749Y-101885971D02*
X141015749Y-100959550D01*
X140976283Y-95546068D02*
X141015749Y-95585534D01*
X138364466Y-105454937D02*
X138213183Y-105606220D01*
X140777815Y-106085999D02*
X140777815Y-105723933D01*
X140542865Y-106796817D02*
X141002484Y-106337197D01*
X141015749Y-105123933D02*
X140777815Y-104885999D01*
X140777787Y-102123933D02*
X141015749Y-101885971D01*
X141002484Y-106337197D02*
X141015749Y-106323933D01*
X141015749Y-104285999D02*
X141015749Y-103923933D01*
X138290887Y-106341637D02*
X138746067Y-106796817D01*
X140976283Y-92176220D02*
X140976283Y-95546068D01*
X141015749Y-95585534D02*
X141015749Y-100959550D01*
X140777787Y-102485971D02*
X140777787Y-102123933D01*
X140777787Y-103323933D02*
X141015749Y-103085971D01*
X140764466Y-92035534D02*
X140835597Y-92035534D01*
X141015749Y-102723933D02*
X140777787Y-102485971D01*
X138984001Y-106558883D02*
X139346067Y-106558883D01*
X141015749Y-103085971D02*
X141015749Y-102723933D01*
D36*
%TO.N,/GPIO/I2C4_SCL*%
X155234466Y-90585534D02*
X155934466Y-91285534D01*
X155234466Y-53635534D02*
X155234466Y-90585534D01*
D39*
%TO.N,/LattePanda Module/~{PWR_SW}*%
X103504466Y-108625534D02*
X109864466Y-102265534D01*
X109864466Y-102265534D02*
X110694466Y-102265534D01*
X83654466Y-108625534D02*
X103504466Y-108625534D01*
D34*
%TO.N,/USB 2.0 & 3.0/CON_USB2_D_N*%
X144216067Y-107444251D02*
X141686067Y-109974251D01*
X153889466Y-106860534D02*
X153709784Y-106860534D01*
X135955749Y-106476817D02*
X135764466Y-106285534D01*
X153709784Y-106860534D02*
X153126067Y-107444251D01*
X141686067Y-109974251D02*
X137042865Y-109974251D01*
X153126067Y-107444251D02*
X144216067Y-107444251D01*
X135955749Y-108887135D02*
X135955749Y-106476817D01*
X137042865Y-109974251D02*
X135955749Y-108887135D01*
D36*
%TO.N,/GPIO/SOC_UART2_RX*%
X161954466Y-49955534D02*
X161954466Y-96015534D01*
X164314466Y-47595534D02*
X161954466Y-49955534D01*
X152375000Y-96206068D02*
X152375000Y-95405000D01*
X159506866Y-98463134D02*
X154632066Y-98463134D01*
X154632066Y-98463134D02*
X152375000Y-96206068D01*
X161954466Y-96015534D02*
X159506866Y-98463134D01*
%TO.N,/LattePanda Module/SLS_S3*%
X106994466Y-99985534D02*
X106994466Y-84135534D01*
%TO.N,/GPIO/I2C4_SDA*%
X155854466Y-57685534D02*
X155854466Y-89785534D01*
X155854466Y-89785534D02*
X155954466Y-89885534D01*
D34*
%TO.N,/USB 2.0 & 3.0/CON_USB3_D_N*%
X128573183Y-106369251D02*
X128739466Y-106535534D01*
X128573183Y-100801817D02*
X128573183Y-106369251D01*
X128714466Y-100660534D02*
X128573183Y-100801817D01*
D36*
%TO.N,/Fan/FAN_1_PWM*%
X117844466Y-92155534D02*
X117844466Y-77435534D01*
X117844466Y-77435534D02*
X117914466Y-77365534D01*
%TO.N,/GPIO/I2C3_SCL*%
X155824466Y-53235534D02*
X156834466Y-54245534D01*
X156834466Y-54245534D02*
X156834466Y-91305534D01*
%TO.N,/LattePanda Module/SUSCLK_WIFI*%
X143994466Y-73415534D02*
X144064466Y-73485534D01*
X147324466Y-76685534D02*
X147824466Y-77185534D01*
X90364466Y-98585534D02*
X90364466Y-71875534D01*
X150114466Y-100365534D02*
X150114466Y-100875534D01*
X90364466Y-71875534D02*
X91744466Y-70495534D01*
X147824466Y-77185534D02*
X147824466Y-98075534D01*
X144064466Y-73485534D02*
X144094466Y-73485534D01*
X144094466Y-73485534D02*
X147284466Y-76675534D01*
X147824466Y-98075534D02*
X150114466Y-100365534D01*
D34*
%TO.N,/Gigabit Ethernet/GbE_PCIe_TX-*%
X137870049Y-100878810D02*
X137870050Y-100751436D01*
X137833501Y-101212573D02*
X137748583Y-101127655D01*
X138385450Y-101637171D02*
X138258076Y-101637172D01*
X138173158Y-101424878D02*
X138294636Y-101303397D01*
X134288869Y-100610534D02*
X134490152Y-100409251D01*
X134214466Y-100610534D02*
X134288869Y-100610534D01*
X138634307Y-101515693D02*
X138506931Y-101515693D01*
X138294636Y-101303397D02*
X138294637Y-101176023D01*
X137960875Y-101212572D02*
X137833501Y-101212573D01*
X138082344Y-101091106D02*
X137960875Y-101212572D01*
X137527865Y-100409251D02*
X134639466Y-100409251D01*
X138506931Y-101515693D02*
X138385450Y-101637171D01*
X137870050Y-100751436D02*
X137527865Y-100409251D01*
X137748583Y-101000279D02*
X137870049Y-100878810D01*
X138258076Y-101637172D02*
X138173158Y-101552254D01*
X138173158Y-101552254D02*
X138173158Y-101424878D01*
X134490152Y-100409251D02*
X134639466Y-100409251D01*
X137748583Y-101127655D02*
X137748583Y-101000279D01*
X138294637Y-101176023D02*
X138209720Y-101091106D01*
X138209720Y-101091106D02*
X138082344Y-101091106D01*
D36*
%TO.N,/~{WAKE}*%
X142354466Y-74855534D02*
X142354466Y-77845534D01*
X101334466Y-95165534D02*
X98614466Y-97885534D01*
X142434466Y-77925534D02*
X142434466Y-99355534D01*
X103034466Y-73235534D02*
X101604466Y-73235534D01*
X142354466Y-77845534D02*
X142434466Y-77925534D01*
X142434466Y-99355534D02*
X143104466Y-100025534D01*
X98614466Y-97885534D02*
X98364466Y-97885534D01*
X101334466Y-73505534D02*
X101334466Y-95165534D01*
X101604466Y-73235534D02*
X101334466Y-73505534D01*
%TO.N,/GPIO/SOC_UART0_TX*%
X164094466Y-97045534D02*
X164094466Y-53435534D01*
X164094466Y-53435534D02*
X165444466Y-52085534D01*
%TO.N,/~{PWR_LED{slash}PSON}*%
X186614466Y-62385534D02*
X186504466Y-62495534D01*
X108404466Y-100005534D02*
X108404466Y-82045534D01*
X188914466Y-101325534D02*
X188914466Y-116395534D01*
X186504466Y-62495534D02*
X186504466Y-73225534D01*
X197294466Y-92945534D02*
X188914466Y-101325534D01*
X190214466Y-76935534D02*
X190234466Y-76935534D01*
X186504466Y-73225534D02*
X190214466Y-76935534D01*
X197294466Y-81435534D02*
X197294466Y-92945534D01*
D34*
%TO.N,/USB 2.0 & 3.0/CON_USB3_SSRX_P*%
X98303138Y-123771719D02*
X98725709Y-124194291D01*
X111875749Y-100603933D02*
X116412865Y-96066817D01*
X118796668Y-95903332D02*
X118971668Y-95903332D01*
X106415078Y-109260534D02*
X106551361Y-109396817D01*
X116412865Y-96066817D02*
X118633183Y-96066817D01*
X118633183Y-96066817D02*
X118796668Y-95903332D01*
X106551361Y-109396817D02*
X110342865Y-109396817D01*
X106289466Y-109260534D02*
X106415078Y-109260534D01*
X111875749Y-107863933D02*
X111875749Y-100603933D01*
X98303138Y-122859348D02*
X98303138Y-123771719D01*
X99014466Y-118962416D02*
X98753769Y-119223113D01*
X98753769Y-119223113D02*
X98753769Y-122408717D01*
X110342865Y-109396817D02*
X111875749Y-107863933D01*
X98725709Y-124194291D02*
X97904466Y-125015534D01*
X99014466Y-118585534D02*
X99014466Y-118962416D01*
X98753769Y-122408717D02*
X98303138Y-122859348D01*
D36*
%TO.N,/HDMI/DDI_B_HPD*%
X162748400Y-107319468D02*
X162714466Y-107285534D01*
X160981433Y-109152501D02*
X162748400Y-107385534D01*
X162748400Y-107385534D02*
X162748400Y-107319468D01*
%TO.N,Net-(A1-SIO_UART_TX)*%
X114184466Y-59575534D02*
X114184466Y-69615534D01*
X114184466Y-69615534D02*
X120934466Y-76365534D01*
X112864466Y-58255534D02*
X114184466Y-59575534D01*
X120934466Y-76365534D02*
X120934466Y-90425534D01*
%TO.N,/GPIO/GPP_D0*%
X149294466Y-91235534D02*
X149354466Y-91295534D01*
X149294466Y-56595534D02*
X149294466Y-91235534D01*
D34*
%TO.N,/Gigabit Ethernet/GbE_PCIe_CLK-*%
X141464466Y-91985534D02*
X141464403Y-91985534D01*
X140666067Y-107094251D02*
X138622865Y-107094251D01*
X137915749Y-105606220D02*
X137745063Y-105435534D01*
X138622865Y-107094251D02*
X137915749Y-106387135D01*
X141313183Y-106447135D02*
X140666067Y-107094251D01*
X137915749Y-106387135D02*
X137915749Y-105606220D01*
X141464403Y-91985534D02*
X141273717Y-92176220D01*
X141313183Y-95471712D02*
X141313183Y-106447135D01*
X141273717Y-92176220D02*
X141273717Y-95432246D01*
X141273717Y-95432246D02*
X141313183Y-95471712D01*
X137745063Y-105435534D02*
X137714466Y-105435534D01*
D36*
%TO.N,/Fan/FAN_1_TAC*%
X118364466Y-78504587D02*
X118344406Y-78524647D01*
X118344406Y-78524647D02*
X118344406Y-92196345D01*
X118364466Y-78265534D02*
X118364466Y-78504587D01*
D34*
%TO.N,/Gigabit Ethernet/GbE_PCIe_RX+*%
X130790650Y-101420505D02*
X130610650Y-101240505D01*
X130610633Y-102440505D02*
X130573183Y-102440505D01*
X130573183Y-104240505D02*
X130610633Y-104240505D01*
X130610633Y-104240505D02*
X130790633Y-104060505D01*
X130573183Y-101840505D02*
X130610650Y-101840505D01*
X130573183Y-103040505D02*
X130610633Y-103040505D01*
X130393183Y-103220505D02*
X130573183Y-103040505D01*
X130573183Y-103640505D02*
X130393183Y-103460505D01*
X130539466Y-105660534D02*
X130393183Y-105514251D01*
X130573183Y-102440505D02*
X130393183Y-102260505D01*
X130393183Y-100820505D02*
X130573183Y-100640505D01*
X130393183Y-101060505D02*
X130393183Y-100820505D01*
X130539466Y-92145339D02*
X130393183Y-92291622D01*
X130610633Y-100640505D02*
X130790633Y-100460505D01*
X130393183Y-99860505D02*
X130393183Y-97545534D01*
X130790633Y-102860505D02*
X130790633Y-102620505D01*
X130790633Y-102620505D02*
X130610633Y-102440505D01*
X130393183Y-102020505D02*
X130573183Y-101840505D01*
X130393183Y-102260505D02*
X130393183Y-102020505D01*
X130610650Y-101840505D02*
X130790650Y-101660505D01*
X130790633Y-103820505D02*
X130610633Y-103640505D01*
X130393183Y-105514251D02*
X130393183Y-104420505D01*
X130393183Y-104420505D02*
X130573183Y-104240505D01*
X130393183Y-103460505D02*
X130393183Y-103220505D01*
X130790650Y-101660505D02*
X130790650Y-101420505D01*
X130790633Y-100460505D02*
X130790633Y-100220505D01*
X130573183Y-101240505D02*
X130393183Y-101060505D01*
X130573183Y-100640505D02*
X130610633Y-100640505D01*
X130610633Y-100040505D02*
X130573183Y-100040505D01*
X130573183Y-100040505D02*
X130393183Y-99860505D01*
X130539466Y-92035534D02*
X130539466Y-92145339D01*
X130393183Y-92291622D02*
X130393183Y-97545534D01*
X130790633Y-100220505D02*
X130610633Y-100040505D01*
X130610650Y-101240505D02*
X130573183Y-101240505D01*
X130790633Y-104060505D02*
X130790633Y-103820505D01*
X130610633Y-103040505D02*
X130790633Y-102860505D01*
X130610633Y-103640505D02*
X130573183Y-103640505D01*
D36*
%TO.N,Net-(A1-~{BIOS_SEL})*%
X150554466Y-99965534D02*
X150554466Y-98915534D01*
X148394466Y-96755534D02*
X148394466Y-87405534D01*
X149024466Y-97385534D02*
X148394466Y-96755534D01*
X150554466Y-98915534D02*
X149024466Y-97385534D01*
D34*
%TO.N,/USB 2.0 & 3.0/CON_USB2_D_P*%
X136253183Y-106446817D02*
X136414466Y-106285534D01*
X137166067Y-109676817D02*
X136253183Y-108763933D01*
X153464466Y-106685216D02*
X153002865Y-107146817D01*
X136253183Y-108763933D02*
X136253183Y-106446817D01*
X153002865Y-107146817D02*
X144092865Y-107146817D01*
X153464466Y-106435534D02*
X153464466Y-106685216D01*
X144092865Y-107146817D02*
X141562865Y-109676817D01*
X141562865Y-109676817D02*
X137166067Y-109676817D01*
D36*
%TO.N,/GPIO/SOC_UART1_RX*%
X163729656Y-47281213D02*
X161054466Y-49956403D01*
X161054466Y-49956403D02*
X161054466Y-92635534D01*
X161054466Y-92635534D02*
X159624466Y-94065534D01*
X159624466Y-94065534D02*
X159624466Y-97585534D01*
D34*
%TO.N,/LattePanda Module/HSIO_3_TX+*%
X121865371Y-105485534D02*
X120061900Y-103682063D01*
X120061900Y-103682063D02*
X120061900Y-76572650D01*
X112269705Y-68780455D02*
X112409909Y-68780456D01*
X120061900Y-76572650D02*
X115382977Y-71893727D01*
X113966761Y-70477511D02*
X114247249Y-70477511D01*
X114531269Y-71042020D02*
X115382977Y-71893727D01*
X122189466Y-105485534D02*
X121865371Y-105485534D01*
X112834171Y-69064515D02*
X112834172Y-69344923D01*
X113682700Y-70193451D02*
X113966761Y-70477511D01*
X112550111Y-68780455D02*
X112834171Y-69064515D01*
X113258437Y-69628984D02*
X113398639Y-69628983D01*
X113118233Y-69628983D02*
X113258437Y-69628984D01*
X112409909Y-68780456D02*
X112550111Y-68780455D01*
X114531268Y-70761530D02*
X114531269Y-71042020D01*
X114247249Y-70477511D02*
X114531268Y-70761530D01*
X113398639Y-69628983D02*
X113682699Y-69913043D01*
X113682699Y-69913043D02*
X113682700Y-70193451D01*
X112834172Y-69344923D02*
X113118233Y-69628983D01*
D36*
%TO.N,/GPIO/SOC_UART0_RX*%
X162934466Y-46985534D02*
X160224466Y-49695534D01*
X163224466Y-46725534D02*
X162964466Y-46985534D01*
X160224466Y-91515534D02*
X157054466Y-94685534D01*
X162964466Y-46985534D02*
X162934466Y-46985534D01*
X160224466Y-49695534D02*
X160224466Y-91515534D01*
X157054466Y-94685534D02*
X157054466Y-96645534D01*
%TO.N,/GPIO/GPP_D1*%
X150374466Y-56005534D02*
X150374466Y-91105534D01*
X150374466Y-91105534D02*
X150304466Y-91175534D01*
X148004466Y-55275534D02*
X149644466Y-55275534D01*
X149644466Y-55275534D02*
X150374466Y-56005534D01*
D34*
%TO.N,/Gigabit Ethernet/GbE_PCIe_RX-*%
X130095749Y-92291622D02*
X130095749Y-105529251D01*
X130095749Y-105529251D02*
X129914466Y-105710534D01*
X129995063Y-92074608D02*
X129995063Y-92190936D01*
X129995063Y-92190936D02*
X130095749Y-92291622D01*
D36*
%TO.N,/GPIO/SOC_UART1_TX*%
X162934466Y-97965534D02*
X163044466Y-98075534D01*
X162934466Y-56225534D02*
X162934466Y-97965534D01*
%TO.N,Net-(A1-SIO_UART_RX)*%
X115164466Y-69245534D02*
X121514466Y-75595534D01*
X114864466Y-58855534D02*
X115164466Y-59155534D01*
X114394466Y-58855534D02*
X114864466Y-58855534D01*
X121514466Y-75595534D02*
X121514466Y-90425534D01*
X115164466Y-59155534D02*
X115164466Y-69245534D01*
D39*
%TO.N,+BATT*%
X151509466Y-105670534D02*
X148334466Y-102495534D01*
X148334466Y-102495534D02*
X148334466Y-100625534D01*
X148334466Y-100625534D02*
X148044466Y-100335534D01*
X148044466Y-100335534D02*
X147274466Y-100335534D01*
X156360097Y-105670534D02*
X151509466Y-105670534D01*
X156364466Y-105666165D02*
X156360097Y-105670534D01*
D36*
%TO.N,/GPIO/GPP_D2*%
X148324466Y-54015534D02*
X150274466Y-54015534D01*
X150274466Y-54015534D02*
X151394466Y-55135534D01*
X151394466Y-55135534D02*
X151394466Y-90335534D01*
X146644466Y-55695534D02*
X148324466Y-54015534D01*
D34*
%TO.N,/USB 2.0 & 3.0/CON_USB3_D_P*%
X128114466Y-100660534D02*
X128275749Y-100821817D01*
X128275749Y-100821817D02*
X128275749Y-106374251D01*
X128275749Y-106374251D02*
X128139466Y-106510534D01*
D36*
%TO.N,/GPIO/SOC_UART2_TX*%
X165464466Y-54445534D02*
X166254466Y-53655534D01*
X165464466Y-88155534D02*
X165464466Y-54445534D01*
D39*
%TO.N,/LattePanda Module/~{RST_SW}*%
X118114466Y-103725534D02*
X111084466Y-110755534D01*
X111084466Y-110755534D02*
X87184466Y-110755534D01*
D34*
%TO.N,/USB 2.0 & 3.0/CON_USB4_D_P*%
X96904466Y-123315534D02*
X96706380Y-123117448D01*
X96053183Y-119260534D02*
X96345661Y-118968056D01*
X96345661Y-118968056D02*
X96345661Y-118660534D01*
X96345661Y-118660534D02*
X96053183Y-118368056D01*
X96904466Y-121235534D02*
X96053183Y-120384251D01*
X96904466Y-123315534D02*
X96904466Y-121235534D01*
X96904466Y-123315534D02*
X96834466Y-123245534D01*
X96053183Y-117837135D02*
X96512802Y-117377515D01*
X96053183Y-120384251D02*
X96053183Y-119260534D01*
X96512802Y-117377515D02*
X96809625Y-117080693D01*
X96053183Y-118368056D02*
X96053183Y-117837135D01*
D36*
%TO.N,/GPIO/I2C2_SDA*%
X159294466Y-49545534D02*
X158444466Y-48695534D01*
X158764466Y-91575534D02*
X159294466Y-91045534D01*
X159294466Y-91045534D02*
X159294466Y-49545534D01*
%TO.N,/GPIO/GPP_D3*%
X152454466Y-88035534D02*
X152584466Y-88165534D01*
X152584466Y-88165534D02*
X152704466Y-88165534D01*
X152704466Y-88165534D02*
X152794466Y-88255534D01*
X152419466Y-57900534D02*
X152499466Y-57900534D01*
X152499466Y-57900534D02*
X152454466Y-57945534D01*
X152454466Y-57945534D02*
X152454466Y-88035534D01*
D40*
%TO.N,5V_HDMI_VCC*%
X167914466Y-122135534D02*
X162964466Y-122135534D01*
D34*
%TO.N,/USB 2.0 & 3.0/CON_USB3_SSTX_P*%
X91904466Y-125015534D02*
X92368452Y-125015534D01*
X92084466Y-125015534D02*
X91904466Y-125015534D01*
D38*
%TO.N,+5V*%
X192794466Y-127965534D02*
X192794466Y-128115534D01*
X192794466Y-128115534D02*
X192744466Y-128165534D01*
X199984466Y-66975534D02*
X199984466Y-100375534D01*
X157273466Y-136096534D02*
X106884466Y-136096534D01*
X81854466Y-130015534D02*
X81854466Y-132205534D01*
X163514466Y-132905534D02*
X160464466Y-132905534D01*
D40*
X163514466Y-127705534D02*
X163524466Y-127715534D01*
D38*
X160464466Y-132905534D02*
X157273466Y-136096534D01*
D40*
X163524466Y-127715534D02*
X163524466Y-132895534D01*
D38*
X192744466Y-130285534D02*
X190124466Y-132905534D01*
X105413466Y-134625534D02*
X106884466Y-136096534D01*
X192744466Y-107615534D02*
X192744466Y-127915534D01*
D40*
X163524466Y-132895534D02*
X163514466Y-132905534D01*
D38*
X84274466Y-134625534D02*
X105413466Y-134625534D01*
X81854466Y-132205534D02*
X84274466Y-134625534D01*
X192744466Y-127915534D02*
X192744466Y-130285534D01*
X192744466Y-127915534D02*
X192794466Y-127965534D01*
X190124466Y-132905534D02*
X163514466Y-132905534D01*
X199984466Y-100375534D02*
X192744466Y-107615534D01*
D35*
%TO.N,/Power Supply/PWR_C_D-*%
X233094466Y-77652690D02*
X233094466Y-79120534D01*
X233094466Y-79120534D02*
X232619466Y-79595534D01*
X232587310Y-77145534D02*
X233094466Y-77652690D01*
X229519466Y-77145534D02*
X232587310Y-77145534D01*
%TO.N,/Power Supply/PWR_C_D+*%
X232644466Y-78934137D02*
X232633069Y-78945534D01*
X229719465Y-77595535D02*
X232400915Y-77595535D01*
X232400915Y-77595535D02*
X232644466Y-77839086D01*
X229519466Y-77795534D02*
X229719465Y-77595535D01*
X232633069Y-78945534D02*
X232619466Y-78945534D01*
X232644466Y-77839086D02*
X232644466Y-78934137D01*
D36*
%TO.N,Net-(U6-LED1)*%
X132624466Y-116185534D02*
X132624466Y-131465534D01*
X133004466Y-131845534D02*
X135809466Y-131845534D01*
X134661866Y-114148134D02*
X132624466Y-116185534D01*
X132624466Y-131465534D02*
X133004466Y-131845534D01*
X137371696Y-114125534D02*
X137349096Y-114148134D01*
X137349096Y-114148134D02*
X134661866Y-114148134D01*
X137804466Y-114125534D02*
X137371696Y-114125534D01*
X139034466Y-112895534D02*
X137804466Y-114125534D01*
%TO.N,Net-(U6-LED2)*%
X138259466Y-112880534D02*
X137244466Y-113895534D01*
X137244466Y-113895534D02*
X133524466Y-113895534D01*
X139004466Y-131845534D02*
X145919466Y-131845534D01*
X132004466Y-115415534D02*
X132004466Y-131875534D01*
X132004466Y-131875534D02*
X133414466Y-133285534D01*
X137564466Y-133285534D02*
X139004466Y-131845534D01*
X133414466Y-133285534D02*
X137564466Y-133285534D01*
X133524466Y-113895534D02*
X132004466Y-115415534D01*
%TO.N,Net-(Q4-D)*%
X180514466Y-118785534D02*
X181564466Y-118785534D01*
X175164466Y-118785534D02*
X176164466Y-118785534D01*
X177814466Y-118785534D02*
X178714466Y-118785534D01*
X178714466Y-118785534D02*
X178914466Y-118785534D01*
X183114466Y-118785534D02*
X183124466Y-118795534D01*
X178714466Y-118785534D02*
X180514466Y-118785534D01*
X181564466Y-118785534D02*
X183114466Y-118785534D01*
X176164466Y-118785534D02*
X177814466Y-118785534D01*
X173464466Y-118785534D02*
X175164466Y-118785534D01*
X183874466Y-118795534D02*
X183124466Y-118795534D01*
%TO.N,/Power Supply/PWR_EN*%
X216604466Y-50075534D02*
X216464466Y-49935534D01*
X216464466Y-49935534D02*
X214584466Y-49935534D01*
D37*
%TO.N,/Gigabit Ethernet/MDI1+*%
X140229466Y-116028652D02*
X140229466Y-120595534D01*
X140774123Y-115483995D02*
X140229466Y-116028652D01*
X147994466Y-113745534D02*
X147994466Y-114253652D01*
X147884466Y-113635534D02*
X147994466Y-113745534D01*
X147994466Y-114253652D02*
X146764123Y-115483995D01*
X146764123Y-115483995D02*
X140774123Y-115483995D01*
%TO.N,/Gigabit Ethernet/MDI1-*%
X148474466Y-113605534D02*
X148431714Y-113562782D01*
D34*
%TO.N,/USB 2.0 & 3.0/CON_USB4_SSRX_P*%
X126314466Y-104110534D02*
X126455749Y-103969251D01*
X126455749Y-103969251D02*
X126455749Y-100377135D01*
X126455749Y-100377135D02*
X123663234Y-97584620D01*
X123663234Y-97584620D02*
X123522169Y-97584620D01*
%TO.N,/USB 2.0 & 3.0/CON_USB4_SSRX_N*%
X126989466Y-104135534D02*
X126753183Y-103899251D01*
X126753183Y-103899251D02*
X126753183Y-100253933D01*
X126753183Y-100253933D02*
X123895821Y-97396571D01*
X123895821Y-97396571D02*
X123895821Y-97254179D01*
%TD*%
%TA.AperFunction,Conductor*%
%TO.N,+5V*%
G36*
X203853657Y-60124441D02*
G01*
X203889621Y-60173941D01*
X203894466Y-60204534D01*
X203894466Y-71216534D01*
X203875559Y-71274725D01*
X203826059Y-71310689D01*
X203795466Y-71315534D01*
X199505474Y-71315534D01*
X199447283Y-71296627D01*
X199435470Y-71286538D01*
X199243462Y-71094530D01*
X199215685Y-71040013D01*
X199214466Y-71024526D01*
X199214466Y-68704697D01*
X200733437Y-68693823D01*
X200713426Y-66722744D01*
X199214466Y-66740249D01*
X199214466Y-60204534D01*
X199233373Y-60146343D01*
X199282873Y-60110379D01*
X199313466Y-60105534D01*
X203795466Y-60105534D01*
X203853657Y-60124441D01*
G37*
%TD.AperFunction*%
%TD*%
%TA.AperFunction,Conductor*%
%TO.N,VDC*%
G36*
X185123553Y-101184360D02*
G01*
X185124169Y-101197230D01*
X185104976Y-105842046D01*
X185104466Y-105843756D01*
X185104466Y-101125597D01*
X185117663Y-101125555D01*
X185123553Y-101184360D01*
G37*
%TD.AperFunction*%
%TD*%
%TA.AperFunction,Conductor*%
%TO.N,+5V*%
G36*
X83883657Y-121154441D02*
G01*
X83919621Y-121203941D01*
X83924466Y-121234534D01*
X83924466Y-131176534D01*
X83905559Y-131234725D01*
X83856059Y-131270689D01*
X83825466Y-131275534D01*
X80263466Y-131275534D01*
X80205275Y-131256627D01*
X80169311Y-131207127D01*
X80164466Y-131176534D01*
X80164466Y-121234534D01*
X80183373Y-121176343D01*
X80232873Y-121140379D01*
X80263466Y-121135534D01*
X83825466Y-121135534D01*
X83883657Y-121154441D01*
G37*
%TD.AperFunction*%
%TD*%
%TA.AperFunction,Conductor*%
%TO.N,VDC*%
G36*
X233180205Y-90109956D02*
G01*
X233200082Y-90115860D01*
X233220791Y-90116921D01*
X233243612Y-90128789D01*
X233247182Y-90129850D01*
X233248423Y-90131291D01*
X233252104Y-90133206D01*
X233287754Y-90158785D01*
X233330748Y-90213860D01*
X233339466Y-90259534D01*
X233339466Y-95511534D01*
X233319781Y-95578573D01*
X233266977Y-95624328D01*
X233215466Y-95635534D01*
X217140828Y-95635534D01*
X217073789Y-95615849D01*
X217053147Y-95599215D01*
X217000785Y-95546853D01*
X216967300Y-95485530D01*
X216964466Y-95459172D01*
X216964466Y-90536896D01*
X216984151Y-90469857D01*
X217000785Y-90449215D01*
X217352988Y-90097011D01*
X217414309Y-90063528D01*
X217441050Y-90060695D01*
X233180205Y-90109956D01*
G37*
%TD.AperFunction*%
%TD*%
%TA.AperFunction,Conductor*%
%TO.N,+5V*%
G36*
X200733437Y-68693823D02*
G01*
X199214466Y-68704697D01*
X199214464Y-68704696D01*
X193716040Y-68744063D01*
X193657715Y-68725573D01*
X193621398Y-68676332D01*
X193616331Y-68645066D01*
X193616331Y-67647613D01*
X193616537Y-67641232D01*
X193618942Y-67603994D01*
X193642367Y-67580570D01*
X193624466Y-67562669D01*
X193624466Y-66903384D01*
X193643373Y-66845193D01*
X193692873Y-66809229D01*
X193722307Y-66804391D01*
X200713426Y-66722744D01*
X200733437Y-68693823D01*
G37*
%TD.AperFunction*%
%TD*%
%TA.AperFunction,Conductor*%
%TO.N,+5V*%
G36*
X193843657Y-118024441D02*
G01*
X193879621Y-118073941D01*
X193884466Y-118104534D01*
X193884466Y-129326534D01*
X193865559Y-129384725D01*
X193816059Y-129420689D01*
X193785466Y-129425534D01*
X190073466Y-129425534D01*
X190015275Y-129406627D01*
X189979311Y-129357127D01*
X189974466Y-129326534D01*
X189974466Y-118104534D01*
X189993373Y-118046343D01*
X190042873Y-118010379D01*
X190073466Y-118005534D01*
X193785466Y-118005534D01*
X193843657Y-118024441D01*
G37*
%TD.AperFunction*%
%TD*%
%TA.AperFunction,Conductor*%
%TO.N,VDC*%
G36*
X228532505Y-67355219D02*
G01*
X228578260Y-67408023D01*
X228589466Y-67459534D01*
X228589466Y-71334172D01*
X228569781Y-71401211D01*
X228553147Y-71421853D01*
X227699826Y-72275173D01*
X227638503Y-72308658D01*
X227614468Y-72311470D01*
X213115183Y-72583178D01*
X213047787Y-72564753D01*
X213001051Y-72512816D01*
X212988861Y-72459796D01*
X212988148Y-72311470D01*
X212976293Y-69845534D01*
X215144466Y-69845534D01*
X215104466Y-67715534D01*
X212966053Y-67715534D01*
X212964825Y-67460130D01*
X212984188Y-67392997D01*
X213036771Y-67346988D01*
X213088824Y-67335534D01*
X228465466Y-67335534D01*
X228532505Y-67355219D01*
G37*
%TD.AperFunction*%
%TD*%
%TA.AperFunction,Conductor*%
%TO.N,VDC*%
G36*
X181753038Y-95015534D02*
G01*
X181718505Y-95015534D01*
X181698328Y-94936588D01*
X181698395Y-94934692D01*
X181697474Y-94933031D01*
X181694466Y-94905884D01*
X181694466Y-90649534D01*
X181696014Y-90644259D01*
X181753038Y-95015534D01*
G37*
%TD.AperFunction*%
%TA.AperFunction,Conductor*%
G36*
X185040143Y-90545219D02*
G01*
X185060785Y-90561853D01*
X185068147Y-90569215D01*
X185087764Y-90605142D01*
X181806395Y-90528159D01*
X181818466Y-90525534D01*
X184973104Y-90525534D01*
X185040143Y-90545219D01*
G37*
%TD.AperFunction*%
%TD*%
%TA.AperFunction,Conductor*%
%TO.N,+3V3*%
G36*
X205157604Y-37715219D02*
G01*
X205203359Y-37768023D01*
X205214565Y-37819435D01*
X205223334Y-48751672D01*
X205218369Y-48786507D01*
X205215520Y-48796270D01*
X205177844Y-48855111D01*
X205114337Y-48884242D01*
X205096485Y-48885534D01*
X203615887Y-48885534D01*
X203613004Y-48885500D01*
X202539466Y-48860533D01*
X202539465Y-48860534D01*
X202544030Y-50170440D01*
X202524579Y-50237548D01*
X202471935Y-50283486D01*
X202419373Y-50294870D01*
X198898103Y-50276189D01*
X198831169Y-50256149D01*
X198785695Y-50203103D01*
X198774761Y-50151898D01*
X198796691Y-40990913D01*
X198783885Y-39092251D01*
X198803117Y-39025085D01*
X198855611Y-38978975D01*
X198924701Y-38968565D01*
X198955339Y-38976860D01*
X198959875Y-38978738D01*
X198959879Y-38978741D01*
X199061739Y-39006034D01*
X199061741Y-39006034D01*
X199167191Y-39006034D01*
X199167193Y-39006034D01*
X199269053Y-38978741D01*
X199360379Y-38926014D01*
X199360380Y-38926012D01*
X199367417Y-38921950D01*
X199369248Y-38925121D01*
X199418515Y-38905784D01*
X199487031Y-38919471D01*
X199491345Y-38922243D01*
X199491515Y-38921950D01*
X199498551Y-38926012D01*
X199498553Y-38926014D01*
X199589879Y-38978741D01*
X199691739Y-39006034D01*
X199691741Y-39006034D01*
X199797191Y-39006034D01*
X199797193Y-39006034D01*
X199899053Y-38978741D01*
X199990379Y-38926014D01*
X199992691Y-38923701D01*
X199995124Y-38922372D01*
X199996829Y-38921065D01*
X199997032Y-38921330D01*
X200054008Y-38890215D01*
X200123700Y-38895196D01*
X200142368Y-38903990D01*
X200219879Y-38948741D01*
X200321739Y-38976034D01*
X200321741Y-38976034D01*
X200427191Y-38976034D01*
X200427193Y-38976034D01*
X200529053Y-38948741D01*
X200620379Y-38896014D01*
X200620380Y-38896012D01*
X200627417Y-38891950D01*
X200628302Y-38893484D01*
X200684137Y-38871893D01*
X200752583Y-38885925D01*
X200765884Y-38894472D01*
X200768550Y-38896011D01*
X200768553Y-38896014D01*
X200859879Y-38948741D01*
X200961739Y-38976034D01*
X200961741Y-38976034D01*
X201067191Y-38976034D01*
X201067193Y-38976034D01*
X201169053Y-38948741D01*
X201260379Y-38896014D01*
X201266785Y-38889608D01*
X201328108Y-38856123D01*
X201397800Y-38861107D01*
X201442147Y-38889608D01*
X201478553Y-38926014D01*
X201569879Y-38978741D01*
X201671739Y-39006034D01*
X201671741Y-39006034D01*
X201777191Y-39006034D01*
X201777193Y-39006034D01*
X201879053Y-38978741D01*
X201970379Y-38926014D01*
X202044946Y-38851447D01*
X202097673Y-38760121D01*
X202124966Y-38658261D01*
X202124966Y-38552807D01*
X202097673Y-38450947D01*
X202044946Y-38359621D01*
X202044943Y-38359618D01*
X202040208Y-38353446D01*
X202015016Y-38288276D01*
X202018810Y-38245876D01*
X202044966Y-38148261D01*
X202044966Y-38042807D01*
X202017673Y-37940947D01*
X201983371Y-37881534D01*
X201966898Y-37813634D01*
X201989751Y-37747607D01*
X202044672Y-37704416D01*
X202090758Y-37695534D01*
X205090565Y-37695534D01*
X205157604Y-37715219D01*
G37*
%TD.AperFunction*%
%TD*%
%TA.AperFunction,Conductor*%
%TO.N,VDC*%
G36*
X211561535Y-66004474D02*
G01*
X211628402Y-66024735D01*
X211673700Y-66077932D01*
X211684466Y-66128469D01*
X211684466Y-66345534D01*
X212904466Y-67715534D01*
X215104466Y-67715534D01*
X215144466Y-69845534D01*
X209478788Y-69845534D01*
X209411749Y-69825849D01*
X209365994Y-69773045D01*
X209354788Y-69721213D01*
X209359984Y-67715533D01*
X209364142Y-66110280D01*
X209384001Y-66043295D01*
X209436923Y-65997677D01*
X209489209Y-65986609D01*
X211561535Y-66004474D01*
G37*
%TD.AperFunction*%
%TD*%
%TA.AperFunction,Conductor*%
%TO.N,VDC*%
G36*
X185090071Y-90605196D02*
G01*
X185103247Y-90631055D01*
X185104466Y-90646542D01*
X185104466Y-97447603D01*
X185085559Y-97505794D01*
X185060468Y-97529918D01*
X184953458Y-97601420D01*
X184953454Y-97601423D01*
X184855885Y-97698992D01*
X184779228Y-97813716D01*
X184779222Y-97813727D01*
X184726420Y-97941204D01*
X184726420Y-97941206D01*
X184699500Y-98076538D01*
X184699500Y-98214529D01*
X184726420Y-98349861D01*
X184726420Y-98349863D01*
X184779222Y-98477340D01*
X184779228Y-98477351D01*
X184855885Y-98592075D01*
X184855886Y-98592076D01*
X184953458Y-98689648D01*
X185058318Y-98759713D01*
X185060468Y-98761150D01*
X185098347Y-98809200D01*
X185104466Y-98843465D01*
X185104466Y-105868178D01*
X185085726Y-105925055D01*
X185036077Y-105960814D01*
X185005874Y-105965534D01*
X182085474Y-105965534D01*
X182077876Y-105963065D01*
X182069987Y-105964315D01*
X182049331Y-105953790D01*
X182027283Y-105946627D01*
X182015470Y-105936538D01*
X181922380Y-105843448D01*
X181894603Y-105788931D01*
X181893393Y-105774747D01*
X181759069Y-95477893D01*
X181759910Y-95463681D01*
X181759964Y-95463265D01*
X181759966Y-95463261D01*
X181759966Y-95357807D01*
X181759966Y-95357804D01*
X181759119Y-95351373D01*
X181759369Y-95351339D01*
X181757215Y-95335779D01*
X181695707Y-90620712D01*
X181713373Y-90566343D01*
X181762873Y-90530379D01*
X181780692Y-90527556D01*
X185090071Y-90605196D01*
G37*
%TD.AperFunction*%
%TD*%
%TA.AperFunction,Conductor*%
%TO.N,+15V*%
G36*
X228778657Y-77429941D02*
G01*
X228814621Y-77479441D01*
X228819466Y-77510034D01*
X228819466Y-82779526D01*
X228816997Y-82787123D01*
X228818247Y-82795013D01*
X228807722Y-82815668D01*
X228800559Y-82837717D01*
X228790470Y-82849530D01*
X228748462Y-82891538D01*
X228693945Y-82919315D01*
X228678458Y-82920534D01*
X226718466Y-82920534D01*
X226660275Y-82901627D01*
X226624311Y-82852127D01*
X226619466Y-82821534D01*
X226619466Y-77510034D01*
X226638373Y-77451843D01*
X226687873Y-77415879D01*
X226718466Y-77411034D01*
X228720466Y-77411034D01*
X228778657Y-77429941D01*
G37*
%TD.AperFunction*%
%TA.AperFunction,Conductor*%
G36*
X228778657Y-74339441D02*
G01*
X228814621Y-74388941D01*
X228819466Y-74419534D01*
X228819466Y-76579911D01*
X228800559Y-76638102D01*
X228790470Y-76649915D01*
X228609347Y-76831038D01*
X228554830Y-76858815D01*
X228539343Y-76860034D01*
X226718466Y-76860034D01*
X226660275Y-76841127D01*
X226624311Y-76791627D01*
X226619466Y-76761034D01*
X226619466Y-74419534D01*
X226638373Y-74361343D01*
X226687873Y-74325379D01*
X226718466Y-74320534D01*
X228720466Y-74320534D01*
X228778657Y-74339441D01*
G37*
%TD.AperFunction*%
%TD*%
%TA.AperFunction,Conductor*%
%TO.N,/Gigabit Ethernet/MDI1-*%
G36*
X140546055Y-116999800D02*
G01*
X140624480Y-117070178D01*
X140624483Y-117070180D01*
X140624484Y-117070181D01*
X140703090Y-117123788D01*
X140704986Y-117125081D01*
X140780838Y-117160229D01*
X140853546Y-117178745D01*
X140924623Y-117183753D01*
X140995579Y-117178374D01*
X141143175Y-117148947D01*
X141301457Y-117116564D01*
X141302923Y-117116361D01*
X141486278Y-117102597D01*
X141488402Y-117102630D01*
X141672095Y-117122419D01*
X141679954Y-117126713D01*
X141682475Y-117135305D01*
X141682319Y-117136325D01*
X141501694Y-118048558D01*
X141496726Y-118056008D01*
X141492490Y-118057762D01*
X140580052Y-118238428D01*
X140571270Y-118236674D01*
X140566302Y-118229224D01*
X140566168Y-118228395D01*
X140547612Y-118079222D01*
X140547526Y-118077532D01*
X140550560Y-117937367D01*
X140550674Y-117935979D01*
X140568448Y-117812039D01*
X140568595Y-117811226D01*
X140592862Y-117699322D01*
X140592879Y-117699243D01*
X140608537Y-117629388D01*
X140627588Y-117486703D01*
X140613477Y-117366607D01*
X140591631Y-117305577D01*
X140557612Y-117241985D01*
X140505947Y-117170381D01*
X140474958Y-117136325D01*
X140443842Y-117102130D01*
X140440809Y-117093705D01*
X140444222Y-117085984D01*
X140529971Y-117000235D01*
X140538243Y-116996809D01*
X140546055Y-116999800D01*
G37*
%TD.AperFunction*%
%TD*%
%TA.AperFunction,Conductor*%
%TO.N,/USB 2.0 & 3.0/CON_USB4_D_N*%
G36*
X95001190Y-122230490D02*
G01*
X95004585Y-122237895D01*
X95017307Y-122409001D01*
X95026042Y-122437789D01*
X95056195Y-122537166D01*
X95117909Y-122635915D01*
X95199902Y-122729603D01*
X95263771Y-122800362D01*
X95264368Y-122801078D01*
X95395753Y-122972294D01*
X95398071Y-122980944D01*
X95393594Y-122988699D01*
X95392985Y-122989136D01*
X94910980Y-123312168D01*
X94902199Y-123313927D01*
X94897952Y-123312168D01*
X94415808Y-122989044D01*
X94410844Y-122981592D01*
X94412603Y-122972811D01*
X94412929Y-122972349D01*
X94513982Y-122836956D01*
X94514595Y-122836203D01*
X94546346Y-122800362D01*
X94609026Y-122729606D01*
X94659515Y-122673783D01*
X94738397Y-122565386D01*
X94765498Y-122506725D01*
X94785878Y-122437787D01*
X94800243Y-122343814D01*
X94804681Y-122238271D01*
X94808453Y-122230150D01*
X94816371Y-122227063D01*
X94992917Y-122227063D01*
X95001190Y-122230490D01*
G37*
%TD.AperFunction*%
%TD*%
%TA.AperFunction,Conductor*%
%TO.N,/USB 2.0 & 3.0/CON_USB3_SSTX_P*%
G36*
X92611837Y-124183576D02*
G01*
X92736674Y-124308413D01*
X92740101Y-124316686D01*
X92737265Y-124324323D01*
X92625270Y-124454310D01*
X92562143Y-124572434D01*
X92535956Y-124685888D01*
X92535954Y-124685899D01*
X92527687Y-124810097D01*
X92522813Y-124905329D01*
X92522728Y-124906258D01*
X92494564Y-125120220D01*
X92490087Y-125127975D01*
X92481437Y-125130293D01*
X92480697Y-125130171D01*
X91911451Y-125017759D01*
X91903999Y-125012795D01*
X91902240Y-125008548D01*
X91838525Y-124685899D01*
X91789796Y-124439137D01*
X91791555Y-124430358D01*
X91799007Y-124425394D01*
X91799556Y-124425299D01*
X91966761Y-124401014D01*
X91967723Y-124400915D01*
X92109872Y-124392313D01*
X92109874Y-124392358D01*
X92109989Y-124392307D01*
X92159719Y-124389811D01*
X92185035Y-124388542D01*
X92185040Y-124388541D01*
X92185045Y-124388541D01*
X92229973Y-124381460D01*
X92317467Y-124367672D01*
X92317468Y-124367671D01*
X92317472Y-124367671D01*
X92378114Y-124345355D01*
X92441272Y-124311019D01*
X92517878Y-124254728D01*
X92595646Y-124183235D01*
X92604055Y-124180159D01*
X92611837Y-124183576D01*
G37*
%TD.AperFunction*%
%TD*%
%TA.AperFunction,Conductor*%
%TO.N,/USB 2.0 & 3.0/CON_USB3_SSTX_N*%
G36*
X93213255Y-124182734D02*
G01*
X93276861Y-124237536D01*
X93343241Y-124294728D01*
X93461364Y-124357855D01*
X93574828Y-124384044D01*
X93669095Y-124390318D01*
X93699028Y-124392311D01*
X93699032Y-124392311D01*
X93699059Y-124392313D01*
X93794267Y-124397186D01*
X93795184Y-124397270D01*
X94009152Y-124425435D01*
X94016907Y-124429912D01*
X94019225Y-124438562D01*
X94019103Y-124439302D01*
X93906691Y-125008548D01*
X93901727Y-125016000D01*
X93897480Y-125017759D01*
X93328071Y-125130203D01*
X93319290Y-125128444D01*
X93314326Y-125120992D01*
X93314230Y-125120437D01*
X93289946Y-124953239D01*
X93289847Y-124952268D01*
X93281245Y-124810127D01*
X93281239Y-124810006D01*
X93277474Y-124734963D01*
X93277471Y-124734941D01*
X93256604Y-124602532D01*
X93256602Y-124602525D01*
X93234287Y-124541886D01*
X93234284Y-124541879D01*
X93225288Y-124525334D01*
X93199951Y-124478728D01*
X93143660Y-124402121D01*
X93139201Y-124397271D01*
X93072168Y-124324353D01*
X93069091Y-124315944D01*
X93072507Y-124308163D01*
X93197346Y-124183324D01*
X93205618Y-124179898D01*
X93213255Y-124182734D01*
G37*
%TD.AperFunction*%
%TD*%
%TA.AperFunction,Conductor*%
%TO.N,/USB 2.0 & 3.0/CON_USB3_SSRX_N*%
G36*
X99213255Y-124182734D02*
G01*
X99276861Y-124237536D01*
X99343241Y-124294728D01*
X99461364Y-124357855D01*
X99574828Y-124384044D01*
X99669095Y-124390318D01*
X99699028Y-124392311D01*
X99699032Y-124392311D01*
X99699059Y-124392313D01*
X99794267Y-124397186D01*
X99795184Y-124397270D01*
X100009152Y-124425435D01*
X100016907Y-124429912D01*
X100019225Y-124438562D01*
X100019103Y-124439302D01*
X99906691Y-125008548D01*
X99901727Y-125016000D01*
X99897480Y-125017759D01*
X99328071Y-125130203D01*
X99319290Y-125128444D01*
X99314326Y-125120992D01*
X99314230Y-125120437D01*
X99289946Y-124953239D01*
X99289847Y-124952268D01*
X99281245Y-124810127D01*
X99281239Y-124810006D01*
X99277474Y-124734963D01*
X99277471Y-124734941D01*
X99256604Y-124602532D01*
X99256602Y-124602525D01*
X99234287Y-124541886D01*
X99234284Y-124541879D01*
X99225288Y-124525334D01*
X99199951Y-124478728D01*
X99143660Y-124402121D01*
X99139201Y-124397271D01*
X99072168Y-124324353D01*
X99069091Y-124315944D01*
X99072507Y-124308163D01*
X99197346Y-124183324D01*
X99205618Y-124179898D01*
X99213255Y-124182734D01*
G37*
%TD.AperFunction*%
%TD*%
%TA.AperFunction,Conductor*%
%TO.N,/USB 2.0 & 3.0/CON_USB3_SSRX_P*%
G36*
X98611837Y-124183576D02*
G01*
X98736674Y-124308413D01*
X98740101Y-124316686D01*
X98737265Y-124324323D01*
X98625270Y-124454310D01*
X98562143Y-124572434D01*
X98535956Y-124685888D01*
X98535954Y-124685899D01*
X98527687Y-124810097D01*
X98522813Y-124905329D01*
X98522728Y-124906258D01*
X98494564Y-125120220D01*
X98490087Y-125127975D01*
X98481437Y-125130293D01*
X98480697Y-125130171D01*
X97911451Y-125017759D01*
X97903999Y-125012795D01*
X97902240Y-125008548D01*
X97838525Y-124685899D01*
X97789796Y-124439137D01*
X97791555Y-124430358D01*
X97799007Y-124425394D01*
X97799556Y-124425299D01*
X97966761Y-124401014D01*
X97967723Y-124400915D01*
X98109872Y-124392313D01*
X98109874Y-124392358D01*
X98109989Y-124392307D01*
X98159719Y-124389811D01*
X98185035Y-124388542D01*
X98185040Y-124388541D01*
X98185045Y-124388541D01*
X98229973Y-124381460D01*
X98317467Y-124367672D01*
X98317468Y-124367671D01*
X98317472Y-124367671D01*
X98378114Y-124345355D01*
X98441272Y-124311019D01*
X98517878Y-124254728D01*
X98595646Y-124183235D01*
X98604055Y-124180159D01*
X98611837Y-124183576D01*
G37*
%TD.AperFunction*%
%TD*%
%TA.AperFunction,Conductor*%
%TO.N,/USB 2.0 & 3.0/CON_USB4_D_P*%
G36*
X97001190Y-122230490D02*
G01*
X97004585Y-122237895D01*
X97017307Y-122409001D01*
X97026042Y-122437789D01*
X97056195Y-122537166D01*
X97117909Y-122635915D01*
X97199902Y-122729603D01*
X97263771Y-122800362D01*
X97264368Y-122801078D01*
X97395753Y-122972294D01*
X97398071Y-122980944D01*
X97393594Y-122988699D01*
X97392985Y-122989136D01*
X96910980Y-123312168D01*
X96902199Y-123313927D01*
X96897952Y-123312168D01*
X96415808Y-122989044D01*
X96410844Y-122981592D01*
X96412603Y-122972811D01*
X96412929Y-122972349D01*
X96513982Y-122836956D01*
X96514595Y-122836203D01*
X96546346Y-122800362D01*
X96609026Y-122729606D01*
X96659515Y-122673783D01*
X96738397Y-122565386D01*
X96765498Y-122506725D01*
X96785878Y-122437787D01*
X96800243Y-122343814D01*
X96804681Y-122238271D01*
X96808453Y-122230150D01*
X96816371Y-122227063D01*
X96992917Y-122227063D01*
X97001190Y-122230490D01*
G37*
%TD.AperFunction*%
%TD*%
%TA.AperFunction,Conductor*%
%TO.N,Net-(U6-LED1)*%
G36*
X135288171Y-131065426D02*
G01*
X135288781Y-131066254D01*
X135806108Y-131839025D01*
X135807862Y-131847807D01*
X135806108Y-131852043D01*
X135288662Y-132624990D01*
X135281212Y-132629958D01*
X135272430Y-132628204D01*
X135271781Y-132627734D01*
X135153501Y-132535732D01*
X135152253Y-132534607D01*
X135055419Y-132433836D01*
X135054510Y-132432769D01*
X134979455Y-132333135D01*
X134978981Y-132332458D01*
X134916895Y-132236652D01*
X134916851Y-132236582D01*
X134879210Y-132177584D01*
X134791354Y-132063068D01*
X134791353Y-132063067D01*
X134696272Y-131988117D01*
X134696269Y-131988116D01*
X134637596Y-131960413D01*
X134568487Y-131939503D01*
X134568484Y-131939502D01*
X134481198Y-131925404D01*
X134481200Y-131925404D01*
X134388870Y-131921058D01*
X134380767Y-131917246D01*
X134377720Y-131909371D01*
X134377720Y-131781620D01*
X134381147Y-131773347D01*
X134388789Y-131769937D01*
X134493939Y-131764275D01*
X134589660Y-131746251D01*
X134668159Y-131717594D01*
X134732709Y-131679436D01*
X134786583Y-131632908D01*
X134833056Y-131579140D01*
X134916894Y-131454415D01*
X135004855Y-131321936D01*
X135005723Y-131320792D01*
X135126011Y-131181209D01*
X135127523Y-131179747D01*
X135271723Y-131063649D01*
X135280314Y-131061131D01*
X135288171Y-131065426D01*
G37*
%TD.AperFunction*%
%TD*%
%TA.AperFunction,Conductor*%
%TO.N,Net-(U6-LED2)*%
G36*
X145398171Y-131065426D02*
G01*
X145398781Y-131066254D01*
X145916108Y-131839025D01*
X145917862Y-131847807D01*
X145916108Y-131852043D01*
X145398662Y-132624990D01*
X145391212Y-132629958D01*
X145382430Y-132628204D01*
X145381781Y-132627734D01*
X145263501Y-132535732D01*
X145262253Y-132534607D01*
X145165419Y-132433836D01*
X145164510Y-132432769D01*
X145089455Y-132333135D01*
X145088981Y-132332458D01*
X145026895Y-132236652D01*
X145026851Y-132236582D01*
X144989210Y-132177584D01*
X144901354Y-132063068D01*
X144901353Y-132063067D01*
X144806272Y-131988117D01*
X144806269Y-131988116D01*
X144747596Y-131960413D01*
X144678487Y-131939503D01*
X144678484Y-131939502D01*
X144591198Y-131925404D01*
X144591200Y-131925404D01*
X144498870Y-131921058D01*
X144490767Y-131917246D01*
X144487720Y-131909371D01*
X144487720Y-131781620D01*
X144491147Y-131773347D01*
X144498789Y-131769937D01*
X144603939Y-131764275D01*
X144699660Y-131746251D01*
X144778159Y-131717594D01*
X144842709Y-131679436D01*
X144896583Y-131632908D01*
X144943056Y-131579140D01*
X145026894Y-131454415D01*
X145114855Y-131321936D01*
X145115723Y-131320792D01*
X145236011Y-131181209D01*
X145237523Y-131179747D01*
X145381723Y-131063649D01*
X145390314Y-131061131D01*
X145398171Y-131065426D01*
G37*
%TD.AperFunction*%
%TD*%
%TA.AperFunction,Conductor*%
%TO.N,/Gigabit Ethernet/MDI1+*%
G36*
X140298409Y-119167215D02*
G01*
X140301819Y-119174856D01*
X140307509Y-119280078D01*
X140307509Y-119280079D01*
X140325612Y-119375815D01*
X140325614Y-119375824D01*
X140354394Y-119454309D01*
X140392716Y-119518817D01*
X140392722Y-119518825D01*
X140439428Y-119572611D01*
X140439430Y-119572613D01*
X140439433Y-119572616D01*
X140493410Y-119618986D01*
X140618584Y-119702545D01*
X140753404Y-119791569D01*
X140754578Y-119792457D01*
X140893969Y-119912380D01*
X140895450Y-119913910D01*
X141011345Y-120057789D01*
X141013866Y-120066381D01*
X141009572Y-120074240D01*
X141008742Y-120074851D01*
X140235975Y-120592176D01*
X140227193Y-120593930D01*
X140222957Y-120592176D01*
X139450016Y-120074735D01*
X139445048Y-120067285D01*
X139446802Y-120058503D01*
X139447294Y-120057823D01*
X139539660Y-119939214D01*
X139540784Y-119937970D01*
X139642048Y-119840995D01*
X139643105Y-119840099D01*
X139743312Y-119765029D01*
X139743968Y-119764573D01*
X139840348Y-119702545D01*
X139840352Y-119702551D01*
X139840409Y-119702505D01*
X139900814Y-119664221D01*
X140015179Y-119576798D01*
X140090122Y-119481900D01*
X140117829Y-119423297D01*
X140138741Y-119354276D01*
X140152840Y-119267111D01*
X140157185Y-119174936D01*
X140160998Y-119166834D01*
X140168872Y-119163788D01*
X140290136Y-119163788D01*
X140298409Y-119167215D01*
G37*
%TD.AperFunction*%
%TD*%
M02*
